<svg xmlns="http://www.w3.org/2000/svg" xmlns:xlink="http://www.w3.org/1999/xlink" width="500" zoomAndPan="magnify" viewBox="0 0 375 374.999991" height="500" preserveAspectRatio="xMidYMid meet" version="1.0"><defs><g/><clipPath id="id1"><path d="M 101 37.5 L 251 37.5 L 251 282 L 101 282 Z M 101 37.5 " clip-rule="nonzero"/></clipPath><clipPath id="id2"><path d="M 82.8125 82 L 170 82 L 170 200 L 82.8125 200 Z M 82.8125 82 " clip-rule="nonzero"/></clipPath><clipPath id="id3"><path d="M 188 144 L 292 144 L 292 284.25 L 188 284.25 Z M 188 144 " clip-rule="nonzero"/></clipPath></defs><path fill="rgb(67.059326%, 89.019775%, 97.648621%)" d="M 226.867188 279.25 L 121.203125 271.035156 C 114.558594 271.035156 109.136719 265.609375 109.136719 258.980469 L 103.652344 56.746094 C 103.652344 50.113281 114.558594 39.421875 121.203125 39.421875 L 236.703125 39.421875 C 243.347656 39.421875 248.78125 44.851562 248.78125 51.480469 L 248.78125 258.980469 C 248.78125 265.609375 233.507812 279.25 226.867188 279.25 " fill-opacity="1" fill-rule="nonzero"/><g clip-path="url(#id1)"><path fill="rgb(12.548828%, 18.429565%, 35.289001%)" d="M 226.867188 279.25 L 227.023438 277.351562 L 121.347656 269.148438 L 121.203125 269.140625 C 118.40625 269.140625 115.875 268 114.023438 266.152344 C 112.175781 264.304688 111.035156 261.773438 111.035156 258.980469 L 111.035156 258.933594 L 105.550781 56.695312 L 103.652344 56.746094 L 105.550781 56.746094 C 105.542969 55.605469 106.078125 53.953125 107.109375 52.191406 C 108.628906 49.5625 111.191406 46.734375 113.898438 44.660156 C 115.242188 43.617188 116.625 42.757812 117.902344 42.183594 C 119.175781 41.601562 120.335938 41.316406 121.203125 41.324219 L 236.703125 41.324219 C 239.5 41.324219 242.03125 42.460938 243.882812 44.304688 C 245.730469 46.15625 246.871094 48.6875 246.871094 51.480469 L 246.871094 258.980469 C 246.882812 259.4375 246.726562 260.160156 246.355469 261.003906 C 245.722656 262.503906 244.484375 264.363281 242.886719 266.230469 C 240.492188 269.042969 237.308594 271.902344 234.269531 274.003906 C 232.75 275.066406 231.261719 275.921875 229.957031 276.503906 C 228.660156 277.078125 227.53125 277.351562 226.867188 277.351562 L 226.867188 279.25 L 227.023438 277.351562 L 226.867188 279.25 L 226.867188 281.144531 C 228.027344 281.144531 229.1875 280.863281 230.375 280.4375 C 232.457031 279.667969 234.679688 278.382812 236.910156 276.796875 C 240.25 274.421875 243.578125 271.359375 246.160156 268.253906 C 247.445312 266.695312 248.535156 265.128906 249.335938 263.59375 C 250.132812 262.054688 250.667969 260.546875 250.679688 258.980469 L 250.679688 51.480469 C 250.667969 43.789062 244.40625 37.527344 236.703125 37.523438 L 121.203125 37.523438 C 119.03125 37.53125 116.859375 38.34375 114.714844 39.542969 C 111.523438 41.355469 108.386719 44.132812 105.972656 47.167969 C 104.753906 48.691406 103.730469 50.28125 102.980469 51.878906 C 102.242188 53.484375 101.765625 55.109375 101.753906 56.746094 L 101.753906 56.804688 L 107.226562 259.03125 L 109.136719 258.980469 L 107.226562 258.980469 C 107.238281 266.667969 113.5 272.933594 121.203125 272.945312 L 121.203125 271.035156 L 121.054688 272.933594 L 226.722656 281.144531 L 226.867188 281.144531 L 226.867188 279.25 " fill-opacity="1" fill-rule="nonzero"/></g><path fill="rgb(100%, 100%, 100%)" d="M 222.503906 280.152344 L 115.320312 280.152344 C 108.902344 280.152344 103.652344 274.910156 103.652344 268.496094 L 103.652344 60.199219 C 103.652344 53.789062 108.902344 48.539062 115.320312 48.539062 L 222.503906 48.539062 C 228.921875 48.539062 234.171875 53.789062 234.171875 60.199219 L 234.171875 268.496094 C 234.171875 274.910156 228.921875 280.152344 222.503906 280.152344 " fill-opacity="1" fill-rule="nonzero"/><path fill="rgb(12.548828%, 18.429565%, 35.289001%)" d="M 222.503906 280.152344 L 222.503906 278.34375 L 115.320312 278.34375 C 112.613281 278.34375 110.160156 277.246094 108.367188 275.453125 C 106.574219 273.652344 105.464844 271.203125 105.464844 268.496094 L 105.464844 60.199219 C 105.464844 57.496094 106.574219 55.042969 108.367188 53.242188 C 110.160156 51.453125 112.613281 50.351562 115.320312 50.351562 L 222.503906 50.351562 C 225.210938 50.351562 227.667969 51.453125 229.457031 53.242188 C 231.25 55.042969 232.359375 57.496094 232.359375 60.199219 L 232.359375 268.496094 C 232.359375 271.203125 231.25 273.652344 229.457031 275.453125 C 227.667969 277.246094 225.210938 278.34375 222.503906 278.34375 L 222.503906 281.972656 C 229.9375 281.964844 235.984375 275.921875 235.984375 268.496094 L 235.984375 60.199219 C 235.984375 52.777344 229.9375 46.734375 222.503906 46.726562 L 115.320312 46.726562 C 107.898438 46.734375 101.851562 52.777344 101.839844 60.199219 L 101.839844 268.496094 C 101.851562 275.921875 107.898438 281.964844 115.320312 281.972656 L 222.503906 281.972656 L 222.503906 280.152344 " fill-opacity="1" fill-rule="nonzero"/><path fill="rgb(85.099792%, 94.898987%, 98.81897%)" d="M 222.503906 280.152344 L 222.503906 278.34375 L 115.320312 278.34375 C 112.613281 278.34375 110.160156 277.246094 108.367188 275.453125 C 106.574219 273.652344 105.464844 271.203125 105.464844 268.496094 L 105.464844 60.882812 C 107.355469 65.257812 109.417969 69.492188 111.542969 73.5 C 123.558594 96.257812 139.910156 117.082031 157.886719 135.441406 C 178.671875 156.652344 204 174.972656 230.734375 187.855469 C 231.269531 188.117188 231.816406 188.371094 232.359375 188.625 L 232.359375 268.496094 C 232.359375 271.203125 231.25 273.652344 229.457031 275.453125 C 227.667969 277.246094 225.210938 278.34375 222.503906 278.34375 L 222.503906 280.152344 " fill-opacity="1" fill-rule="nonzero"/><path fill="rgb(0%, 0%, 0%)" d="M 222.503906 280.152344 L 222.503906 278.34375 C 225.210938 278.34375 227.667969 277.246094 229.457031 275.453125 C 231.25 273.652344 232.359375 271.203125 232.359375 268.496094 L 232.359375 188.625 C 232.964844 188.90625 233.566406 189.1875 234.171875 189.460938 L 234.171875 268.496094 C 234.171875 274.910156 228.921875 280.152344 222.503906 280.152344 L 115.320312 280.152344 C 108.902344 280.152344 103.652344 274.910156 103.652344 268.496094 L 103.652344 60.199219 C 103.652344 59.226562 103.789062 58.28125 104.023438 57.378906 C 104.492188 58.554688 104.96875 59.722656 105.464844 60.882812 L 105.464844 268.496094 C 105.464844 271.203125 106.574219 273.652344 108.367188 275.453125 C 110.160156 277.246094 112.613281 278.34375 115.320312 278.34375 L 222.503906 278.34375 L 222.503906 280.152344 " fill-opacity="1" fill-rule="nonzero"/><path fill="rgb(100%, 100%, 100%)" d="M 103.652344 235.84375 L 103.652344 268.496094 C 103.652344 274.910156 108.902344 280.152344 115.320312 280.152344 L 222.503906 280.152344 C 228.921875 280.152344 234.171875 274.910156 234.171875 268.496094 L 234.171875 235.84375 L 103.652344 235.84375 " fill-opacity="1" fill-rule="nonzero"/><path fill="rgb(12.548828%, 18.429565%, 35.289001%)" d="M 103.652344 235.84375 L 101.839844 235.84375 L 101.839844 268.496094 C 101.851562 275.921875 107.898438 281.964844 115.320312 281.972656 L 222.503906 281.972656 C 229.9375 281.964844 235.984375 275.921875 235.984375 268.496094 L 235.984375 235.84375 C 235.984375 235.367188 235.789062 234.898438 235.457031 234.558594 C 235.117188 234.230469 234.648438 234.035156 234.171875 234.035156 L 103.652344 234.035156 C 103.175781 234.035156 102.707031 234.230469 102.367188 234.558594 C 102.035156 234.898438 101.839844 235.367188 101.839844 235.84375 L 103.652344 235.84375 L 103.652344 237.652344 L 232.359375 237.652344 L 232.359375 268.496094 C 232.359375 271.203125 231.25 273.652344 229.457031 275.453125 C 227.667969 277.246094 225.210938 278.34375 222.503906 278.34375 L 115.320312 278.34375 C 112.613281 278.34375 110.160156 277.246094 108.367188 275.453125 C 106.574219 273.652344 105.464844 271.203125 105.464844 268.496094 L 105.464844 235.84375 L 103.652344 235.84375 L 103.652344 237.652344 L 103.652344 235.84375 " fill-opacity="1" fill-rule="nonzero"/><path fill="rgb(67.059326%, 89.019775%, 97.648621%)" d="M 177.0625 256.34375 C 177.0625 261.519531 172.855469 265.714844 167.683594 265.714844 C 162.503906 265.714844 158.308594 261.519531 158.308594 256.34375 C 158.308594 251.167969 162.503906 246.984375 167.683594 246.984375 C 172.855469 246.984375 177.0625 251.167969 177.0625 256.34375 " fill-opacity="1" fill-rule="nonzero"/><path fill="rgb(12.548828%, 18.429565%, 35.289001%)" d="M 177.0625 256.34375 L 175.15625 256.34375 C 175.15625 258.417969 174.328125 260.265625 172.972656 261.628906 C 171.609375 262.980469 169.75 263.816406 167.683594 263.816406 C 165.609375 263.816406 163.761719 262.980469 162.398438 261.628906 C 161.042969 260.265625 160.214844 258.417969 160.214844 256.34375 C 160.214844 254.28125 161.042969 252.421875 162.398438 251.070312 C 163.761719 249.707031 165.609375 248.882812 167.683594 248.882812 C 169.75 248.882812 171.609375 249.707031 172.972656 251.070312 C 174.328125 252.421875 175.15625 254.28125 175.15625 256.34375 L 178.964844 256.34375 C 178.964844 250.128906 173.917969 245.078125 167.683594 245.078125 C 161.453125 245.078125 156.40625 250.128906 156.40625 256.34375 C 156.40625 262.570312 161.453125 267.613281 167.683594 267.613281 C 173.917969 267.613281 178.964844 262.570312 178.964844 256.34375 L 177.0625 256.34375 " fill-opacity="1" fill-rule="nonzero"/><path fill="rgb(100%, 100%, 100%)" d="M 167.636719 197.828125 C 144.710938 174.925781 107.546875 174.925781 84.625 197.828125 L 84.625 101.171875 C 107.546875 78.269531 144.710938 78.269531 167.636719 101.171875 L 167.636719 197.828125 " fill-opacity="1" fill-rule="nonzero"/><g clip-path="url(#id2)"><path fill="rgb(12.548828%, 18.429565%, 35.289001%)" d="M 167.636719 197.828125 L 168.785156 196.679688 C 157.011719 184.917969 141.566406 179.03125 126.128906 179.03125 C 110.695312 179.03125 95.25 184.917969 83.472656 196.679688 L 84.625 197.828125 L 86.238281 197.828125 L 86.238281 101.171875 L 84.625 101.171875 L 85.773438 102.320312 C 96.914062 91.179688 111.523438 85.613281 126.128906 85.613281 C 140.738281 85.613281 155.347656 91.179688 166.488281 102.320312 L 167.636719 101.171875 L 166.011719 101.171875 L 166.011719 197.828125 L 167.636719 197.828125 L 168.785156 196.679688 L 167.636719 197.828125 L 169.261719 197.828125 L 169.261719 101.171875 C 169.261719 100.746094 169.097656 100.335938 168.785156 100.023438 C 157.011719 88.261719 141.566406 82.375 126.128906 82.375 C 110.695312 82.375 95.25 88.261719 83.472656 100.023438 C 83.171875 100.324219 82.996094 100.746094 82.996094 101.171875 L 82.996094 197.828125 C 82.996094 198.492188 83.394531 199.074219 84 199.328125 C 84.605469 199.582031 85.304688 199.445312 85.773438 198.976562 C 96.914062 187.835938 111.523438 182.28125 126.128906 182.269531 C 140.738281 182.28125 155.347656 187.835938 166.488281 198.976562 C 166.953125 199.445312 167.65625 199.582031 168.261719 199.328125 C 168.863281 199.074219 169.261719 198.492188 169.261719 197.828125 L 167.636719 197.828125 " fill-opacity="1" fill-rule="nonzero"/></g><path fill="rgb(100%, 100%, 100%)" d="M 250.660156 197.828125 C 227.734375 174.925781 190.5625 174.925781 167.636719 197.828125 L 167.636719 101.171875 C 190.5625 78.269531 227.734375 78.269531 250.660156 101.171875 L 250.660156 197.828125 " fill-opacity="1" fill-rule="nonzero"/><path fill="rgb(12.548828%, 18.429565%, 35.289001%)" d="M 250.660156 197.828125 L 251.808594 196.679688 C 240.035156 184.917969 224.578125 179.03125 209.152344 179.03125 C 193.71875 179.03125 178.261719 184.917969 166.488281 196.679688 L 167.636719 197.828125 L 169.261719 197.828125 L 169.261719 101.171875 L 167.636719 101.171875 L 168.785156 102.320312 C 179.9375 91.179688 194.535156 85.613281 209.152344 85.613281 C 223.761719 85.613281 238.359375 91.179688 249.511719 102.320312 L 250.660156 101.171875 L 249.035156 101.171875 L 249.035156 197.828125 L 250.660156 197.828125 L 251.808594 196.679688 L 250.660156 197.828125 L 252.277344 197.828125 L 252.277344 101.171875 C 252.277344 100.746094 252.109375 100.335938 251.808594 100.023438 C 240.035156 88.261719 224.578125 82.375 209.152344 82.375 C 193.71875 82.375 178.261719 88.261719 166.488281 100.023438 C 166.1875 100.324219 166.011719 100.746094 166.011719 101.171875 L 166.011719 197.828125 C 166.011719 198.492188 166.410156 199.074219 167.011719 199.328125 C 167.628906 199.582031 168.320312 199.445312 168.785156 198.976562 C 179.9375 187.835938 194.535156 182.28125 209.152344 182.269531 C 223.761719 182.28125 238.359375 187.835938 249.511719 198.976562 C 249.96875 199.445312 250.667969 199.582031 251.28125 199.328125 C 251.886719 199.074219 252.277344 198.492188 252.277344 197.828125 L 250.660156 197.828125 " fill-opacity="1" fill-rule="nonzero"/><path fill="rgb(12.548828%, 18.429565%, 35.289001%)" d="M 180.734375 107.183594 C 180.96875 107.039062 193.066406 100.21875 209.464844 100.238281 C 218.453125 100.238281 228.71875 102.253906 239.1875 108.480469 C 239.976562 108.945312 241 108.695312 241.464844 107.90625 C 241.933594 107.117188 241.679688 106.097656 240.890625 105.628906 C 229.859375 99.0625 218.941406 96.910156 209.464844 96.921875 C 191.867188 96.929688 179.214844 104.238281 179.070312 104.316406 C 178.28125 104.773438 178.007812 105.785156 178.464844 106.582031 C 178.925781 107.371094 179.9375 107.644531 180.734375 107.183594 " fill-opacity="1" fill-rule="nonzero"/><path fill="rgb(12.548828%, 18.429565%, 35.289001%)" d="M 180.734375 120.253906 L 180.734375 120.242188 C 180.96875 120.105469 193.066406 113.285156 209.464844 113.296875 C 218.445312 113.304688 228.71875 115.308594 239.1875 121.546875 C 239.976562 122.015625 241 121.75 241.464844 120.964844 C 241.933594 120.183594 241.679688 119.164062 240.890625 118.695312 C 229.859375 112.117188 218.941406 109.976562 209.464844 109.976562 C 191.867188 109.988281 179.214844 117.292969 179.070312 117.371094 C 178.28125 117.828125 178.007812 118.851562 178.464844 119.640625 C 178.925781 120.4375 179.9375 120.710938 180.734375 120.253906 " fill-opacity="1" fill-rule="nonzero"/><path fill="rgb(12.548828%, 18.429565%, 35.289001%)" d="M 180.734375 133.308594 C 180.96875 133.164062 193.066406 126.351562 209.464844 126.351562 C 218.453125 126.363281 228.71875 128.378906 239.1875 134.605469 C 239.976562 135.070312 241 134.816406 241.464844 134.03125 C 241.933594 133.242188 241.679688 132.21875 240.890625 131.753906 C 229.859375 125.1875 218.941406 123.035156 209.464844 123.035156 C 191.867188 123.054688 179.214844 130.363281 179.070312 130.441406 C 178.28125 130.898438 178.007812 131.910156 178.464844 132.707031 C 178.925781 133.496094 179.9375 133.765625 180.734375 133.308594 " fill-opacity="1" fill-rule="nonzero"/><path fill="rgb(12.548828%, 18.429565%, 35.289001%)" d="M 180.734375 146.367188 C 180.96875 146.230469 193.066406 139.410156 209.464844 139.421875 C 218.445312 139.421875 228.71875 141.433594 239.1875 147.671875 C 239.976562 148.136719 241 147.875 241.464844 147.085938 C 241.933594 146.300781 241.679688 145.289062 240.890625 144.820312 C 229.859375 138.242188 218.941406 136.101562 209.464844 136.101562 C 191.867188 136.113281 179.214844 143.429688 179.070312 143.496094 C 178.28125 143.953125 178.007812 144.976562 178.464844 145.765625 C 178.925781 146.5625 179.9375 146.835938 180.734375 146.367188 " fill-opacity="1" fill-rule="nonzero"/><path fill="rgb(12.548828%, 18.429565%, 35.289001%)" d="M 180.734375 159.433594 C 180.96875 159.289062 193.066406 152.46875 209.464844 152.488281 C 218.445312 152.488281 228.71875 154.5 239.1875 160.730469 C 239.976562 161.195312 241 160.941406 241.464844 160.15625 C 241.933594 159.367188 241.679688 158.34375 240.890625 157.878906 C 229.859375 151.308594 218.941406 149.160156 209.464844 149.160156 C 191.867188 149.179688 179.214844 156.488281 179.070312 156.566406 C 178.28125 157.023438 178.007812 158.035156 178.464844 158.820312 C 178.925781 159.621094 179.9375 159.890625 180.734375 159.433594 " fill-opacity="1" fill-rule="nonzero"/><path fill="rgb(12.548828%, 18.429565%, 35.289001%)" d="M 180.734375 172.492188 C 180.96875 172.347656 193.066406 165.535156 209.464844 165.546875 C 218.453125 165.546875 228.71875 167.558594 239.1875 173.785156 C 239.976562 174.261719 241 174 241.464844 173.210938 C 241.933594 172.425781 241.679688 171.402344 240.890625 170.9375 C 229.859375 164.367188 218.941406 162.226562 209.464844 162.226562 C 191.867188 162.238281 179.214844 169.542969 179.070312 169.621094 C 178.28125 170.078125 178.007812 171.089844 178.464844 171.890625 C 178.925781 172.6875 179.9375 172.949219 180.734375 172.503906 " fill-opacity="1" fill-rule="nonzero"/><path fill="rgb(12.548828%, 18.429565%, 35.289001%)" d="M 97.207031 105.015625 L 97.207031 105.007812 C 97.449219 104.859375 109.535156 98.050781 125.945312 98.058594 C 134.925781 98.058594 145.1875 100.074219 155.667969 106.300781 C 156.457031 106.765625 157.480469 106.515625 157.945312 105.726562 C 158.414062 104.9375 158.160156 103.917969 157.371094 103.449219 C 146.339844 96.882812 135.421875 94.730469 125.945312 94.742188 C 108.335938 94.75 95.695312 102.058594 95.550781 102.136719 C 94.75 102.59375 94.480469 103.605469 94.9375 104.402344 C 95.394531 105.199219 96.417969 105.464844 97.207031 105.015625 " fill-opacity="1" fill-rule="nonzero"/><path fill="rgb(12.548828%, 18.429565%, 35.289001%)" d="M 97.207031 118.074219 C 97.449219 117.925781 109.535156 111.105469 125.945312 111.117188 C 134.925781 111.125 145.1875 113.128906 155.667969 119.367188 C 156.457031 119.835938 157.480469 119.570312 157.945312 118.792969 C 158.414062 118.003906 158.160156 116.984375 157.371094 116.515625 C 146.339844 109.949219 135.421875 107.796875 125.945312 107.796875 C 108.335938 107.808594 95.695312 115.125 95.550781 115.191406 C 94.75 115.660156 94.480469 116.671875 94.9375 117.46875 C 95.394531 118.257812 96.417969 118.53125 97.207031 118.074219 " fill-opacity="1" fill-rule="nonzero"/><path fill="rgb(12.548828%, 18.429565%, 35.289001%)" d="M 97.207031 131.128906 C 97.449219 130.996094 109.535156 124.175781 125.945312 124.183594 C 134.925781 124.183594 145.1875 126.199219 155.667969 132.433594 C 156.457031 132.902344 157.480469 132.640625 157.945312 131.851562 C 158.414062 131.0625 158.160156 130.050781 157.371094 129.582031 C 146.339844 123.007812 135.421875 120.867188 125.945312 120.867188 C 108.335938 120.875 95.695312 128.183594 95.550781 128.261719 C 94.75 128.71875 94.480469 129.730469 94.9375 130.527344 C 95.394531 131.316406 96.417969 131.589844 97.207031 131.128906 " fill-opacity="1" fill-rule="nonzero"/><path fill="rgb(12.548828%, 18.429565%, 35.289001%)" d="M 97.207031 144.199219 C 97.449219 144.050781 109.535156 137.230469 125.945312 137.242188 C 134.925781 137.242188 145.1875 139.253906 155.667969 145.492188 C 156.457031 145.960938 157.480469 145.707031 157.945312 144.917969 C 158.414062 144.128906 158.160156 143.109375 157.371094 142.640625 C 146.339844 136.074219 135.421875 133.921875 125.945312 133.921875 C 108.335938 133.933594 95.695312 141.25 95.550781 141.316406 C 94.75 141.785156 94.480469 142.796875 94.9375 143.585938 C 95.394531 144.382812 96.417969 144.65625 97.207031 144.199219 " fill-opacity="1" fill-rule="nonzero"/><path fill="rgb(12.548828%, 18.429565%, 35.289001%)" d="M 97.207031 157.253906 C 97.449219 157.109375 109.535156 150.289062 125.945312 150.308594 C 134.925781 150.308594 145.1875 152.324219 155.667969 158.550781 C 156.457031 159.015625 157.480469 158.761719 157.945312 157.976562 C 158.414062 157.1875 158.160156 156.164062 157.371094 155.699219 C 146.339844 149.132812 135.421875 146.980469 125.945312 146.992188 C 108.335938 147 95.695312 154.308594 95.550781 154.386719 C 94.75 154.84375 94.480469 155.855469 94.9375 156.652344 C 95.394531 157.441406 96.417969 157.710938 97.207031 157.253906 " fill-opacity="1" fill-rule="nonzero"/><path fill="rgb(12.548828%, 18.429565%, 35.289001%)" d="M 97.207031 170.324219 L 97.207031 170.3125 C 97.449219 170.175781 109.535156 163.355469 125.945312 163.367188 C 134.925781 163.367188 145.1875 165.378906 155.667969 171.617188 C 156.457031 172.082031 157.480469 171.820312 157.945312 171.042969 C 158.414062 170.253906 158.160156 169.234375 157.371094 168.765625 C 146.339844 162.199219 135.421875 160.046875 125.945312 160.046875 C 108.335938 160.058594 95.695312 167.375 95.550781 167.441406 C 94.75 167.898438 94.480469 168.921875 94.9375 169.710938 C 95.394531 170.507812 96.417969 170.78125 97.207031 170.324219 " fill-opacity="1" fill-rule="nonzero"/><path fill="rgb(100%, 100%, 100%)" d="M 283.011719 188.5 L 278.84375 188.5 C 275.628906 188.5 272.902344 190.648438 272.007812 193.566406 C 271.898438 193.519531 271.800781 193.46875 271.695312 193.421875 L 271.695312 192.078125 C 271.695312 188.148438 268.480469 184.9375 264.546875 184.9375 L 260.378906 184.9375 C 256.855469 184.9375 253.914062 187.515625 253.347656 190.882812 L 253.230469 190.882812 L 253.230469 187.914062 C 253.230469 183.984375 250.015625 180.773438 246.09375 180.773438 L 241.925781 180.773438 C 237.988281 180.773438 234.777344 183.984375 234.777344 187.914062 L 234.183594 155.785156 C 234.183594 151.855469 230.96875 146.261719 227.035156 146.261719 L 222.867188 146.261719 C 218.941406 146.261719 215.726562 151.855469 215.726562 155.785156 L 216.320312 211.675781 C 208.871094 202.429688 207.089844 201.886719 207.089844 201.886719 C 191.011719 189.996094 186.246094 204.269531 192.199219 209.621094 C 198.15625 214.984375 216.320312 251.898438 216.320312 251.898438 C 223.167969 273.273438 236.859375 282.789062 246.949219 282.5 C 251.050781 282.5 255.160156 282.546875 259.257812 282.5 C 267.964844 282.402344 274.121094 277.351562 279.273438 270.441406 C 289.632812 256.589844 290.152344 237.898438 290.152344 221.484375 L 290.152344 195.640625 C 290.152344 191.71875 286.9375 188.5 283.011719 188.5 " fill-opacity="1" fill-rule="nonzero"/><g clip-path="url(#id3)"><path fill="rgb(12.548828%, 18.429565%, 35.289001%)" d="M 283.011719 188.5 L 283.011719 186.777344 L 278.84375 186.777344 C 276.847656 186.777344 274.996094 187.449219 273.515625 188.554688 C 272.035156 189.675781 270.917969 191.242188 270.351562 193.0625 L 272.007812 193.566406 L 272.71875 191.992188 C 272.628906 191.953125 272.523438 191.902344 272.386719 191.84375 L 271.695312 193.421875 L 273.429688 193.421875 L 273.429688 192.078125 C 273.417969 187.183594 269.445312 183.214844 264.546875 183.207031 L 260.378906 183.207031 C 258.1875 183.207031 256.171875 184.011719 254.632812 185.335938 C 253.085938 186.660156 251.992188 188.5 251.644531 190.589844 L 253.347656 190.882812 L 253.347656 189.160156 L 253.230469 189.160156 L 253.230469 190.882812 L 254.964844 190.882812 L 254.964844 187.914062 C 254.953125 183.019531 250.980469 179.050781 246.09375 179.039062 L 241.925781 179.039062 C 237.027344 179.050781 233.050781 183.019531 233.050781 187.914062 L 234.777344 187.914062 L 236.507812 187.875 L 235.914062 155.746094 L 234.183594 155.785156 L 235.914062 155.785156 C 235.90625 154.570312 235.671875 153.316406 235.253906 152.089844 C 234.628906 150.25 233.625 148.46875 232.273438 147.046875 C 231.589844 146.339844 230.820312 145.726562 229.945312 145.269531 C 229.078125 144.820312 228.085938 144.539062 227.035156 144.539062 L 222.867188 144.539062 C 221.464844 144.539062 220.1875 145.042969 219.117188 145.773438 C 217.507812 146.894531 216.28125 148.519531 215.394531 150.277344 C 214.527344 152.050781 214.003906 153.957031 213.992188 155.785156 L 213.992188 155.804688 L 214.585938 211.695312 L 216.320312 211.675781 L 217.664062 210.59375 C 213.914062 205.933594 211.570312 203.433594 210.097656 202.050781 C 209.359375 201.371094 208.839844 200.960938 208.460938 200.699219 C 208.082031 200.4375 207.839844 200.320312 207.59375 200.234375 L 207.089844 201.886719 L 208.121094 200.503906 C 205.773438 198.773438 203.632812 197.539062 201.652344 196.738281 C 199.6875 195.933594 197.886719 195.550781 196.238281 195.550781 C 194.933594 195.550781 193.738281 195.796875 192.695312 196.253906 C 191.117188 196.945312 189.910156 198.109375 189.140625 199.464844 C 188.371094 200.816406 188 202.355469 188 203.890625 C 188.011719 206.441406 188.992188 209.058594 191.046875 210.90625 C 191.605469 211.402344 192.507812 212.5 193.53125 213.972656 C 195.34375 216.539062 197.59375 220.277344 199.929688 224.402344 C 203.445312 230.589844 207.15625 237.664062 209.980469 243.179688 C 211.402344 245.945312 212.601562 248.308594 213.4375 249.992188 C 213.867188 250.828125 214.1875 251.5 214.421875 251.957031 C 214.644531 252.414062 214.761719 252.65625 214.761719 252.65625 L 216.320312 251.898438 L 214.675781 252.421875 C 218.121094 263.195312 223.292969 271.113281 228.992188 276.367188 C 234.699219 281.613281 240.910156 284.222656 246.492188 284.230469 C 246.65625 284.230469 246.832031 284.230469 246.996094 284.222656 L 246.949219 282.5 L 246.949219 284.222656 C 249.726562 284.222656 252.511719 284.25 255.304688 284.25 C 256.628906 284.25 257.953125 284.238281 259.277344 284.230469 C 263.960938 284.183594 268.042969 282.761719 271.550781 280.464844 C 275.054688 278.167969 278.007812 275.027344 280.65625 271.484375 C 286.050781 264.253906 288.84375 255.839844 290.304688 247.207031 C 291.757812 238.578125 291.882812 229.703125 291.882812 221.484375 L 291.882812 195.640625 C 291.875 190.753906 287.902344 186.785156 283.011719 186.777344 L 283.011719 190.230469 C 284.5 190.230469 285.847656 190.832031 286.828125 191.816406 C 287.824219 192.808594 288.425781 194.152344 288.425781 195.640625 L 288.425781 221.484375 C 288.425781 229.664062 288.289062 238.355469 286.898438 246.632812 C 285.496094 254.925781 282.847656 262.777344 277.890625 269.410156 C 275.386719 272.769531 272.6875 275.601562 269.648438 277.585938 C 266.613281 279.558594 263.261719 280.71875 259.238281 280.777344 C 257.925781 280.796875 256.621094 280.796875 255.304688 280.796875 C 252.53125 280.796875 249.746094 280.777344 246.949219 280.777344 L 246.492188 280.777344 C 242.023438 280.785156 236.527344 278.625 231.339844 273.828125 C 226.148438 269.042969 221.257812 261.65625 217.964844 251.371094 L 217.871094 251.140625 C 217.859375 251.128906 213.320312 241.886719 208.023438 231.953125 C 205.363281 226.988281 202.53125 221.851562 199.960938 217.601562 C 198.683594 215.46875 197.464844 213.550781 196.367188 211.984375 C 195.257812 210.410156 194.292969 209.195312 193.355469 208.335938 C 192.121094 207.238281 191.457031 205.542969 191.46875 203.890625 C 191.457031 202.566406 191.886719 201.320312 192.65625 200.457031 C 193.035156 200.027344 193.503906 199.679688 194.078125 199.414062 C 194.660156 199.171875 195.363281 199.007812 196.238281 199.007812 C 197.339844 199.007812 198.714844 199.269531 200.347656 199.929688 C 201.996094 200.601562 203.902344 201.683594 206.054688 203.277344 C 206.210938 203.394531 206.398438 203.480469 206.582031 203.539062 L 206.921875 202.410156 L 206.386719 203.460938 C 206.398438 203.472656 206.464844 203.5 206.582031 203.539062 L 206.921875 202.410156 L 206.386719 203.460938 L 206.398438 203.441406 L 206.386719 203.460938 L 206.398438 203.441406 L 206.386719 203.460938 C 206.417969 203.480469 207.039062 203.863281 208.382812 205.214844 C 209.738281 206.566406 211.839844 208.882812 214.976562 212.765625 C 215.433594 213.328125 216.214844 213.550781 216.90625 213.308594 C 217.597656 213.054688 218.054688 212.394531 218.042969 211.664062 L 217.449219 155.765625 L 215.726562 155.785156 L 217.449219 155.785156 C 217.449219 155.035156 217.617188 154.113281 217.929688 153.1875 C 218.386719 151.796875 219.203125 150.394531 220.128906 149.433594 C 220.597656 148.957031 221.082031 148.578125 221.539062 148.34375 C 222.007812 148.097656 222.4375 147.992188 222.867188 147.992188 L 227.035156 147.992188 C 227.597656 147.992188 228.191406 148.1875 228.835938 148.625 C 229.789062 149.265625 230.742188 150.464844 231.40625 151.816406 C 232.078125 153.160156 232.457031 154.65625 232.457031 155.785156 L 232.457031 155.816406 L 233.050781 187.945312 C 233.0625 188.886719 233.839844 189.644531 234.796875 189.636719 C 235.738281 189.625 236.507812 188.859375 236.507812 187.914062 C 236.507812 186.425781 237.113281 185.082031 238.097656 184.089844 C 239.089844 183.097656 240.433594 182.496094 241.925781 182.496094 L 246.09375 182.496094 C 247.582031 182.496094 248.925781 183.097656 249.910156 184.089844 C 250.902344 185.082031 251.507812 186.425781 251.507812 187.914062 L 251.507812 190.882812 C 251.507812 191.339844 251.691406 191.785156 252.011719 192.109375 C 252.335938 192.429688 252.78125 192.613281 253.230469 192.613281 L 253.347656 192.613281 C 254.195312 192.613281 254.90625 192 255.042969 191.171875 C 255.265625 189.898438 255.929688 188.769531 256.882812 187.964844 C 257.828125 187.144531 259.042969 186.660156 260.378906 186.660156 L 264.546875 186.660156 C 266.039062 186.660156 267.382812 187.261719 268.375 188.253906 C 269.359375 189.238281 269.960938 190.589844 269.960938 192.078125 L 269.960938 193.421875 C 269.960938 194.113281 270.371094 194.734375 271.003906 195.007812 C 271.082031 195.035156 271.167969 195.085938 271.285156 195.132812 C 271.746094 195.347656 272.261719 195.347656 272.71875 195.144531 C 273.175781 194.9375 273.515625 194.550781 273.664062 194.074219 C 273.992188 192.964844 274.683594 192 275.601562 191.320312 C 276.507812 190.636719 277.625 190.230469 278.84375 190.230469 L 283.011719 190.230469 L 283.011719 188.5 " fill-opacity="1" fill-rule="nonzero"/></g><path fill="rgb(100%, 100%, 100%)" d="M 234.777344 183.886719 L 235.078125 213.191406 " fill-opacity="1" fill-rule="nonzero"/><path fill="rgb(12.548828%, 18.429565%, 35.289001%)" d="M 233.050781 183.894531 L 233.34375 213.210938 C 233.355469 214.164062 234.144531 214.925781 235.097656 214.914062 C 236.050781 214.914062 236.8125 214.125 236.800781 213.171875 L 236.507812 183.867188 C 236.5 182.914062 235.710938 182.144531 234.757812 182.152344 C 233.800781 182.164062 233.042969 182.953125 233.050781 183.894531 " fill-opacity="1" fill-rule="nonzero"/><path fill="rgb(100%, 100%, 100%)" d="M 253.230469 188.050781 L 253.53125 214.378906 " fill-opacity="1" fill-rule="nonzero"/><path fill="rgb(12.548828%, 18.429565%, 35.289001%)" d="M 251.507812 188.070312 L 251.808594 214.398438 C 251.820312 215.351562 252.597656 216.121094 253.550781 216.113281 C 254.507812 216.101562 255.265625 215.3125 255.265625 214.359375 L 254.964844 188.03125 C 254.953125 187.078125 254.175781 186.308594 253.222656 186.320312 C 252.257812 186.328125 251.496094 187.117188 251.507812 188.070312 " fill-opacity="1" fill-rule="nonzero"/><path fill="rgb(100%, 100%, 100%)" d="M 271.695312 192.214844 L 271.996094 213.785156 " fill-opacity="1" fill-rule="nonzero"/><path fill="rgb(12.548828%, 18.429565%, 35.289001%)" d="M 269.960938 192.234375 L 270.265625 213.816406 C 270.273438 214.769531 271.0625 215.527344 272.015625 215.519531 C 272.972656 215.5 273.730469 214.71875 273.722656 213.765625 L 273.429688 192.1875 C 273.410156 191.230469 272.621094 190.472656 271.667969 190.484375 C 270.710938 190.503906 269.953125 191.28125 269.960938 192.234375 " fill-opacity="1" fill-rule="nonzero"/><g fill="rgb(100%, 100%, 100%)" fill-opacity="1"><g transform="translate(122.091325, 327.799958)"><g><path d="M 9.6875 -27.015625 L 16.625 -7.421875 L 23.53125 -27.015625 L 30.84375 -27.015625 L 30.84375 0 L 25.25 0 L 25.25 -7.390625 L 25.8125 -20.125 L 18.515625 0 L 14.703125 0 L 7.421875 -20.109375 L 7.984375 -7.390625 L 7.984375 0 L 2.40625 0 L 2.40625 -27.015625 Z M 9.6875 -27.015625 "/></g></g></g><g fill="rgb(100%, 100%, 100%)" fill-opacity="1"><g transform="translate(155.371588, 327.799958)"><g><path d="M 7.984375 -4.46875 L 19.796875 -4.46875 L 19.796875 0 L 2.40625 0 L 2.40625 -27.015625 L 7.984375 -27.015625 Z M 7.984375 -4.46875 "/></g></g></g><g fill="rgb(100%, 100%, 100%)" fill-opacity="1"><g transform="translate(175.944505, 327.799958)"><g><path d="M 13.6875 0 C 13.445312 -0.476562 13.269531 -1.078125 13.15625 -1.796875 C 11.851562 -0.347656 10.164062 0.375 8.09375 0.375 C 6.125 0.375 4.492188 -0.191406 3.203125 -1.328125 C 1.910156 -2.472656 1.265625 -3.910156 1.265625 -5.640625 C 1.265625 -7.765625 2.050781 -9.394531 3.625 -10.53125 C 5.207031 -11.675781 7.488281 -12.253906 10.46875 -12.265625 L 12.9375 -12.265625 L 12.9375 -13.421875 C 12.9375 -14.347656 12.695312 -15.085938 12.21875 -15.640625 C 11.738281 -16.203125 10.988281 -16.484375 9.96875 -16.484375 C 9.0625 -16.484375 8.347656 -16.265625 7.828125 -15.828125 C 7.316406 -15.390625 7.0625 -14.796875 7.0625 -14.046875 L 1.703125 -14.046875 C 1.703125 -15.210938 2.0625 -16.289062 2.78125 -17.28125 C 3.5 -18.269531 4.515625 -19.046875 5.828125 -19.609375 C 7.140625 -20.171875 8.613281 -20.453125 10.25 -20.453125 C 12.71875 -20.453125 14.675781 -19.828125 16.125 -18.578125 C 17.582031 -17.335938 18.3125 -15.59375 18.3125 -13.34375 L 18.3125 -4.640625 C 18.320312 -2.734375 18.585938 -1.289062 19.109375 -0.3125 L 19.109375 0 Z M 9.265625 -3.734375 C 10.054688 -3.734375 10.785156 -3.90625 11.453125 -4.25 C 12.117188 -4.601562 12.613281 -5.078125 12.9375 -5.671875 L 12.9375 -9.125 L 10.921875 -9.125 C 8.242188 -9.125 6.816406 -8.195312 6.640625 -6.34375 L 6.625 -6.03125 C 6.625 -5.363281 6.859375 -4.8125 7.328125 -4.375 C 7.796875 -3.945312 8.441406 -3.734375 9.265625 -3.734375 Z M 9.265625 -3.734375 "/></g></g></g><g fill="rgb(100%, 100%, 100%)" fill-opacity="1"><g transform="translate(196.313362, 327.799958)"><g><path d="M 13.6875 0 C 13.445312 -0.476562 13.269531 -1.078125 13.15625 -1.796875 C 11.851562 -0.347656 10.164062 0.375 8.09375 0.375 C 6.125 0.375 4.492188 -0.191406 3.203125 -1.328125 C 1.910156 -2.472656 1.265625 -3.910156 1.265625 -5.640625 C 1.265625 -7.765625 2.050781 -9.394531 3.625 -10.53125 C 5.207031 -11.675781 7.488281 -12.253906 10.46875 -12.265625 L 12.9375 -12.265625 L 12.9375 -13.421875 C 12.9375 -14.347656 12.695312 -15.085938 12.21875 -15.640625 C 11.738281 -16.203125 10.988281 -16.484375 9.96875 -16.484375 C 9.0625 -16.484375 8.347656 -16.265625 7.828125 -15.828125 C 7.316406 -15.390625 7.0625 -14.796875 7.0625 -14.046875 L 1.703125 -14.046875 C 1.703125 -15.210938 2.0625 -16.289062 2.78125 -17.28125 C 3.5 -18.269531 4.515625 -19.046875 5.828125 -19.609375 C 7.140625 -20.171875 8.613281 -20.453125 10.25 -20.453125 C 12.71875 -20.453125 14.675781 -19.828125 16.125 -18.578125 C 17.582031 -17.335938 18.3125 -15.59375 18.3125 -13.34375 L 18.3125 -4.640625 C 18.320312 -2.734375 18.585938 -1.289062 19.109375 -0.3125 L 19.109375 0 Z M 9.265625 -3.734375 C 10.054688 -3.734375 10.785156 -3.90625 11.453125 -4.25 C 12.117188 -4.601562 12.613281 -5.078125 12.9375 -5.671875 L 12.9375 -9.125 L 10.921875 -9.125 C 8.242188 -9.125 6.816406 -8.195312 6.640625 -6.34375 L 6.625 -6.03125 C 6.625 -5.363281 6.859375 -4.8125 7.328125 -4.375 C 7.796875 -3.945312 8.441406 -3.734375 9.265625 -3.734375 Z M 9.265625 -3.734375 "/></g></g></g><g fill="rgb(100%, 100%, 100%)" fill-opacity="1"><g transform="translate(216.682219, 327.799958)"><g><path d="M 16.421875 -7.09375 C 16.421875 -8.144531 16.046875 -8.953125 15.296875 -9.515625 C 14.554688 -10.078125 13.222656 -10.671875 11.296875 -11.296875 C 9.367188 -11.921875 7.84375 -12.535156 6.71875 -13.140625 C 3.644531 -14.796875 2.109375 -17.023438 2.109375 -19.828125 C 2.109375 -21.296875 2.519531 -22.597656 3.34375 -23.734375 C 4.164062 -24.878906 5.347656 -25.773438 6.890625 -26.421875 C 8.429688 -27.066406 10.160156 -27.390625 12.078125 -27.390625 C 14.003906 -27.390625 15.722656 -27.039062 17.234375 -26.34375 C 18.742188 -25.644531 19.914062 -24.65625 20.75 -23.375 C 21.582031 -22.101562 22 -20.65625 22 -19.03125 L 16.4375 -19.03125 C 16.4375 -20.269531 16.046875 -21.234375 15.265625 -21.921875 C 14.492188 -22.609375 13.398438 -22.953125 11.984375 -22.953125 C 10.628906 -22.953125 9.570312 -22.664062 8.8125 -22.09375 C 8.0625 -21.519531 7.6875 -20.757812 7.6875 -19.8125 C 7.6875 -18.9375 8.125 -18.203125 9 -17.609375 C 9.882812 -17.015625 11.191406 -16.457031 12.921875 -15.9375 C 16.085938 -14.988281 18.390625 -13.804688 19.828125 -12.390625 C 21.273438 -10.984375 22 -9.226562 22 -7.125 C 22 -4.789062 21.113281 -2.957031 19.34375 -1.625 C 17.582031 -0.289062 15.203125 0.375 12.203125 0.375 C 10.128906 0.375 8.238281 -0.00390625 6.53125 -0.765625 C 4.820312 -1.523438 3.519531 -2.566406 2.625 -3.890625 C 1.726562 -5.210938 1.28125 -6.75 1.28125 -8.5 L 6.859375 -8.5 C 6.859375 -5.519531 8.640625 -4.03125 12.203125 -4.03125 C 13.523438 -4.03125 14.554688 -4.296875 15.296875 -4.828125 C 16.046875 -5.367188 16.421875 -6.125 16.421875 -7.09375 Z M 16.421875 -7.09375 "/></g></g></g><g fill="rgb(100%, 100%, 100%)" fill-opacity="1"><g transform="translate(60.435943, 359.849976)"><g><path d="M 4.890625 -17.0625 L 10.46875 -3.140625 L 16.046875 -17.0625 L 18.96875 -17.0625 L 18.96875 0 L 16.71875 0 L 16.71875 -6.640625 L 16.921875 -13.8125 L 11.328125 0 L 9.59375 0 L 4.015625 -13.78125 L 4.234375 -6.640625 L 4.234375 0 L 1.984375 0 L 1.984375 -17.0625 Z M 4.890625 -17.0625 "/></g></g></g><g fill="rgb(100%, 100%, 100%)" fill-opacity="1"><g transform="translate(81.378836, 359.849976)"><g><path d="M 4 0 L 1.828125 0 L 1.828125 -12.6875 L 4 -12.6875 Z M 1.65625 -16.046875 C 1.65625 -16.398438 1.757812 -16.695312 1.96875 -16.9375 C 2.1875 -17.175781 2.503906 -17.296875 2.921875 -17.296875 C 3.347656 -17.296875 3.671875 -17.175781 3.890625 -16.9375 C 4.109375 -16.695312 4.21875 -16.398438 4.21875 -16.046875 C 4.21875 -15.691406 4.109375 -15.394531 3.890625 -15.15625 C 3.671875 -14.925781 3.347656 -14.8125 2.921875 -14.8125 C 2.503906 -14.8125 2.1875 -14.925781 1.96875 -15.15625 C 1.757812 -15.394531 1.65625 -15.691406 1.65625 -16.046875 Z M 1.65625 -16.046875 "/></g></g></g><g fill="rgb(100%, 100%, 100%)" fill-opacity="1"><g transform="translate(87.200216, 359.849976)"><g><path d="M 6.734375 -1.53125 C 7.503906 -1.53125 8.175781 -1.765625 8.75 -2.234375 C 9.332031 -2.703125 9.65625 -3.289062 9.71875 -4 L 11.765625 -4 C 11.722656 -3.269531 11.472656 -2.578125 11.015625 -1.921875 C 10.554688 -1.265625 9.941406 -0.738281 9.171875 -0.34375 C 8.398438 0.0390625 7.585938 0.234375 6.734375 0.234375 C 5.003906 0.234375 3.628906 -0.335938 2.609375 -1.484375 C 1.585938 -2.640625 1.078125 -4.21875 1.078125 -6.21875 L 1.078125 -6.59375 C 1.078125 -7.820312 1.300781 -8.914062 1.75 -9.875 C 2.207031 -10.84375 2.859375 -11.59375 3.703125 -12.125 C 4.554688 -12.65625 5.5625 -12.921875 6.71875 -12.921875 C 8.132812 -12.921875 9.3125 -12.492188 10.25 -11.640625 C 11.195312 -10.785156 11.703125 -9.679688 11.765625 -8.328125 L 9.71875 -8.328125 C 9.65625 -9.140625 9.34375 -9.8125 8.78125 -10.34375 C 8.226562 -10.875 7.539062 -11.140625 6.71875 -11.140625 C 5.613281 -11.140625 4.757812 -10.738281 4.15625 -9.9375 C 3.550781 -9.144531 3.25 -8 3.25 -6.5 L 3.25 -6.09375 C 3.25 -4.632812 3.546875 -3.507812 4.140625 -2.71875 C 4.742188 -1.925781 5.609375 -1.53125 6.734375 -1.53125 Z M 6.734375 -1.53125 "/></g></g></g><g fill="rgb(100%, 100%, 100%)" fill-opacity="1"><g transform="translate(99.756581, 359.849976)"><g><path d="M 7.765625 -10.734375 C 7.441406 -10.785156 7.085938 -10.8125 6.703125 -10.8125 C 5.285156 -10.8125 4.320312 -10.207031 3.8125 -9 L 3.8125 0 L 1.640625 0 L 1.640625 -12.6875 L 3.75 -12.6875 L 3.78125 -11.21875 C 4.5 -12.351562 5.507812 -12.921875 6.8125 -12.921875 C 7.226562 -12.921875 7.546875 -12.863281 7.765625 -12.75 Z M 7.765625 -10.734375 "/></g></g></g><g fill="rgb(100%, 100%, 100%)" fill-opacity="1"><g transform="translate(107.873715, 359.849976)"><g><path d="M 1.0625 -6.453125 C 1.0625 -7.703125 1.304688 -8.820312 1.796875 -9.8125 C 2.285156 -10.800781 2.960938 -11.566406 3.828125 -12.109375 C 4.703125 -12.648438 5.703125 -12.921875 6.828125 -12.921875 C 8.546875 -12.921875 9.9375 -12.320312 11 -11.125 C 12.070312 -9.925781 12.609375 -8.335938 12.609375 -6.359375 L 12.609375 -6.203125 C 12.609375 -4.960938 12.367188 -3.851562 11.890625 -2.875 C 11.421875 -1.894531 10.75 -1.128906 9.875 -0.578125 C 9 -0.0351562 7.988281 0.234375 6.84375 0.234375 C 5.125 0.234375 3.726562 -0.363281 2.65625 -1.5625 C 1.59375 -2.757812 1.0625 -4.34375 1.0625 -6.3125 Z M 3.25 -6.203125 C 3.25 -4.796875 3.570312 -3.664062 4.21875 -2.8125 C 4.875 -1.957031 5.75 -1.53125 6.84375 -1.53125 C 7.945312 -1.53125 8.820312 -1.960938 9.46875 -2.828125 C 10.113281 -3.691406 10.4375 -4.898438 10.4375 -6.453125 C 10.4375 -7.847656 10.109375 -8.976562 9.453125 -9.84375 C 8.796875 -10.707031 7.921875 -11.140625 6.828125 -11.140625 C 5.753906 -11.140625 4.890625 -10.710938 4.234375 -9.859375 C 3.578125 -9.003906 3.25 -7.785156 3.25 -6.203125 Z M 3.25 -6.203125 "/></g></g></g><g fill="rgb(100%, 100%, 100%)" fill-opacity="1"><g transform="translate(121.554531, 359.849976)"><g/></g></g><g fill="rgb(100%, 100%, 100%)" fill-opacity="1"><g transform="translate(127.493041, 359.849976)"><g><path d="M 4.25 -1.84375 L 12.328125 -1.84375 L 12.328125 0 L 1.984375 0 L 1.984375 -17.0625 L 4.25 -17.0625 Z M 4.25 -1.84375 "/></g></g></g><g fill="rgb(100%, 100%, 100%)" fill-opacity="1"><g transform="translate(140.400797, 359.849976)"><g><path d="M 6.90625 0.234375 C 5.1875 0.234375 3.785156 -0.328125 2.703125 -1.453125 C 1.628906 -2.585938 1.09375 -4.097656 1.09375 -5.984375 L 1.09375 -6.390625 C 1.09375 -7.648438 1.332031 -8.769531 1.8125 -9.75 C 2.289062 -10.738281 2.960938 -11.515625 3.828125 -12.078125 C 4.691406 -12.640625 5.628906 -12.921875 6.640625 -12.921875 C 8.285156 -12.921875 9.5625 -12.375 10.46875 -11.28125 C 11.382812 -10.195312 11.84375 -8.644531 11.84375 -6.625 L 11.84375 -5.71875 L 3.265625 -5.71875 C 3.296875 -4.46875 3.660156 -3.457031 4.359375 -2.6875 C 5.054688 -1.914062 5.941406 -1.53125 7.015625 -1.53125 C 7.785156 -1.53125 8.4375 -1.6875 8.96875 -2 C 9.5 -2.3125 9.960938 -2.726562 10.359375 -3.25 L 11.6875 -2.21875 C 10.625 -0.582031 9.03125 0.234375 6.90625 0.234375 Z M 6.640625 -11.140625 C 5.765625 -11.140625 5.03125 -10.816406 4.4375 -10.171875 C 3.84375 -9.535156 3.472656 -8.644531 3.328125 -7.5 L 9.6875 -7.5 L 9.6875 -7.671875 C 9.625 -8.765625 9.328125 -9.613281 8.796875 -10.21875 C 8.265625 -10.832031 7.546875 -11.140625 6.640625 -11.140625 Z M 6.640625 -11.140625 "/></g></g></g><g fill="rgb(100%, 100%, 100%)" fill-opacity="1"><g transform="translate(153.109437, 359.849976)"><g><path d="M 9.46875 0 C 9.34375 -0.25 9.242188 -0.695312 9.171875 -1.34375 C 8.160156 -0.289062 6.957031 0.234375 5.5625 0.234375 C 4.3125 0.234375 3.285156 -0.117188 2.484375 -0.828125 C 1.679688 -1.535156 1.28125 -2.429688 1.28125 -3.515625 C 1.28125 -4.835938 1.78125 -5.863281 2.78125 -6.59375 C 3.789062 -7.320312 5.203125 -7.6875 7.015625 -7.6875 L 9.125 -7.6875 L 9.125 -8.6875 C 9.125 -9.445312 8.894531 -10.050781 8.4375 -10.5 C 7.988281 -10.945312 7.328125 -11.171875 6.453125 -11.171875 C 5.671875 -11.171875 5.019531 -10.972656 4.5 -10.578125 C 3.976562 -10.191406 3.71875 -9.722656 3.71875 -9.171875 L 1.53125 -9.171875 C 1.53125 -9.796875 1.753906 -10.40625 2.203125 -11 C 2.660156 -11.59375 3.269531 -12.0625 4.03125 -12.40625 C 4.800781 -12.75 5.648438 -12.921875 6.578125 -12.921875 C 8.035156 -12.921875 9.175781 -12.550781 10 -11.8125 C 10.832031 -11.082031 11.265625 -10.078125 11.296875 -8.796875 L 11.296875 -2.96875 C 11.296875 -1.800781 11.445312 -0.875 11.75 -0.1875 L 11.75 0 Z M 5.875 -1.65625 C 6.550781 -1.65625 7.191406 -1.828125 7.796875 -2.171875 C 8.410156 -2.523438 8.851562 -2.984375 9.125 -3.546875 L 9.125 -6.15625 L 7.4375 -6.15625 C 4.78125 -6.15625 3.453125 -5.378906 3.453125 -3.828125 C 3.453125 -3.140625 3.675781 -2.601562 4.125 -2.21875 C 4.582031 -1.84375 5.164062 -1.65625 5.875 -1.65625 Z M 5.875 -1.65625 "/></g></g></g><g fill="rgb(100%, 100%, 100%)" fill-opacity="1"><g transform="translate(166.157749, 359.849976)"><g><path d="M 7.765625 -10.734375 C 7.441406 -10.785156 7.085938 -10.8125 6.703125 -10.8125 C 5.285156 -10.8125 4.320312 -10.207031 3.8125 -9 L 3.8125 0 L 1.640625 0 L 1.640625 -12.6875 L 3.75 -12.6875 L 3.78125 -11.21875 C 4.5 -12.351562 5.507812 -12.921875 6.8125 -12.921875 C 7.226562 -12.921875 7.546875 -12.863281 7.765625 -12.75 Z M 7.765625 -10.734375 "/></g></g></g><g fill="rgb(100%, 100%, 100%)" fill-opacity="1"><g transform="translate(174.274883, 359.849976)"><g><path d="M 3.6875 -12.6875 L 3.765625 -11.09375 C 4.734375 -12.3125 6 -12.921875 7.5625 -12.921875 C 10.238281 -12.921875 11.585938 -11.40625 11.609375 -8.375 L 11.609375 0 L 9.453125 0 L 9.453125 -8.390625 C 9.441406 -9.304688 9.226562 -9.984375 8.8125 -10.421875 C 8.40625 -10.859375 7.769531 -11.078125 6.90625 -11.078125 C 6.195312 -11.078125 5.578125 -10.890625 5.046875 -10.515625 C 4.515625 -10.140625 4.101562 -9.644531 3.8125 -9.03125 L 3.8125 0 L 1.640625 0 L 1.640625 -12.6875 Z M 3.6875 -12.6875 "/></g></g></g><g fill="rgb(100%, 100%, 100%)" fill-opacity="1"><g transform="translate(187.510604, 359.849976)"><g><path d="M 4 0 L 1.828125 0 L 1.828125 -12.6875 L 4 -12.6875 Z M 1.65625 -16.046875 C 1.65625 -16.398438 1.757812 -16.695312 1.96875 -16.9375 C 2.1875 -17.175781 2.503906 -17.296875 2.921875 -17.296875 C 3.347656 -17.296875 3.671875 -17.175781 3.890625 -16.9375 C 4.109375 -16.695312 4.21875 -16.398438 4.21875 -16.046875 C 4.21875 -15.691406 4.109375 -15.394531 3.890625 -15.15625 C 3.671875 -14.925781 3.347656 -14.8125 2.921875 -14.8125 C 2.503906 -14.8125 2.1875 -14.925781 1.96875 -15.15625 C 1.757812 -15.394531 1.65625 -15.691406 1.65625 -16.046875 Z M 1.65625 -16.046875 "/></g></g></g><g fill="rgb(100%, 100%, 100%)" fill-opacity="1"><g transform="translate(193.331984, 359.849976)"><g><path d="M 3.6875 -12.6875 L 3.765625 -11.09375 C 4.734375 -12.3125 6 -12.921875 7.5625 -12.921875 C 10.238281 -12.921875 11.585938 -11.40625 11.609375 -8.375 L 11.609375 0 L 9.453125 0 L 9.453125 -8.390625 C 9.441406 -9.304688 9.226562 -9.984375 8.8125 -10.421875 C 8.40625 -10.859375 7.769531 -11.078125 6.90625 -11.078125 C 6.195312 -11.078125 5.578125 -10.890625 5.046875 -10.515625 C 4.515625 -10.140625 4.101562 -9.644531 3.8125 -9.03125 L 3.8125 0 L 1.640625 0 L 1.640625 -12.6875 Z M 3.6875 -12.6875 "/></g></g></g><g fill="rgb(100%, 100%, 100%)" fill-opacity="1"><g transform="translate(206.567705, 359.849976)"><g><path d="M 1.125 -6.453125 C 1.125 -8.421875 1.582031 -9.988281 2.5 -11.15625 C 3.414062 -12.332031 4.625 -12.921875 6.125 -12.921875 C 7.675781 -12.921875 8.882812 -12.375 9.75 -11.28125 L 9.859375 -12.6875 L 11.84375 -12.6875 L 11.84375 -0.3125 C 11.84375 1.332031 11.351562 2.628906 10.375 3.578125 C 9.40625 4.523438 8.097656 5 6.453125 5 C 5.546875 5 4.65625 4.800781 3.78125 4.40625 C 2.90625 4.019531 2.234375 3.484375 1.765625 2.796875 L 2.890625 1.5 C 3.828125 2.644531 4.96875 3.21875 6.3125 3.21875 C 7.363281 3.21875 8.179688 2.921875 8.765625 2.328125 C 9.359375 1.734375 9.65625 0.898438 9.65625 -0.171875 L 9.65625 -1.265625 C 8.789062 -0.265625 7.609375 0.234375 6.109375 0.234375 C 4.617188 0.234375 3.414062 -0.363281 2.5 -1.5625 C 1.582031 -2.757812 1.125 -4.390625 1.125 -6.453125 Z M 3.3125 -6.203125 C 3.3125 -4.773438 3.601562 -3.648438 4.1875 -2.828125 C 4.769531 -2.015625 5.585938 -1.609375 6.640625 -1.609375 C 8.015625 -1.609375 9.019531 -2.226562 9.65625 -3.46875 L 9.65625 -9.265625 C 8.988281 -10.472656 7.992188 -11.078125 6.671875 -11.078125 C 5.617188 -11.078125 4.796875 -10.664062 4.203125 -9.84375 C 3.609375 -9.019531 3.3125 -7.804688 3.3125 -6.203125 Z M 3.3125 -6.203125 "/></g></g></g><g fill="rgb(100%, 100%, 100%)" fill-opacity="1"><g transform="translate(220.025979, 359.849976)"><g/></g></g><g fill="rgb(100%, 100%, 100%)" fill-opacity="1"><g transform="translate(225.964489, 359.849976)"><g><path d="M 7.015625 -7.609375 C 5.078125 -8.160156 3.671875 -8.835938 2.796875 -9.640625 C 1.921875 -10.453125 1.484375 -11.453125 1.484375 -12.640625 C 1.484375 -13.984375 2.019531 -15.09375 3.09375 -15.96875 C 4.164062 -16.851562 5.5625 -17.296875 7.28125 -17.296875 C 8.445312 -17.296875 9.488281 -17.066406 10.40625 -16.609375 C 11.332031 -16.160156 12.046875 -15.535156 12.546875 -14.734375 C 13.046875 -13.941406 13.296875 -13.070312 13.296875 -12.125 L 11.046875 -12.125 C 11.046875 -13.15625 10.71875 -13.96875 10.0625 -14.5625 C 9.40625 -15.15625 8.476562 -15.453125 7.28125 -15.453125 C 6.164062 -15.453125 5.296875 -15.207031 4.671875 -14.71875 C 4.054688 -14.226562 3.75 -13.550781 3.75 -12.6875 C 3.75 -11.988281 4.039062 -11.398438 4.625 -10.921875 C 5.21875 -10.441406 6.222656 -10 7.640625 -9.59375 C 9.066406 -9.195312 10.175781 -8.757812 10.96875 -8.28125 C 11.769531 -7.800781 12.363281 -7.238281 12.75 -6.59375 C 13.144531 -5.957031 13.34375 -5.207031 13.34375 -4.34375 C 13.34375 -2.957031 12.800781 -1.847656 11.71875 -1.015625 C 10.644531 -0.179688 9.203125 0.234375 7.390625 0.234375 C 6.222656 0.234375 5.128906 0.0078125 4.109375 -0.4375 C 3.097656 -0.882812 2.316406 -1.5 1.765625 -2.28125 C 1.210938 -3.0625 0.9375 -3.953125 0.9375 -4.953125 L 3.203125 -4.953125 C 3.203125 -3.921875 3.582031 -3.101562 4.34375 -2.5 C 5.101562 -1.90625 6.117188 -1.609375 7.390625 -1.609375 C 8.578125 -1.609375 9.488281 -1.847656 10.125 -2.328125 C 10.757812 -2.816406 11.078125 -3.476562 11.078125 -4.3125 C 11.078125 -5.144531 10.78125 -5.789062 10.1875 -6.25 C 9.601562 -6.707031 8.546875 -7.160156 7.015625 -7.609375 Z M 7.015625 -7.609375 "/></g></g></g><g fill="rgb(100%, 100%, 100%)" fill-opacity="1"><g transform="translate(240.195823, 359.849976)"><g><path d="M 4.578125 -15.75 L 4.578125 -12.6875 L 6.953125 -12.6875 L 6.953125 -11 L 4.578125 -11 L 4.578125 -3.140625 C 4.578125 -2.628906 4.679688 -2.25 4.890625 -2 C 5.109375 -1.75 5.472656 -1.625 5.984375 -1.625 C 6.234375 -1.625 6.578125 -1.671875 7.015625 -1.765625 L 7.015625 0 C 6.441406 0.15625 5.882812 0.234375 5.34375 0.234375 C 4.375 0.234375 3.644531 -0.0546875 3.15625 -0.640625 C 2.664062 -1.234375 2.421875 -2.066406 2.421875 -3.140625 L 2.421875 -11 L 0.109375 -11 L 0.109375 -12.6875 L 2.421875 -12.6875 L 2.421875 -15.75 Z M 4.578125 -15.75 "/></g></g></g><g fill="rgb(100%, 100%, 100%)" fill-opacity="1"><g transform="translate(248.031844, 359.849976)"><g><path d="M 7.765625 -10.734375 C 7.441406 -10.785156 7.085938 -10.8125 6.703125 -10.8125 C 5.285156 -10.8125 4.320312 -10.207031 3.8125 -9 L 3.8125 0 L 1.640625 0 L 1.640625 -12.6875 L 3.75 -12.6875 L 3.78125 -11.21875 C 4.5 -12.351562 5.507812 -12.921875 6.8125 -12.921875 C 7.226562 -12.921875 7.546875 -12.863281 7.765625 -12.75 Z M 7.765625 -10.734375 "/></g></g></g><g fill="rgb(100%, 100%, 100%)" fill-opacity="1"><g transform="translate(256.148989, 359.849976)"><g><path d="M 9.46875 0 C 9.34375 -0.25 9.242188 -0.695312 9.171875 -1.34375 C 8.160156 -0.289062 6.957031 0.234375 5.5625 0.234375 C 4.3125 0.234375 3.285156 -0.117188 2.484375 -0.828125 C 1.679688 -1.535156 1.28125 -2.429688 1.28125 -3.515625 C 1.28125 -4.835938 1.78125 -5.863281 2.78125 -6.59375 C 3.789062 -7.320312 5.203125 -7.6875 7.015625 -7.6875 L 9.125 -7.6875 L 9.125 -8.6875 C 9.125 -9.445312 8.894531 -10.050781 8.4375 -10.5 C 7.988281 -10.945312 7.328125 -11.171875 6.453125 -11.171875 C 5.671875 -11.171875 5.019531 -10.972656 4.5 -10.578125 C 3.976562 -10.191406 3.71875 -9.722656 3.71875 -9.171875 L 1.53125 -9.171875 C 1.53125 -9.796875 1.753906 -10.40625 2.203125 -11 C 2.660156 -11.59375 3.269531 -12.0625 4.03125 -12.40625 C 4.800781 -12.75 5.648438 -12.921875 6.578125 -12.921875 C 8.035156 -12.921875 9.175781 -12.550781 10 -11.8125 C 10.832031 -11.082031 11.265625 -10.078125 11.296875 -8.796875 L 11.296875 -2.96875 C 11.296875 -1.800781 11.445312 -0.875 11.75 -0.1875 L 11.75 0 Z M 5.875 -1.65625 C 6.550781 -1.65625 7.191406 -1.828125 7.796875 -2.171875 C 8.410156 -2.523438 8.851562 -2.984375 9.125 -3.546875 L 9.125 -6.15625 L 7.4375 -6.15625 C 4.78125 -6.15625 3.453125 -5.378906 3.453125 -3.828125 C 3.453125 -3.140625 3.675781 -2.601562 4.125 -2.21875 C 4.582031 -1.84375 5.164062 -1.65625 5.875 -1.65625 Z M 5.875 -1.65625 "/></g></g></g><g fill="rgb(100%, 100%, 100%)" fill-opacity="1"><g transform="translate(269.197313, 359.849976)"><g><path d="M 4.578125 -15.75 L 4.578125 -12.6875 L 6.953125 -12.6875 L 6.953125 -11 L 4.578125 -11 L 4.578125 -3.140625 C 4.578125 -2.628906 4.679688 -2.25 4.890625 -2 C 5.109375 -1.75 5.472656 -1.625 5.984375 -1.625 C 6.234375 -1.625 6.578125 -1.671875 7.015625 -1.765625 L 7.015625 0 C 6.441406 0.15625 5.882812 0.234375 5.34375 0.234375 C 4.375 0.234375 3.644531 -0.0546875 3.15625 -0.640625 C 2.664062 -1.234375 2.421875 -2.066406 2.421875 -3.140625 L 2.421875 -11 L 0.109375 -11 L 0.109375 -12.6875 L 2.421875 -12.6875 L 2.421875 -15.75 Z M 4.578125 -15.75 "/></g></g></g><g fill="rgb(100%, 100%, 100%)" fill-opacity="1"><g transform="translate(277.033333, 359.849976)"><g><path d="M 6.90625 0.234375 C 5.1875 0.234375 3.785156 -0.328125 2.703125 -1.453125 C 1.628906 -2.585938 1.09375 -4.097656 1.09375 -5.984375 L 1.09375 -6.390625 C 1.09375 -7.648438 1.332031 -8.769531 1.8125 -9.75 C 2.289062 -10.738281 2.960938 -11.515625 3.828125 -12.078125 C 4.691406 -12.640625 5.628906 -12.921875 6.640625 -12.921875 C 8.285156 -12.921875 9.5625 -12.375 10.46875 -11.28125 C 11.382812 -10.195312 11.84375 -8.644531 11.84375 -6.625 L 11.84375 -5.71875 L 3.265625 -5.71875 C 3.296875 -4.46875 3.660156 -3.457031 4.359375 -2.6875 C 5.054688 -1.914062 5.941406 -1.53125 7.015625 -1.53125 C 7.785156 -1.53125 8.4375 -1.6875 8.96875 -2 C 9.5 -2.3125 9.960938 -2.726562 10.359375 -3.25 L 11.6875 -2.21875 C 10.625 -0.582031 9.03125 0.234375 6.90625 0.234375 Z M 6.640625 -11.140625 C 5.765625 -11.140625 5.03125 -10.816406 4.4375 -10.171875 C 3.84375 -9.535156 3.472656 -8.644531 3.328125 -7.5 L 9.6875 -7.5 L 9.6875 -7.671875 C 9.625 -8.765625 9.328125 -9.613281 8.796875 -10.21875 C 8.265625 -10.832031 7.546875 -11.140625 6.640625 -11.140625 Z M 6.640625 -11.140625 "/></g></g></g><g fill="rgb(100%, 100%, 100%)" fill-opacity="1"><g transform="translate(289.741974, 359.849976)"><g><path d="M 1.125 -6.453125 C 1.125 -8.421875 1.582031 -9.988281 2.5 -11.15625 C 3.414062 -12.332031 4.625 -12.921875 6.125 -12.921875 C 7.675781 -12.921875 8.882812 -12.375 9.75 -11.28125 L 9.859375 -12.6875 L 11.84375 -12.6875 L 11.84375 -0.3125 C 11.84375 1.332031 11.351562 2.628906 10.375 3.578125 C 9.40625 4.523438 8.097656 5 6.453125 5 C 5.546875 5 4.65625 4.800781 3.78125 4.40625 C 2.90625 4.019531 2.234375 3.484375 1.765625 2.796875 L 2.890625 1.5 C 3.828125 2.644531 4.96875 3.21875 6.3125 3.21875 C 7.363281 3.21875 8.179688 2.921875 8.765625 2.328125 C 9.359375 1.734375 9.65625 0.898438 9.65625 -0.171875 L 9.65625 -1.265625 C 8.789062 -0.265625 7.609375 0.234375 6.109375 0.234375 C 4.617188 0.234375 3.414062 -0.363281 2.5 -1.5625 C 1.582031 -2.757812 1.125 -4.390625 1.125 -6.453125 Z M 3.3125 -6.203125 C 3.3125 -4.773438 3.601562 -3.648438 4.1875 -2.828125 C 4.769531 -2.015625 5.585938 -1.609375 6.640625 -1.609375 C 8.015625 -1.609375 9.019531 -2.226562 9.65625 -3.46875 L 9.65625 -9.265625 C 8.988281 -10.472656 7.992188 -11.078125 6.671875 -11.078125 C 5.617188 -11.078125 4.796875 -10.664062 4.203125 -9.84375 C 3.609375 -9.019531 3.3125 -7.804688 3.3125 -6.203125 Z M 3.3125 -6.203125 "/></g></g></g><g fill="rgb(100%, 100%, 100%)" fill-opacity="1"><g transform="translate(303.200247, 359.849976)"><g><path d="M 5.796875 -3.171875 L 8.75 -12.6875 L 11.0625 -12.6875 L 5.96875 1.953125 C 5.175781 4.066406 3.921875 5.125 2.203125 5.125 L 1.796875 5.09375 L 0.984375 4.9375 L 0.984375 3.171875 L 1.578125 3.21875 C 2.304688 3.21875 2.875 3.066406 3.28125 2.765625 C 3.695312 2.472656 4.035156 1.9375 4.296875 1.15625 L 4.78125 -0.140625 L 0.265625 -12.6875 L 2.625 -12.6875 Z M 5.796875 -3.171875 "/></g></g></g></svg>