<svg xmlns="http://www.w3.org/2000/svg" xmlns:xlink="http://www.w3.org/1999/xlink" width="500" zoomAndPan="magnify" viewBox="0 0 375 374.999991" height="500" preserveAspectRatio="xMidYMid meet" version="1.0"><defs><g/><clipPath id="id1"><path d="M 48 114.480469 L 137 114.480469 L 137 259 L 48 259 Z M 48 114.480469 " clip-rule="nonzero"/></clipPath><clipPath id="id2"><path d="M 37.5 141 L 89 141 L 89 211 L 37.5 211 Z M 37.5 141 " clip-rule="nonzero"/></clipPath><clipPath id="id3"><path d="M 99 177 L 161.25 177 L 161.25 260.730469 L 99 260.730469 Z M 99 177 " clip-rule="nonzero"/></clipPath></defs><path fill="rgb(67.059326%, 89.019775%, 97.648621%)" d="M 122.695312 257.765625 L 60.207031 252.898438 C 56.277344 252.898438 53.070312 249.683594 53.070312 245.753906 L 49.828125 125.886719 C 49.828125 121.957031 56.277344 115.621094 60.207031 115.621094 L 128.511719 115.621094 C 132.4375 115.621094 135.652344 118.835938 135.652344 122.769531 L 135.652344 245.753906 C 135.652344 249.683594 126.621094 257.765625 122.695312 257.765625 " fill-opacity="1" fill-rule="nonzero"/><g clip-path="url(#id1)"><path fill="rgb(12.548828%, 18.429565%, 35.289001%)" d="M 122.695312 257.765625 L 122.785156 256.644531 L 60.292969 251.78125 L 60.207031 251.777344 C 58.554688 251.777344 57.054688 251.101562 55.960938 250.003906 C 54.867188 248.910156 54.195312 247.410156 54.195312 245.753906 L 54.195312 245.726562 L 50.949219 125.859375 L 49.828125 125.886719 L 50.949219 125.886719 C 50.945312 125.214844 51.261719 124.234375 51.871094 123.191406 C 52.769531 121.632812 54.285156 119.953125 55.886719 118.726562 C 56.679688 118.109375 57.5 117.597656 58.253906 117.257812 C 59.007812 116.910156 59.695312 116.742188 60.207031 116.746094 L 128.511719 116.746094 C 130.164062 116.746094 131.660156 117.421875 132.753906 118.515625 C 133.851562 119.613281 134.523438 121.113281 134.523438 122.769531 L 134.523438 245.753906 C 134.53125 246.027344 134.4375 246.453125 134.21875 246.953125 C 133.84375 247.84375 133.113281 248.945312 132.167969 250.050781 C 130.75 251.71875 128.867188 253.414062 127.070312 254.660156 C 126.171875 255.289062 125.292969 255.796875 124.519531 256.140625 C 123.753906 256.480469 123.085938 256.644531 122.695312 256.644531 L 122.695312 257.765625 L 122.785156 256.644531 L 122.695312 257.765625 L 122.695312 258.890625 C 123.378906 258.890625 124.066406 258.726562 124.769531 258.472656 C 126 258.015625 127.3125 257.253906 128.632812 256.3125 C 130.609375 254.90625 132.578125 253.089844 134.101562 251.25 C 134.863281 250.328125 135.507812 249.398438 135.980469 248.488281 C 136.453125 247.578125 136.769531 246.683594 136.777344 245.753906 L 136.777344 122.769531 C 136.769531 118.210938 133.066406 114.5 128.511719 114.496094 L 60.207031 114.496094 C 58.921875 114.5 57.636719 114.980469 56.371094 115.691406 C 54.480469 116.765625 52.628906 118.414062 51.199219 120.210938 C 50.480469 121.117188 49.875 122.058594 49.429688 123.003906 C 48.992188 123.957031 48.710938 124.917969 48.703125 125.886719 L 48.703125 125.921875 L 51.941406 245.785156 L 53.070312 245.753906 L 51.941406 245.753906 C 51.949219 250.3125 55.652344 254.023438 60.207031 254.03125 L 60.207031 252.898438 L 60.121094 254.023438 L 122.609375 258.890625 L 122.695312 258.890625 L 122.695312 257.765625 " fill-opacity="1" fill-rule="nonzero"/></g><path fill="rgb(100%, 100%, 100%)" d="M 120.113281 258.304688 L 56.726562 258.304688 C 52.933594 258.304688 49.828125 255.195312 49.828125 251.394531 L 49.828125 127.9375 C 49.828125 124.136719 52.933594 121.023438 56.726562 121.023438 L 120.113281 121.023438 C 123.910156 121.023438 127.015625 124.136719 127.015625 127.9375 L 127.015625 251.394531 C 127.015625 255.195312 123.910156 258.304688 120.113281 258.304688 " fill-opacity="1" fill-rule="nonzero"/><path fill="rgb(12.548828%, 18.429565%, 35.289001%)" d="M 120.113281 258.304688 L 120.113281 257.230469 L 56.726562 257.230469 C 55.125 257.230469 53.675781 256.578125 52.617188 255.519531 C 51.554688 254.453125 50.898438 253 50.898438 251.394531 L 50.898438 127.9375 C 50.898438 126.332031 51.554688 124.878906 52.617188 123.8125 C 53.675781 122.75 55.125 122.101562 56.726562 122.101562 L 120.113281 122.101562 C 121.714844 122.101562 123.167969 122.75 124.226562 123.8125 C 125.285156 124.878906 125.941406 126.332031 125.941406 127.9375 L 125.941406 251.394531 C 125.941406 253 125.285156 254.453125 124.226562 255.519531 C 123.167969 256.578125 121.714844 257.230469 120.113281 257.230469 L 120.113281 259.382812 C 124.507812 259.375 128.085938 255.796875 128.085938 251.394531 L 128.085938 127.9375 C 128.085938 123.535156 124.507812 119.953125 120.113281 119.949219 L 56.726562 119.949219 C 52.339844 119.953125 48.761719 123.535156 48.757812 127.9375 L 48.757812 251.394531 C 48.761719 255.796875 52.339844 259.375 56.726562 259.382812 L 120.113281 259.382812 L 120.113281 258.304688 " fill-opacity="1" fill-rule="nonzero"/><path fill="rgb(85.099792%, 94.898987%, 98.81897%)" d="M 120.113281 258.304688 L 120.113281 257.230469 L 56.726562 257.230469 C 55.125 257.230469 53.675781 256.578125 52.617188 255.519531 C 51.554688 254.453125 50.898438 253 50.898438 251.394531 L 50.898438 128.339844 C 52.015625 130.933594 53.238281 133.441406 54.492188 135.820312 C 61.601562 149.308594 71.269531 161.648438 81.902344 172.53125 C 94.191406 185.105469 109.171875 195.960938 124.980469 203.597656 C 125.296875 203.753906 125.621094 203.902344 125.941406 204.054688 L 125.941406 251.394531 C 125.941406 252.996094 125.285156 254.453125 124.226562 255.519531 C 123.167969 256.578125 121.714844 257.230469 120.113281 257.230469 L 120.113281 258.304688 " fill-opacity="1" fill-rule="nonzero"/><path fill="rgb(0%, 0%, 0%)" d="M 120.113281 258.304688 L 120.113281 257.230469 C 121.714844 257.230469 123.167969 256.578125 124.226562 255.519531 C 125.285156 254.453125 125.941406 253 125.941406 251.394531 L 125.941406 204.054688 C 126.300781 204.222656 126.65625 204.386719 127.015625 204.550781 L 127.015625 251.394531 C 127.015625 255.195312 123.910156 258.304688 120.113281 258.304688 L 56.726562 258.304688 C 52.933594 258.304688 49.828125 255.195312 49.828125 251.394531 L 49.828125 127.9375 C 49.828125 127.359375 49.910156 126.800781 50.046875 126.261719 C 50.324219 126.960938 50.605469 127.652344 50.898438 128.339844 L 50.898438 251.394531 C 50.898438 253 51.554688 254.453125 52.617188 255.519531 C 53.675781 256.578125 55.125 257.230469 56.726562 257.230469 L 120.113281 257.230469 L 120.113281 258.304688 " fill-opacity="1" fill-rule="nonzero"/><path fill="rgb(100%, 100%, 100%)" d="M 49.828125 232.039062 L 49.828125 251.394531 C 49.828125 255.195312 52.933594 258.304688 56.726562 258.304688 L 120.113281 258.304688 C 123.910156 258.304688 127.015625 255.195312 127.015625 251.394531 L 127.015625 232.039062 L 49.828125 232.039062 " fill-opacity="1" fill-rule="nonzero"/><path fill="rgb(12.548828%, 18.429565%, 35.289001%)" d="M 49.828125 232.039062 L 48.757812 232.039062 L 48.757812 251.394531 C 48.761719 255.796875 52.339844 259.375 56.726562 259.382812 L 120.113281 259.382812 C 124.507812 259.375 128.085938 255.796875 128.085938 251.394531 L 128.085938 232.039062 C 128.085938 231.757812 127.96875 231.480469 127.773438 231.28125 C 127.574219 231.082031 127.296875 230.96875 127.015625 230.96875 L 49.828125 230.96875 C 49.546875 230.96875 49.269531 231.082031 49.066406 231.28125 C 48.871094 231.480469 48.757812 231.757812 48.757812 232.039062 L 49.828125 232.039062 L 49.828125 233.113281 L 125.941406 233.113281 L 125.941406 251.394531 C 125.941406 252.996094 125.285156 254.453125 124.226562 255.519531 C 123.167969 256.578125 121.714844 257.230469 120.113281 257.230469 L 56.726562 257.230469 C 55.125 257.230469 53.675781 256.578125 52.617188 255.519531 C 51.554688 254.453125 50.898438 252.996094 50.898438 251.394531 L 50.898438 232.039062 L 49.828125 232.039062 L 49.828125 233.113281 L 49.828125 232.039062 " fill-opacity="1" fill-rule="nonzero"/><path fill="rgb(67.059326%, 89.019775%, 97.648621%)" d="M 93.242188 244.191406 C 93.242188 247.261719 90.753906 249.746094 87.695312 249.746094 C 84.632812 249.746094 82.148438 247.261719 82.148438 244.191406 C 82.148438 241.125 84.632812 238.644531 87.695312 238.644531 C 90.753906 238.644531 93.242188 241.125 93.242188 244.191406 " fill-opacity="1" fill-rule="nonzero"/><path fill="rgb(12.548828%, 18.429565%, 35.289001%)" d="M 93.242188 244.191406 L 92.113281 244.191406 C 92.113281 245.421875 91.621094 246.515625 90.824219 247.324219 C 90.015625 248.125 88.917969 248.621094 87.695312 248.621094 C 86.46875 248.621094 85.375 248.125 84.566406 247.324219 C 83.765625 246.515625 83.277344 245.421875 83.277344 244.191406 C 83.277344 242.96875 83.765625 241.867188 84.566406 241.066406 C 85.375 240.257812 86.46875 239.769531 87.695312 239.769531 C 88.917969 239.769531 90.015625 240.257812 90.824219 241.066406 C 91.621094 241.867188 92.113281 242.96875 92.113281 244.191406 L 94.363281 244.191406 C 94.363281 240.507812 91.382812 237.515625 87.695312 237.515625 C 84.007812 237.515625 81.027344 240.507812 81.027344 244.191406 C 81.027344 247.882812 84.007812 250.871094 87.695312 250.871094 C 91.382812 250.871094 94.363281 247.882812 94.363281 244.191406 L 93.242188 244.191406 " fill-opacity="1" fill-rule="nonzero"/><path fill="rgb(100%, 100%, 100%)" d="M 87.667969 209.507812 C 74.109375 195.933594 52.132812 195.933594 38.574219 209.507812 L 38.574219 152.21875 C 52.132812 138.644531 74.109375 138.644531 87.667969 152.21875 L 87.667969 209.507812 " fill-opacity="1" fill-rule="nonzero"/><g clip-path="url(#id2)"><path fill="rgb(12.548828%, 18.429565%, 35.289001%)" d="M 87.667969 209.507812 L 88.347656 208.828125 C 81.382812 201.855469 72.25 198.367188 63.121094 198.367188 C 53.992188 198.367188 44.859375 201.855469 37.894531 208.828125 L 38.574219 209.507812 L 39.53125 209.507812 L 39.53125 152.21875 L 38.574219 152.21875 L 39.253906 152.902344 C 45.84375 146.296875 54.480469 143 63.121094 143 C 71.757812 143 80.398438 146.296875 86.988281 152.902344 L 87.667969 152.21875 L 86.703125 152.21875 L 86.703125 209.507812 L 87.667969 209.507812 L 88.347656 208.828125 L 87.667969 209.507812 L 88.628906 209.507812 L 88.628906 152.21875 C 88.628906 151.964844 88.53125 151.722656 88.347656 151.539062 C 81.382812 144.566406 72.25 141.078125 63.121094 141.078125 C 53.992188 141.078125 44.859375 144.566406 37.894531 151.539062 C 37.714844 151.71875 37.613281 151.964844 37.613281 152.21875 L 37.613281 209.507812 C 37.613281 209.902344 37.847656 210.246094 38.207031 210.398438 C 38.5625 210.546875 38.976562 210.464844 39.253906 210.191406 C 45.84375 203.585938 54.480469 200.292969 63.121094 200.289062 C 71.757812 200.292969 80.398438 203.585938 86.988281 210.191406 C 87.261719 210.464844 87.679688 210.546875 88.035156 210.398438 C 88.390625 210.246094 88.628906 209.902344 88.628906 209.507812 L 87.667969 209.507812 " fill-opacity="1" fill-rule="nonzero"/></g><path fill="rgb(100%, 100%, 100%)" d="M 136.765625 209.507812 C 123.207031 195.933594 101.222656 195.933594 87.667969 209.507812 L 87.667969 152.21875 C 101.222656 138.644531 123.207031 138.644531 136.765625 152.21875 L 136.765625 209.507812 " fill-opacity="1" fill-rule="nonzero"/><path fill="rgb(12.548828%, 18.429565%, 35.289001%)" d="M 136.765625 209.507812 L 137.445312 208.828125 C 130.480469 201.855469 121.339844 198.367188 112.21875 198.367188 C 103.089844 198.367188 93.949219 201.855469 86.988281 208.828125 L 87.667969 209.507812 L 88.628906 209.507812 L 88.628906 152.21875 L 87.667969 152.21875 L 88.347656 152.902344 C 94.941406 146.296875 103.574219 143 112.21875 143 C 120.855469 143 129.488281 146.296875 136.085938 152.902344 L 136.765625 152.21875 L 135.800781 152.21875 L 135.800781 209.507812 L 136.765625 209.507812 L 137.445312 208.828125 L 136.765625 209.507812 L 137.71875 209.507812 L 137.71875 152.21875 C 137.71875 151.964844 137.621094 151.722656 137.445312 151.539062 C 130.480469 144.566406 121.339844 141.078125 112.21875 141.078125 C 103.089844 141.078125 93.949219 144.566406 86.988281 151.539062 C 86.808594 151.71875 86.703125 151.964844 86.703125 152.21875 L 86.703125 209.507812 C 86.703125 209.902344 86.941406 210.246094 87.296875 210.398438 C 87.660156 210.546875 88.070312 210.464844 88.347656 210.191406 C 94.941406 203.585938 103.574219 200.292969 112.21875 200.289062 C 120.855469 200.292969 129.488281 203.585938 136.085938 210.191406 C 136.355469 210.464844 136.769531 210.546875 137.132812 210.398438 C 137.488281 210.246094 137.71875 209.902344 137.71875 209.507812 L 136.765625 209.507812 " fill-opacity="1" fill-rule="nonzero"/><path fill="rgb(12.548828%, 18.429565%, 35.289001%)" d="M 95.414062 155.785156 C 95.550781 155.699219 102.703125 151.65625 112.402344 151.667969 C 117.71875 151.667969 123.789062 152.859375 129.980469 156.550781 C 130.445312 156.828125 131.050781 156.679688 131.328125 156.210938 C 131.605469 155.742188 131.453125 155.136719 130.988281 154.863281 C 124.460938 150.96875 118.007812 149.695312 112.402344 149.699219 C 101.996094 149.707031 94.515625 154.035156 94.429688 154.082031 C 93.960938 154.355469 93.800781 154.953125 94.070312 155.425781 C 94.339844 155.894531 94.941406 156.054688 95.414062 155.785156 " fill-opacity="1" fill-rule="nonzero"/><path fill="rgb(12.548828%, 18.429565%, 35.289001%)" d="M 95.414062 163.53125 L 95.414062 163.523438 C 95.550781 163.441406 102.703125 159.398438 112.402344 159.40625 C 117.710938 159.410156 123.789062 160.601562 129.980469 164.296875 C 130.445312 164.574219 131.050781 164.417969 131.328125 163.949219 C 131.605469 163.488281 131.453125 162.882812 130.988281 162.605469 C 124.460938 158.707031 118.007812 157.441406 112.402344 157.441406 C 101.996094 157.445312 94.515625 161.777344 94.429688 161.824219 C 93.960938 162.09375 93.800781 162.699219 94.070312 163.167969 C 94.339844 163.640625 94.941406 163.800781 95.414062 163.53125 " fill-opacity="1" fill-rule="nonzero"/><path fill="rgb(12.548828%, 18.429565%, 35.289001%)" d="M 95.414062 171.269531 C 95.550781 171.183594 102.703125 167.144531 112.402344 167.144531 C 117.71875 167.152344 123.789062 168.34375 129.980469 172.035156 C 130.445312 172.3125 131.050781 172.164062 131.328125 171.695312 C 131.605469 171.226562 131.453125 170.621094 130.988281 170.347656 C 124.460938 166.453125 118.007812 165.179688 112.402344 165.179688 C 101.996094 165.191406 94.515625 169.519531 94.429688 169.566406 C 93.960938 169.839844 93.800781 170.4375 94.070312 170.910156 C 94.339844 171.378906 94.941406 171.539062 95.414062 171.269531 " fill-opacity="1" fill-rule="nonzero"/><path fill="rgb(12.548828%, 18.429565%, 35.289001%)" d="M 95.414062 179.007812 C 95.550781 178.925781 102.703125 174.882812 112.402344 174.890625 C 117.710938 174.890625 123.789062 176.085938 129.980469 179.78125 C 130.445312 180.058594 131.050781 179.902344 131.328125 179.433594 C 131.605469 178.96875 131.453125 178.367188 130.988281 178.089844 C 124.460938 174.191406 118.007812 172.925781 112.402344 172.925781 C 101.996094 172.929688 94.515625 177.265625 94.429688 177.308594 C 93.960938 177.578125 93.800781 178.183594 94.070312 178.652344 C 94.339844 179.125 94.941406 179.285156 95.414062 179.007812 " fill-opacity="1" fill-rule="nonzero"/><path fill="rgb(12.548828%, 18.429565%, 35.289001%)" d="M 95.414062 186.753906 C 95.550781 186.667969 102.703125 182.625 112.402344 182.636719 C 117.710938 182.636719 123.789062 183.828125 129.980469 187.519531 C 130.445312 187.796875 131.050781 187.648438 131.328125 187.179688 C 131.605469 186.710938 131.453125 186.105469 130.988281 185.832031 C 124.460938 181.9375 118.007812 180.664062 112.402344 180.664062 C 101.996094 180.675781 94.515625 185.003906 94.429688 185.050781 C 93.960938 185.324219 93.800781 185.921875 94.070312 186.390625 C 94.339844 186.863281 94.941406 187.023438 95.414062 186.753906 " fill-opacity="1" fill-rule="nonzero"/><path fill="rgb(12.548828%, 18.429565%, 35.289001%)" d="M 95.414062 194.492188 C 95.550781 194.40625 102.703125 190.367188 112.402344 190.375 C 117.71875 190.375 123.789062 191.570312 129.980469 195.257812 C 130.445312 195.542969 131.050781 195.386719 131.328125 194.917969 C 131.605469 194.453125 131.453125 193.847656 130.988281 193.570312 C 124.460938 189.675781 118.007812 188.40625 112.402344 188.40625 C 101.996094 188.414062 94.515625 192.746094 94.429688 192.792969 C 93.960938 193.0625 93.800781 193.660156 94.070312 194.132812 C 94.339844 194.609375 94.941406 194.761719 95.414062 194.5 " fill-opacity="1" fill-rule="nonzero"/><path fill="rgb(12.548828%, 18.429565%, 35.289001%)" d="M 46.015625 154.5 L 46.015625 154.492188 C 46.160156 154.40625 53.304688 150.371094 63.011719 150.375 C 68.320312 150.375 74.390625 151.570312 80.589844 155.257812 C 81.054688 155.535156 81.660156 155.386719 81.9375 154.917969 C 82.210938 154.453125 82.0625 153.847656 81.597656 153.570312 C 75.070312 149.675781 68.613281 148.402344 63.011719 148.410156 C 52.597656 148.414062 45.121094 152.746094 45.035156 152.792969 C 44.5625 153.0625 44.402344 153.664062 44.671875 154.136719 C 44.945312 154.609375 45.550781 154.765625 46.015625 154.5 " fill-opacity="1" fill-rule="nonzero"/><path fill="rgb(12.548828%, 18.429565%, 35.289001%)" d="M 46.015625 162.238281 C 46.160156 162.152344 53.304688 158.109375 63.011719 158.113281 C 68.320312 158.121094 74.390625 159.308594 80.589844 163.003906 C 81.054688 163.28125 81.660156 163.125 81.9375 162.664062 C 82.210938 162.199219 82.0625 161.59375 81.597656 161.316406 C 75.070312 157.421875 68.613281 156.148438 63.011719 156.148438 C 52.597656 156.152344 45.121094 160.492188 45.035156 160.53125 C 44.5625 160.808594 44.402344 161.40625 44.671875 161.878906 C 44.945312 162.347656 45.550781 162.507812 46.015625 162.238281 " fill-opacity="1" fill-rule="nonzero"/><path fill="rgb(12.548828%, 18.429565%, 35.289001%)" d="M 46.015625 169.976562 C 46.160156 169.894531 53.304688 165.855469 63.011719 165.859375 C 68.320312 165.859375 74.390625 167.054688 80.589844 170.75 C 81.054688 171.027344 81.660156 170.871094 81.9375 170.402344 C 82.210938 169.9375 82.0625 169.335938 81.597656 169.058594 C 75.070312 165.160156 68.613281 163.894531 63.011719 163.894531 C 52.597656 163.898438 45.121094 168.230469 45.035156 168.277344 C 44.5625 168.546875 44.402344 169.148438 44.671875 169.621094 C 44.945312 170.085938 45.550781 170.246094 46.015625 169.976562 " fill-opacity="1" fill-rule="nonzero"/><path fill="rgb(12.548828%, 18.429565%, 35.289001%)" d="M 46.015625 177.722656 C 46.160156 177.636719 53.304688 173.59375 63.011719 173.597656 C 68.320312 173.597656 74.390625 174.792969 80.589844 178.488281 C 81.054688 178.765625 81.660156 178.617188 81.9375 178.148438 C 82.210938 177.679688 82.0625 177.074219 81.597656 176.800781 C 75.070312 172.90625 68.613281 171.632812 63.011719 171.632812 C 52.597656 171.636719 45.121094 175.972656 45.035156 176.015625 C 44.5625 176.292969 44.402344 176.890625 44.671875 177.359375 C 44.945312 177.832031 45.550781 177.992188 46.015625 177.722656 " fill-opacity="1" fill-rule="nonzero"/><path fill="rgb(12.548828%, 18.429565%, 35.289001%)" d="M 46.015625 185.460938 C 46.160156 185.375 53.304688 181.332031 63.011719 181.34375 C 68.320312 181.34375 74.390625 182.539062 80.589844 186.226562 C 81.054688 186.503906 81.660156 186.355469 81.9375 185.886719 C 82.210938 185.421875 82.0625 184.816406 81.597656 184.539062 C 75.070312 180.644531 68.613281 179.371094 63.011719 179.378906 C 52.597656 179.382812 45.121094 183.714844 45.035156 183.761719 C 44.5625 184.03125 44.402344 184.628906 44.671875 185.105469 C 44.945312 185.570312 45.550781 185.730469 46.015625 185.460938 " fill-opacity="1" fill-rule="nonzero"/><path fill="rgb(12.548828%, 18.429565%, 35.289001%)" d="M 46.015625 193.207031 L 46.015625 193.199219 C 46.160156 193.121094 53.304688 189.078125 63.011719 189.082031 C 68.320312 189.082031 74.390625 190.277344 80.589844 193.972656 C 81.054688 194.25 81.660156 194.09375 81.9375 193.632812 C 82.210938 193.164062 82.0625 192.558594 81.597656 192.285156 C 75.070312 188.390625 68.613281 187.117188 63.011719 187.117188 C 52.597656 187.121094 45.121094 191.457031 45.035156 191.5 C 44.5625 191.769531 44.402344 192.375 44.671875 192.84375 C 44.945312 193.316406 45.550781 193.476562 46.015625 193.207031 " fill-opacity="1" fill-rule="nonzero"/><path fill="rgb(100%, 100%, 100%)" d="M 155.894531 203.980469 L 153.429688 203.980469 C 151.53125 203.980469 149.917969 205.253906 149.386719 206.984375 C 149.324219 206.953125 149.265625 206.925781 149.203125 206.898438 L 149.203125 206.101562 C 149.203125 203.769531 147.304688 201.867188 144.976562 201.867188 L 142.511719 201.867188 C 140.425781 201.867188 138.6875 203.394531 138.355469 205.390625 L 138.285156 205.390625 L 138.285156 203.632812 C 138.285156 201.304688 136.382812 199.398438 134.0625 199.398438 L 131.597656 199.398438 C 129.269531 199.398438 127.371094 201.304688 127.371094 203.632812 L 127.019531 184.589844 C 127.019531 182.261719 125.117188 178.945312 122.792969 178.945312 L 120.328125 178.945312 C 118.007812 178.945312 116.105469 182.261719 116.105469 184.589844 L 116.457031 217.714844 C 112.050781 212.238281 110.996094 211.914062 110.996094 211.914062 C 101.488281 204.867188 98.671875 213.328125 102.191406 216.5 C 105.714844 219.675781 116.457031 241.554688 116.457031 241.554688 C 120.503906 254.226562 128.601562 259.867188 134.570312 259.695312 C 136.996094 259.695312 139.425781 259.722656 141.851562 259.695312 C 147 259.636719 150.636719 256.644531 153.683594 252.546875 C 159.8125 244.335938 160.117188 233.257812 160.117188 223.527344 L 160.117188 208.210938 C 160.117188 205.886719 158.21875 203.980469 155.898438 203.980469 " fill-opacity="1" fill-rule="nonzero"/><g clip-path="url(#id3)"><path fill="rgb(12.548828%, 18.429565%, 35.289001%)" d="M 155.894531 203.980469 L 155.894531 202.957031 L 153.429688 202.957031 C 152.25 202.957031 151.15625 203.355469 150.28125 204.011719 C 149.40625 204.675781 148.742188 205.605469 148.410156 206.683594 L 149.386719 206.984375 L 149.808594 206.050781 C 149.757812 206.027344 149.695312 205.996094 149.613281 205.960938 L 149.203125 206.898438 L 150.230469 206.898438 L 150.230469 206.101562 C 150.222656 203.199219 147.875 200.847656 144.976562 200.839844 L 142.511719 200.839844 C 141.214844 200.839844 140.023438 201.320312 139.113281 202.105469 C 138.199219 202.890625 137.554688 203.980469 137.347656 205.21875 L 138.355469 205.390625 L 138.355469 204.371094 L 138.285156 204.371094 L 138.285156 205.390625 L 139.308594 205.390625 L 139.308594 203.632812 C 139.304688 200.730469 136.953125 198.378906 134.0625 198.375 L 131.597656 198.375 C 128.703125 198.378906 126.351562 200.730469 126.351562 203.632812 L 127.371094 203.632812 L 128.394531 203.609375 L 128.042969 184.566406 L 127.019531 184.589844 L 128.042969 184.589844 C 128.039062 183.871094 127.902344 183.125 127.652344 182.398438 C 127.285156 181.308594 126.691406 180.253906 125.890625 179.410156 C 125.488281 178.992188 125.03125 178.628906 124.515625 178.355469 C 124 178.089844 123.414062 177.921875 122.792969 177.921875 L 120.328125 177.921875 C 119.496094 177.921875 118.742188 178.222656 118.109375 178.65625 C 117.160156 179.320312 116.433594 180.28125 115.910156 181.328125 C 115.398438 182.375 115.085938 183.507812 115.082031 184.589844 L 115.082031 184.601562 L 115.433594 217.726562 L 116.457031 217.714844 L 117.25 217.074219 C 115.035156 214.3125 113.648438 212.832031 112.777344 212.011719 C 112.339844 211.609375 112.035156 211.367188 111.808594 211.210938 C 111.585938 211.054688 111.441406 210.984375 111.296875 210.933594 L 110.996094 211.914062 L 111.609375 211.09375 C 110.21875 210.070312 108.953125 209.335938 107.785156 208.863281 C 106.621094 208.386719 105.554688 208.160156 104.582031 208.160156 C 103.808594 208.160156 103.101562 208.304688 102.484375 208.574219 C 101.550781 208.984375 100.835938 209.675781 100.382812 210.476562 C 99.929688 211.28125 99.710938 212.191406 99.710938 213.101562 C 99.714844 214.613281 100.296875 216.164062 101.511719 217.261719 C 101.839844 217.554688 102.375 218.207031 102.980469 219.078125 C 104.050781 220.597656 105.382812 222.8125 106.765625 225.257812 C 108.84375 228.925781 111.039062 233.121094 112.707031 236.390625 C 113.546875 238.027344 114.257812 239.429688 114.753906 240.425781 C 115.003906 240.921875 115.195312 241.320312 115.332031 241.589844 C 115.464844 241.863281 115.535156 242.007812 115.535156 242.007812 L 116.457031 241.554688 L 115.484375 241.867188 C 117.523438 248.25 120.582031 252.945312 123.949219 256.058594 C 127.324219 259.167969 131 260.714844 134.300781 260.71875 C 134.398438 260.71875 134.5 260.71875 134.597656 260.714844 L 134.570312 259.695312 L 134.570312 260.714844 C 136.210938 260.714844 137.859375 260.730469 139.511719 260.730469 C 140.292969 260.730469 141.078125 260.726562 141.859375 260.71875 C 144.632812 260.691406 147.042969 259.847656 149.117188 258.488281 C 151.191406 257.128906 152.9375 255.265625 154.503906 253.164062 C 157.691406 248.878906 159.347656 243.890625 160.210938 238.777344 C 161.066406 233.660156 161.144531 228.402344 161.144531 223.527344 L 161.144531 208.210938 C 161.136719 205.316406 158.789062 202.964844 155.894531 202.957031 L 155.894531 205.003906 C 156.777344 205.003906 157.574219 205.363281 158.152344 205.945312 C 158.742188 206.535156 159.097656 207.328125 159.097656 208.210938 L 159.097656 223.527344 C 159.097656 228.378906 159.019531 233.527344 158.195312 238.4375 C 157.363281 243.351562 155.796875 248.003906 152.867188 251.9375 C 151.386719 253.925781 149.792969 255.605469 147.996094 256.78125 C 146.199219 257.953125 144.214844 258.636719 141.839844 258.671875 C 141.0625 258.683594 140.289062 258.683594 139.511719 258.683594 C 137.871094 258.683594 136.222656 258.671875 134.570312 258.671875 L 134.300781 258.671875 C 131.65625 258.679688 128.40625 257.398438 125.335938 254.554688 C 122.269531 251.71875 119.378906 247.339844 117.429688 241.246094 L 117.371094 241.105469 C 117.367188 241.101562 114.683594 235.621094 111.550781 229.734375 C 109.976562 226.792969 108.300781 223.746094 106.78125 221.226562 C 106.027344 219.964844 105.308594 218.828125 104.65625 217.898438 C 104 216.964844 103.429688 216.246094 102.875 215.738281 C 102.144531 215.085938 101.753906 214.082031 101.757812 213.101562 C 101.753906 212.316406 102.007812 211.578125 102.460938 211.066406 C 102.6875 210.8125 102.964844 210.605469 103.304688 210.449219 C 103.648438 210.304688 104.0625 210.207031 104.582031 210.207031 C 105.230469 210.207031 106.042969 210.363281 107.011719 210.753906 C 107.984375 211.152344 109.113281 211.792969 110.386719 212.738281 C 110.480469 212.808594 110.589844 212.859375 110.699219 212.894531 L 110.898438 212.226562 L 110.582031 212.847656 C 110.589844 212.855469 110.628906 212.871094 110.699219 212.894531 L 110.898438 212.226562 L 110.582031 212.847656 L 110.589844 212.835938 L 110.582031 212.847656 L 110.589844 212.835938 L 110.582031 212.847656 C 110.601562 212.859375 110.96875 213.085938 111.761719 213.886719 C 112.5625 214.6875 113.808594 216.0625 115.664062 218.363281 C 115.933594 218.695312 116.394531 218.828125 116.800781 218.683594 C 117.210938 218.535156 117.480469 218.140625 117.476562 217.710938 L 117.125 184.578125 L 116.105469 184.589844 L 117.125 184.589844 C 117.125 184.144531 117.222656 183.597656 117.40625 183.050781 C 117.679688 182.226562 118.160156 181.394531 118.707031 180.824219 C 118.984375 180.542969 119.273438 180.316406 119.542969 180.179688 C 119.820312 180.035156 120.074219 179.972656 120.328125 179.972656 L 122.792969 179.972656 C 123.125 179.972656 123.476562 180.085938 123.859375 180.347656 C 124.421875 180.726562 124.988281 181.4375 125.378906 182.238281 C 125.777344 183.035156 126 183.921875 126 184.589844 L 126 184.609375 L 126.351562 203.648438 C 126.355469 204.210938 126.816406 204.660156 127.382812 204.652344 C 127.941406 204.648438 128.394531 204.191406 128.394531 203.632812 C 128.394531 202.75 128.753906 201.953125 129.335938 201.367188 C 129.921875 200.777344 130.71875 200.421875 131.597656 200.421875 L 134.0625 200.421875 C 134.945312 200.421875 135.738281 200.777344 136.320312 201.367188 C 136.90625 201.953125 137.265625 202.75 137.265625 203.632812 L 137.265625 205.390625 C 137.265625 205.664062 137.375 205.929688 137.566406 206.117188 C 137.753906 206.308594 138.019531 206.417969 138.285156 206.417969 L 138.355469 206.417969 C 138.855469 206.417969 139.273438 206.054688 139.355469 205.566406 C 139.488281 204.808594 139.878906 204.140625 140.445312 203.660156 C 141.003906 203.175781 141.722656 202.890625 142.511719 202.890625 L 144.976562 202.890625 C 145.859375 202.890625 146.652344 203.246094 147.242188 203.835938 C 147.820312 204.417969 148.179688 205.21875 148.179688 206.101562 L 148.179688 206.898438 C 148.179688 207.304688 148.421875 207.675781 148.796875 207.835938 C 148.839844 207.855469 148.894531 207.882812 148.960938 207.910156 C 149.234375 208.039062 149.539062 208.039062 149.808594 207.917969 C 150.078125 207.796875 150.28125 207.566406 150.367188 207.285156 C 150.5625 206.625 150.972656 206.054688 151.515625 205.652344 C 152.050781 205.246094 152.710938 205.003906 153.429688 205.003906 L 155.898438 205.003906 L 155.898438 203.980469 " fill-opacity="1" fill-rule="nonzero"/></g><path fill="rgb(100%, 100%, 100%)" d="M 127.371094 201.246094 L 127.550781 218.617188 " fill-opacity="1" fill-rule="nonzero"/><path fill="rgb(12.548828%, 18.429565%, 35.289001%)" d="M 126.351562 201.25 L 126.523438 218.628906 C 126.53125 219.191406 126.996094 219.640625 127.5625 219.636719 C 128.125 219.636719 128.574219 219.167969 128.570312 218.605469 L 128.394531 201.234375 C 128.390625 200.667969 127.921875 200.214844 127.359375 200.21875 C 126.792969 200.226562 126.34375 200.691406 126.351562 201.25 " fill-opacity="1" fill-rule="nonzero"/><path fill="rgb(100%, 100%, 100%)" d="M 138.285156 203.714844 L 138.464844 219.320312 " fill-opacity="1" fill-rule="nonzero"/><path fill="rgb(12.548828%, 18.429565%, 35.289001%)" d="M 137.265625 203.726562 L 137.445312 219.332031 C 137.449219 219.894531 137.910156 220.351562 138.476562 220.34375 C 139.039062 220.339844 139.488281 219.871094 139.488281 219.308594 L 139.308594 203.703125 C 139.304688 203.136719 138.84375 202.679688 138.277344 202.6875 C 137.707031 202.691406 137.257812 203.160156 137.265625 203.726562 " fill-opacity="1" fill-rule="nonzero"/><path fill="rgb(100%, 100%, 100%)" d="M 149.203125 206.183594 L 149.382812 218.96875 " fill-opacity="1" fill-rule="nonzero"/><path fill="rgb(12.548828%, 18.429565%, 35.289001%)" d="M 148.179688 206.195312 L 148.359375 218.984375 C 148.363281 219.550781 148.828125 220 149.394531 219.992188 C 149.957031 219.980469 150.40625 219.519531 150.402344 218.957031 L 150.230469 206.164062 C 150.21875 205.597656 149.75 205.148438 149.1875 205.15625 C 148.621094 205.167969 148.171875 205.628906 148.179688 206.195312 " fill-opacity="1" fill-rule="nonzero"/><g fill="rgb(1.959229%, 11.369324%, 25.099182%)" fill-opacity="1"><g transform="translate(194.789054, 186.312072)"><g><path d="M 10.203125 -28.4375 L 17.5 -7.8125 L 24.765625 -28.4375 L 32.46875 -28.4375 L 32.46875 0 L 26.578125 0 L 26.578125 -7.78125 L 27.171875 -21.1875 L 19.5 0 L 15.46875 0 L 7.8125 -21.171875 L 8.40625 -7.78125 L 8.40625 0 L 2.546875 0 L 2.546875 -28.4375 Z M 10.203125 -28.4375 "/></g></g></g><g fill="rgb(1.959229%, 11.369324%, 25.099182%)" fill-opacity="1"><g transform="translate(229.824693, 186.312072)"><g><path d="M 8.40625 -4.703125 L 20.84375 -4.703125 L 20.84375 0 L 2.546875 0 L 2.546875 -28.4375 L 8.40625 -28.4375 Z M 8.40625 -4.703125 "/></g></g></g><g fill="rgb(1.959229%, 11.369324%, 25.099182%)" fill-opacity="1"><g transform="translate(251.482738, 186.312072)"><g><path d="M 14.421875 0 C 14.160156 -0.507812 13.96875 -1.140625 13.84375 -1.890625 C 12.476562 -0.367188 10.703125 0.390625 8.515625 0.390625 C 6.441406 0.390625 4.722656 -0.207031 3.359375 -1.40625 C 2.003906 -2.601562 1.328125 -4.113281 1.328125 -5.9375 C 1.328125 -8.175781 2.15625 -9.894531 3.8125 -11.09375 C 5.476562 -12.289062 7.878906 -12.894531 11.015625 -12.90625 L 13.609375 -12.90625 L 13.609375 -14.125 C 13.609375 -15.101562 13.359375 -15.882812 12.859375 -16.46875 C 12.359375 -17.050781 11.566406 -17.34375 10.484375 -17.34375 C 9.535156 -17.34375 8.789062 -17.113281 8.25 -16.65625 C 7.707031 -16.207031 7.4375 -15.582031 7.4375 -14.78125 L 1.796875 -14.78125 C 1.796875 -16.007812 2.171875 -17.144531 2.921875 -18.1875 C 3.679688 -19.226562 4.75 -20.046875 6.125 -20.640625 C 7.507812 -21.234375 9.0625 -21.53125 10.78125 -21.53125 C 13.382812 -21.53125 15.453125 -20.875 16.984375 -19.5625 C 18.515625 -18.25 19.28125 -16.410156 19.28125 -14.046875 L 19.28125 -4.890625 C 19.289062 -2.878906 19.570312 -1.359375 20.125 -0.328125 L 20.125 0 Z M 9.75 -3.921875 C 10.582031 -3.921875 11.347656 -4.109375 12.046875 -4.484375 C 12.753906 -4.859375 13.273438 -5.359375 13.609375 -5.984375 L 13.609375 -9.609375 L 11.5 -9.609375 C 8.675781 -9.609375 7.175781 -8.632812 7 -6.6875 L 6.96875 -6.34375 C 6.96875 -5.644531 7.210938 -5.066406 7.703125 -4.609375 C 8.203125 -4.148438 8.882812 -3.921875 9.75 -3.921875 Z M 9.75 -3.921875 "/></g></g></g><g fill="rgb(1.959229%, 11.369324%, 25.099182%)" fill-opacity="1"><g transform="translate(272.925956, 186.312072)"><g><path d="M 14.421875 0 C 14.160156 -0.507812 13.96875 -1.140625 13.84375 -1.890625 C 12.476562 -0.367188 10.703125 0.390625 8.515625 0.390625 C 6.441406 0.390625 4.722656 -0.207031 3.359375 -1.40625 C 2.003906 -2.601562 1.328125 -4.113281 1.328125 -5.9375 C 1.328125 -8.175781 2.15625 -9.894531 3.8125 -11.09375 C 5.476562 -12.289062 7.878906 -12.894531 11.015625 -12.90625 L 13.609375 -12.90625 L 13.609375 -14.125 C 13.609375 -15.101562 13.359375 -15.882812 12.859375 -16.46875 C 12.359375 -17.050781 11.566406 -17.34375 10.484375 -17.34375 C 9.535156 -17.34375 8.789062 -17.113281 8.25 -16.65625 C 7.707031 -16.207031 7.4375 -15.582031 7.4375 -14.78125 L 1.796875 -14.78125 C 1.796875 -16.007812 2.171875 -17.144531 2.921875 -18.1875 C 3.679688 -19.226562 4.75 -20.046875 6.125 -20.640625 C 7.507812 -21.234375 9.0625 -21.53125 10.78125 -21.53125 C 13.382812 -21.53125 15.453125 -20.875 16.984375 -19.5625 C 18.515625 -18.25 19.28125 -16.410156 19.28125 -14.046875 L 19.28125 -4.890625 C 19.289062 -2.878906 19.570312 -1.359375 20.125 -0.328125 L 20.125 0 Z M 9.75 -3.921875 C 10.582031 -3.921875 11.347656 -4.109375 12.046875 -4.484375 C 12.753906 -4.859375 13.273438 -5.359375 13.609375 -5.984375 L 13.609375 -9.609375 L 11.5 -9.609375 C 8.675781 -9.609375 7.175781 -8.632812 7 -6.6875 L 6.96875 -6.34375 C 6.96875 -5.644531 7.210938 -5.066406 7.703125 -4.609375 C 8.203125 -4.148438 8.882812 -3.921875 9.75 -3.921875 Z M 9.75 -3.921875 "/></g></g></g><g fill="rgb(1.959229%, 11.369324%, 25.099182%)" fill-opacity="1"><g transform="translate(294.369173, 186.312072)"><g><path d="M 17.28125 -7.46875 C 17.28125 -8.570312 16.890625 -9.421875 16.109375 -10.015625 C 15.328125 -10.609375 13.921875 -11.234375 11.890625 -11.890625 C 9.859375 -12.546875 8.253906 -13.191406 7.078125 -13.828125 C 3.847656 -15.578125 2.234375 -17.925781 2.234375 -20.875 C 2.234375 -22.414062 2.664062 -23.785156 3.53125 -24.984375 C 4.394531 -26.191406 5.632812 -27.132812 7.25 -27.8125 C 8.875 -28.488281 10.695312 -28.828125 12.71875 -28.828125 C 14.75 -28.828125 16.554688 -28.457031 18.140625 -27.71875 C 19.734375 -26.988281 20.96875 -25.953125 21.84375 -24.609375 C 22.726562 -23.265625 23.171875 -21.742188 23.171875 -20.046875 L 17.3125 -20.046875 C 17.3125 -21.347656 16.898438 -22.359375 16.078125 -23.078125 C 15.253906 -23.796875 14.101562 -24.15625 12.625 -24.15625 C 11.1875 -24.15625 10.070312 -23.851562 9.28125 -23.25 C 8.488281 -22.644531 8.09375 -21.847656 8.09375 -20.859375 C 8.09375 -19.929688 8.554688 -19.15625 9.484375 -18.53125 C 10.410156 -17.90625 11.78125 -17.320312 13.59375 -16.78125 C 16.925781 -15.78125 19.351562 -14.535156 20.875 -13.046875 C 22.40625 -11.566406 23.171875 -9.71875 23.171875 -7.5 C 23.171875 -5.039062 22.238281 -3.109375 20.375 -1.703125 C 18.507812 -0.304688 16.003906 0.390625 12.859375 0.390625 C 10.671875 0.390625 8.675781 -0.0078125 6.875 -0.8125 C 5.082031 -1.613281 3.710938 -2.707031 2.765625 -4.09375 C 1.816406 -5.488281 1.34375 -7.109375 1.34375 -8.953125 L 7.234375 -8.953125 C 7.234375 -5.804688 9.109375 -4.234375 12.859375 -4.234375 C 14.242188 -4.234375 15.328125 -4.515625 16.109375 -5.078125 C 16.890625 -5.648438 17.28125 -6.445312 17.28125 -7.46875 Z M 17.28125 -7.46875 "/></g></g></g><g fill="rgb(1.959229%, 11.369324%, 25.099182%)" fill-opacity="1"><g transform="translate(166.506526, 212.762036)"><g><path d="M 3.671875 -12.796875 L 7.84375 -2.359375 L 12.03125 -12.796875 L 14.21875 -12.796875 L 14.21875 0 L 12.53125 0 L 12.53125 -4.984375 L 12.6875 -10.359375 L 8.484375 0 L 7.203125 0 L 3 -10.34375 L 3.171875 -4.984375 L 3.171875 0 L 1.484375 0 L 1.484375 -12.796875 Z M 3.671875 -12.796875 "/></g></g><g transform="translate(182.221369, 212.762036)"><g><path d="M 3 0 L 1.375 0 L 1.375 -9.515625 L 3 -9.515625 Z M 1.234375 -12.03125 C 1.234375 -12.289062 1.3125 -12.507812 1.46875 -12.6875 C 1.632812 -12.875 1.875 -12.96875 2.1875 -12.96875 C 2.507812 -12.96875 2.753906 -12.875 2.921875 -12.6875 C 3.085938 -12.507812 3.171875 -12.289062 3.171875 -12.03125 C 3.171875 -11.769531 3.085938 -11.550781 2.921875 -11.375 C 2.753906 -11.195312 2.507812 -11.109375 2.1875 -11.109375 C 1.875 -11.109375 1.632812 -11.195312 1.46875 -11.375 C 1.3125 -11.550781 1.234375 -11.769531 1.234375 -12.03125 Z M 1.234375 -12.03125 "/></g></g><g transform="translate(186.589533, 212.762036)"><g><path d="M 5.046875 -1.15625 C 5.628906 -1.15625 6.132812 -1.328125 6.5625 -1.671875 C 7 -2.023438 7.238281 -2.46875 7.28125 -3 L 8.828125 -3 C 8.796875 -2.457031 8.609375 -1.9375 8.265625 -1.4375 C 7.921875 -0.945312 7.457031 -0.554688 6.875 -0.265625 C 6.300781 0.0234375 5.691406 0.171875 5.046875 0.171875 C 3.753906 0.171875 2.722656 -0.257812 1.953125 -1.125 C 1.191406 -1.988281 0.8125 -3.171875 0.8125 -4.671875 L 0.8125 -4.9375 C 0.8125 -5.863281 0.976562 -6.6875 1.3125 -7.40625 C 1.65625 -8.125 2.144531 -8.679688 2.78125 -9.078125 C 3.414062 -9.484375 4.164062 -9.6875 5.03125 -9.6875 C 6.101562 -9.6875 6.988281 -9.363281 7.6875 -8.71875 C 8.394531 -8.082031 8.773438 -7.253906 8.828125 -6.234375 L 7.28125 -6.234375 C 7.238281 -6.847656 7.003906 -7.351562 6.578125 -7.75 C 6.160156 -8.144531 5.644531 -8.34375 5.03125 -8.34375 C 4.207031 -8.34375 3.566406 -8.046875 3.109375 -7.453125 C 2.660156 -6.859375 2.4375 -6 2.4375 -4.875 L 2.4375 -4.578125 C 2.4375 -3.472656 2.660156 -2.625 3.109375 -2.03125 C 3.554688 -1.445312 4.203125 -1.15625 5.046875 -1.15625 Z M 5.046875 -1.15625 "/></g></g><g transform="translate(196.011407, 212.762036)"><g><path d="M 5.828125 -8.046875 C 5.578125 -8.085938 5.3125 -8.109375 5.03125 -8.109375 C 3.957031 -8.109375 3.234375 -7.65625 2.859375 -6.75 L 2.859375 0 L 1.234375 0 L 1.234375 -9.515625 L 2.8125 -9.515625 L 2.84375 -8.40625 C 3.375 -9.257812 4.128906 -9.6875 5.109375 -9.6875 C 5.421875 -9.6875 5.660156 -9.644531 5.828125 -9.5625 Z M 5.828125 -8.046875 "/></g></g><g transform="translate(202.102227, 212.762036)"><g><path d="M 0.796875 -4.84375 C 0.796875 -5.769531 0.976562 -6.601562 1.34375 -7.34375 C 1.71875 -8.09375 2.226562 -8.671875 2.875 -9.078125 C 3.53125 -9.484375 4.273438 -9.6875 5.109375 -9.6875 C 6.410156 -9.6875 7.457031 -9.238281 8.25 -8.34375 C 9.050781 -7.445312 9.453125 -6.253906 9.453125 -4.765625 L 9.453125 -4.65625 C 9.453125 -3.726562 9.273438 -2.894531 8.921875 -2.15625 C 8.566406 -1.425781 8.0625 -0.851562 7.40625 -0.4375 C 6.75 -0.03125 5.992188 0.171875 5.140625 0.171875 C 3.847656 0.171875 2.800781 -0.273438 2 -1.171875 C 1.195312 -2.066406 0.796875 -3.253906 0.796875 -4.734375 Z M 2.4375 -4.65625 C 2.4375 -3.59375 2.679688 -2.742188 3.171875 -2.109375 C 3.660156 -1.472656 4.316406 -1.15625 5.140625 -1.15625 C 5.960938 -1.15625 6.613281 -1.476562 7.09375 -2.125 C 7.582031 -2.769531 7.828125 -3.675781 7.828125 -4.84375 C 7.828125 -5.882812 7.578125 -6.726562 7.078125 -7.375 C 6.585938 -8.019531 5.929688 -8.34375 5.109375 -8.34375 C 4.304688 -8.34375 3.660156 -8.023438 3.171875 -7.390625 C 2.679688 -6.753906 2.4375 -5.84375 2.4375 -4.65625 Z M 2.4375 -4.65625 "/></g></g><g transform="translate(212.367852, 212.762036)"><g/></g><g transform="translate(216.823906, 212.762036)"><g><path d="M 3.1875 -1.375 L 9.25 -1.375 L 9.25 0 L 1.484375 0 L 1.484375 -12.796875 L 3.1875 -12.796875 Z M 3.1875 -1.375 "/></g></g><g transform="translate(226.509452, 212.762036)"><g><path d="M 5.171875 0.171875 C 3.890625 0.171875 2.84375 -0.25 2.03125 -1.09375 C 1.21875 -1.9375 0.8125 -3.066406 0.8125 -4.484375 L 0.8125 -4.796875 C 0.8125 -5.734375 0.992188 -6.570312 1.359375 -7.3125 C 1.722656 -8.050781 2.226562 -8.628906 2.875 -9.046875 C 3.519531 -9.472656 4.21875 -9.6875 4.96875 -9.6875 C 6.207031 -9.6875 7.171875 -9.28125 7.859375 -8.46875 C 8.546875 -7.65625 8.890625 -6.488281 8.890625 -4.96875 L 8.890625 -4.296875 L 2.4375 -4.296875 C 2.46875 -3.359375 2.742188 -2.597656 3.265625 -2.015625 C 3.785156 -1.441406 4.453125 -1.15625 5.265625 -1.15625 C 5.835938 -1.15625 6.320312 -1.269531 6.71875 -1.5 C 7.125 -1.738281 7.472656 -2.050781 7.765625 -2.4375 L 8.765625 -1.65625 C 7.960938 -0.4375 6.765625 0.171875 5.171875 0.171875 Z M 4.96875 -8.34375 C 4.3125 -8.34375 3.757812 -8.101562 3.3125 -7.625 C 2.875 -7.15625 2.601562 -6.488281 2.5 -5.625 L 7.265625 -5.625 L 7.265625 -5.75 C 7.210938 -6.570312 6.988281 -7.207031 6.59375 -7.65625 C 6.195312 -8.113281 5.65625 -8.34375 4.96875 -8.34375 Z M 4.96875 -8.34375 "/></g></g><g transform="translate(236.045584, 212.762036)"><g><path d="M 7.109375 0 C 7.015625 -0.1875 6.9375 -0.519531 6.875 -1 C 6.113281 -0.21875 5.210938 0.171875 4.171875 0.171875 C 3.234375 0.171875 2.460938 -0.09375 1.859375 -0.625 C 1.253906 -1.15625 0.953125 -1.828125 0.953125 -2.640625 C 0.953125 -3.628906 1.328125 -4.394531 2.078125 -4.9375 C 2.835938 -5.488281 3.898438 -5.765625 5.265625 -5.765625 L 6.84375 -5.765625 L 6.84375 -6.515625 C 6.84375 -7.078125 6.671875 -7.523438 6.328125 -7.859375 C 5.992188 -8.203125 5.492188 -8.375 4.828125 -8.375 C 4.253906 -8.375 3.769531 -8.226562 3.375 -7.9375 C 2.976562 -7.644531 2.78125 -7.289062 2.78125 -6.875 L 1.15625 -6.875 C 1.15625 -7.34375 1.320312 -7.796875 1.65625 -8.234375 C 1.988281 -8.679688 2.441406 -9.035156 3.015625 -9.296875 C 3.597656 -9.554688 4.238281 -9.6875 4.9375 -9.6875 C 6.03125 -9.6875 6.882812 -9.410156 7.5 -8.859375 C 8.125 -8.316406 8.445312 -7.5625 8.46875 -6.59375 L 8.46875 -2.21875 C 8.46875 -1.351562 8.582031 -0.660156 8.8125 -0.140625 L 8.8125 0 Z M 4.40625 -1.234375 C 4.914062 -1.234375 5.398438 -1.363281 5.859375 -1.625 C 6.316406 -1.894531 6.644531 -2.238281 6.84375 -2.65625 L 6.84375 -4.609375 L 5.578125 -4.609375 C 3.578125 -4.609375 2.578125 -4.023438 2.578125 -2.859375 C 2.578125 -2.347656 2.75 -1.945312 3.09375 -1.65625 C 3.4375 -1.375 3.875 -1.234375 4.40625 -1.234375 Z M 4.40625 -1.234375 "/></g></g><g transform="translate(245.836599, 212.762036)"><g><path d="M 5.828125 -8.046875 C 5.578125 -8.085938 5.3125 -8.109375 5.03125 -8.109375 C 3.957031 -8.109375 3.234375 -7.65625 2.859375 -6.75 L 2.859375 0 L 1.234375 0 L 1.234375 -9.515625 L 2.8125 -9.515625 L 2.84375 -8.40625 C 3.375 -9.257812 4.128906 -9.6875 5.109375 -9.6875 C 5.421875 -9.6875 5.660156 -9.644531 5.828125 -9.5625 Z M 5.828125 -8.046875 "/></g></g><g transform="translate(251.927419, 212.762036)"><g><path d="M 2.765625 -9.515625 L 2.828125 -8.3125 C 3.546875 -9.226562 4.492188 -9.6875 5.671875 -9.6875 C 7.679688 -9.6875 8.691406 -8.550781 8.703125 -6.28125 L 8.703125 0 L 7.078125 0 L 7.078125 -6.296875 C 7.078125 -6.984375 6.921875 -7.488281 6.609375 -7.8125 C 6.304688 -8.144531 5.828125 -8.3125 5.171875 -8.3125 C 4.648438 -8.3125 4.1875 -8.171875 3.78125 -7.890625 C 3.382812 -7.609375 3.078125 -7.238281 2.859375 -6.78125 L 2.859375 0 L 1.234375 0 L 1.234375 -9.515625 Z M 2.765625 -9.515625 "/></g></g><g transform="translate(261.859059, 212.762036)"><g><path d="M 3 0 L 1.375 0 L 1.375 -9.515625 L 3 -9.515625 Z M 1.234375 -12.03125 C 1.234375 -12.289062 1.3125 -12.507812 1.46875 -12.6875 C 1.632812 -12.875 1.875 -12.96875 2.1875 -12.96875 C 2.507812 -12.96875 2.753906 -12.875 2.921875 -12.6875 C 3.085938 -12.507812 3.171875 -12.289062 3.171875 -12.03125 C 3.171875 -11.769531 3.085938 -11.550781 2.921875 -11.375 C 2.753906 -11.195312 2.507812 -11.109375 2.1875 -11.109375 C 1.875 -11.109375 1.632812 -11.195312 1.46875 -11.375 C 1.3125 -11.550781 1.234375 -11.769531 1.234375 -12.03125 Z M 1.234375 -12.03125 "/></g></g><g transform="translate(266.227223, 212.762036)"><g><path d="M 2.765625 -9.515625 L 2.828125 -8.3125 C 3.546875 -9.226562 4.492188 -9.6875 5.671875 -9.6875 C 7.679688 -9.6875 8.691406 -8.550781 8.703125 -6.28125 L 8.703125 0 L 7.078125 0 L 7.078125 -6.296875 C 7.078125 -6.984375 6.921875 -7.488281 6.609375 -7.8125 C 6.304688 -8.144531 5.828125 -8.3125 5.171875 -8.3125 C 4.648438 -8.3125 4.1875 -8.171875 3.78125 -7.890625 C 3.382812 -7.609375 3.078125 -7.238281 2.859375 -6.78125 L 2.859375 0 L 1.234375 0 L 1.234375 -9.515625 Z M 2.765625 -9.515625 "/></g></g><g transform="translate(276.158863, 212.762036)"><g><path d="M 0.84375 -4.828125 C 0.84375 -6.316406 1.1875 -7.5 1.875 -8.375 C 2.5625 -9.25 3.46875 -9.6875 4.59375 -9.6875 C 5.757812 -9.6875 6.664062 -9.273438 7.3125 -8.453125 L 7.390625 -9.515625 L 8.875 -9.515625 L 8.875 -0.234375 C 8.875 1.003906 8.507812 1.976562 7.78125 2.6875 C 7.050781 3.394531 6.070312 3.75 4.84375 3.75 C 4.15625 3.75 3.484375 3.597656 2.828125 3.296875 C 2.171875 3.003906 1.671875 2.601562 1.328125 2.09375 L 2.171875 1.125 C 2.867188 1.988281 3.722656 2.421875 4.734375 2.421875 C 5.523438 2.421875 6.140625 2.195312 6.578125 1.75 C 7.023438 1.300781 7.25 0.675781 7.25 -0.125 L 7.25 -0.953125 C 6.59375 -0.203125 5.703125 0.171875 4.578125 0.171875 C 3.460938 0.171875 2.5625 -0.273438 1.875 -1.171875 C 1.1875 -2.066406 0.84375 -3.285156 0.84375 -4.828125 Z M 2.484375 -4.65625 C 2.484375 -3.582031 2.703125 -2.738281 3.140625 -2.125 C 3.578125 -1.507812 4.191406 -1.203125 4.984375 -1.203125 C 6.003906 -1.203125 6.757812 -1.671875 7.25 -2.609375 L 7.25 -6.9375 C 6.75 -7.851562 6 -8.3125 5 -8.3125 C 4.207031 -8.3125 3.585938 -8 3.140625 -7.375 C 2.703125 -6.757812 2.484375 -5.851562 2.484375 -4.65625 Z M 2.484375 -4.65625 "/></g></g><g transform="translate(286.257495, 212.762036)"><g/></g><g transform="translate(290.71355, 212.762036)"><g><path d="M 5.25 -5.703125 C 3.800781 -6.117188 2.75 -6.628906 2.09375 -7.234375 C 1.4375 -7.835938 1.109375 -8.585938 1.109375 -9.484375 C 1.109375 -10.492188 1.507812 -11.328125 2.3125 -11.984375 C 3.125 -12.640625 4.171875 -12.96875 5.453125 -12.96875 C 6.335938 -12.96875 7.125 -12.796875 7.8125 -12.453125 C 8.5 -12.117188 9.03125 -11.648438 9.40625 -11.046875 C 9.78125 -10.453125 9.96875 -9.800781 9.96875 -9.09375 L 8.28125 -9.09375 C 8.28125 -9.863281 8.03125 -10.46875 7.53125 -10.90625 C 7.039062 -11.351562 6.347656 -11.578125 5.453125 -11.578125 C 4.617188 -11.578125 3.96875 -11.394531 3.5 -11.03125 C 3.039062 -10.664062 2.8125 -10.160156 2.8125 -9.515625 C 2.8125 -8.992188 3.03125 -8.550781 3.46875 -8.1875 C 3.914062 -7.820312 4.671875 -7.488281 5.734375 -7.1875 C 6.796875 -6.894531 7.625 -6.566406 8.21875 -6.203125 C 8.820312 -5.847656 9.269531 -5.429688 9.5625 -4.953125 C 9.851562 -4.472656 10 -3.90625 10 -3.25 C 10 -2.21875 9.59375 -1.390625 8.78125 -0.765625 C 7.976562 -0.140625 6.898438 0.171875 5.546875 0.171875 C 4.671875 0.171875 3.847656 0.00390625 3.078125 -0.328125 C 2.316406 -0.660156 1.726562 -1.117188 1.3125 -1.703125 C 0.90625 -2.296875 0.703125 -2.960938 0.703125 -3.703125 L 2.40625 -3.703125 C 2.40625 -2.929688 2.6875 -2.320312 3.25 -1.875 C 3.820312 -1.425781 4.585938 -1.203125 5.546875 -1.203125 C 6.429688 -1.203125 7.113281 -1.382812 7.59375 -1.75 C 8.070312 -2.113281 8.3125 -2.609375 8.3125 -3.234375 C 8.3125 -3.859375 8.085938 -4.34375 7.640625 -4.6875 C 7.203125 -5.03125 6.40625 -5.367188 5.25 -5.703125 Z M 5.25 -5.703125 "/></g></g><g transform="translate(301.39226, 212.762036)"><g><path d="M 3.4375 -11.8125 L 3.4375 -9.515625 L 5.21875 -9.515625 L 5.21875 -8.25 L 3.4375 -8.25 L 3.4375 -2.359375 C 3.4375 -1.972656 3.515625 -1.6875 3.671875 -1.5 C 3.828125 -1.3125 4.097656 -1.21875 4.484375 -1.21875 C 4.671875 -1.21875 4.925781 -1.25 5.25 -1.3125 L 5.25 0 C 4.820312 0.113281 4.410156 0.171875 4.015625 0.171875 C 3.285156 0.171875 2.734375 -0.046875 2.359375 -0.484375 C 1.992188 -0.921875 1.8125 -1.546875 1.8125 -2.359375 L 1.8125 -8.25 L 0.078125 -8.25 L 0.078125 -9.515625 L 1.8125 -9.515625 L 1.8125 -11.8125 Z M 3.4375 -11.8125 "/></g></g><g transform="translate(307.272142, 212.762036)"><g><path d="M 5.828125 -8.046875 C 5.578125 -8.085938 5.3125 -8.109375 5.03125 -8.109375 C 3.957031 -8.109375 3.234375 -7.65625 2.859375 -6.75 L 2.859375 0 L 1.234375 0 L 1.234375 -9.515625 L 2.8125 -9.515625 L 2.84375 -8.40625 C 3.375 -9.257812 4.128906 -9.6875 5.109375 -9.6875 C 5.421875 -9.6875 5.660156 -9.644531 5.828125 -9.5625 Z M 5.828125 -8.046875 "/></g></g><g transform="translate(313.362962, 212.762036)"><g><path d="M 7.109375 0 C 7.015625 -0.1875 6.9375 -0.519531 6.875 -1 C 6.113281 -0.21875 5.210938 0.171875 4.171875 0.171875 C 3.234375 0.171875 2.460938 -0.09375 1.859375 -0.625 C 1.253906 -1.15625 0.953125 -1.828125 0.953125 -2.640625 C 0.953125 -3.628906 1.328125 -4.394531 2.078125 -4.9375 C 2.835938 -5.488281 3.898438 -5.765625 5.265625 -5.765625 L 6.84375 -5.765625 L 6.84375 -6.515625 C 6.84375 -7.078125 6.671875 -7.523438 6.328125 -7.859375 C 5.992188 -8.203125 5.492188 -8.375 4.828125 -8.375 C 4.253906 -8.375 3.769531 -8.226562 3.375 -7.9375 C 2.976562 -7.644531 2.78125 -7.289062 2.78125 -6.875 L 1.15625 -6.875 C 1.15625 -7.34375 1.320312 -7.796875 1.65625 -8.234375 C 1.988281 -8.679688 2.441406 -9.035156 3.015625 -9.296875 C 3.597656 -9.554688 4.238281 -9.6875 4.9375 -9.6875 C 6.03125 -9.6875 6.882812 -9.410156 7.5 -8.859375 C 8.125 -8.316406 8.445312 -7.5625 8.46875 -6.59375 L 8.46875 -2.21875 C 8.46875 -1.351562 8.582031 -0.660156 8.8125 -0.140625 L 8.8125 0 Z M 4.40625 -1.234375 C 4.914062 -1.234375 5.398438 -1.363281 5.859375 -1.625 C 6.316406 -1.894531 6.644531 -2.238281 6.84375 -2.65625 L 6.84375 -4.609375 L 5.578125 -4.609375 C 3.578125 -4.609375 2.578125 -4.023438 2.578125 -2.859375 C 2.578125 -2.347656 2.75 -1.945312 3.09375 -1.65625 C 3.4375 -1.375 3.875 -1.234375 4.40625 -1.234375 Z M 4.40625 -1.234375 "/></g></g><g transform="translate(323.153977, 212.762036)"><g><path d="M 3.4375 -11.8125 L 3.4375 -9.515625 L 5.21875 -9.515625 L 5.21875 -8.25 L 3.4375 -8.25 L 3.4375 -2.359375 C 3.4375 -1.972656 3.515625 -1.6875 3.671875 -1.5 C 3.828125 -1.3125 4.097656 -1.21875 4.484375 -1.21875 C 4.671875 -1.21875 4.925781 -1.25 5.25 -1.3125 L 5.25 0 C 4.820312 0.113281 4.410156 0.171875 4.015625 0.171875 C 3.285156 0.171875 2.734375 -0.046875 2.359375 -0.484375 C 1.992188 -0.921875 1.8125 -1.546875 1.8125 -2.359375 L 1.8125 -8.25 L 0.078125 -8.25 L 0.078125 -9.515625 L 1.8125 -9.515625 L 1.8125 -11.8125 Z M 3.4375 -11.8125 "/></g></g><g transform="translate(329.03386, 212.762036)"><g><path d="M 5.171875 0.171875 C 3.890625 0.171875 2.84375 -0.25 2.03125 -1.09375 C 1.21875 -1.9375 0.8125 -3.066406 0.8125 -4.484375 L 0.8125 -4.796875 C 0.8125 -5.734375 0.992188 -6.570312 1.359375 -7.3125 C 1.722656 -8.050781 2.226562 -8.628906 2.875 -9.046875 C 3.519531 -9.472656 4.21875 -9.6875 4.96875 -9.6875 C 6.207031 -9.6875 7.171875 -9.28125 7.859375 -8.46875 C 8.546875 -7.65625 8.890625 -6.488281 8.890625 -4.96875 L 8.890625 -4.296875 L 2.4375 -4.296875 C 2.46875 -3.359375 2.742188 -2.597656 3.265625 -2.015625 C 3.785156 -1.441406 4.453125 -1.15625 5.265625 -1.15625 C 5.835938 -1.15625 6.320312 -1.269531 6.71875 -1.5 C 7.125 -1.738281 7.472656 -2.050781 7.765625 -2.4375 L 8.765625 -1.65625 C 7.960938 -0.4375 6.765625 0.171875 5.171875 0.171875 Z M 4.96875 -8.34375 C 4.3125 -8.34375 3.757812 -8.101562 3.3125 -7.625 C 2.875 -7.15625 2.601562 -6.488281 2.5 -5.625 L 7.265625 -5.625 L 7.265625 -5.75 C 7.210938 -6.570312 6.988281 -7.207031 6.59375 -7.65625 C 6.195312 -8.113281 5.65625 -8.34375 4.96875 -8.34375 Z M 4.96875 -8.34375 "/></g></g><g transform="translate(338.569992, 212.762036)"><g><path d="M 0.84375 -4.828125 C 0.84375 -6.316406 1.1875 -7.5 1.875 -8.375 C 2.5625 -9.25 3.46875 -9.6875 4.59375 -9.6875 C 5.757812 -9.6875 6.664062 -9.273438 7.3125 -8.453125 L 7.390625 -9.515625 L 8.875 -9.515625 L 8.875 -0.234375 C 8.875 1.003906 8.507812 1.976562 7.78125 2.6875 C 7.050781 3.394531 6.070312 3.75 4.84375 3.75 C 4.15625 3.75 3.484375 3.597656 2.828125 3.296875 C 2.171875 3.003906 1.671875 2.601562 1.328125 2.09375 L 2.171875 1.125 C 2.867188 1.988281 3.722656 2.421875 4.734375 2.421875 C 5.523438 2.421875 6.140625 2.195312 6.578125 1.75 C 7.023438 1.300781 7.25 0.675781 7.25 -0.125 L 7.25 -0.953125 C 6.59375 -0.203125 5.703125 0.171875 4.578125 0.171875 C 3.460938 0.171875 2.5625 -0.273438 1.875 -1.171875 C 1.1875 -2.066406 0.84375 -3.285156 0.84375 -4.828125 Z M 2.484375 -4.65625 C 2.484375 -3.582031 2.703125 -2.738281 3.140625 -2.125 C 3.578125 -1.507812 4.191406 -1.203125 4.984375 -1.203125 C 6.003906 -1.203125 6.757812 -1.671875 7.25 -2.609375 L 7.25 -6.9375 C 6.75 -7.851562 6 -8.3125 5 -8.3125 C 4.207031 -8.3125 3.585938 -8 3.140625 -7.375 C 2.703125 -6.757812 2.484375 -5.851562 2.484375 -4.65625 Z M 2.484375 -4.65625 "/></g></g><g transform="translate(348.668624, 212.762036)"><g><path d="M 4.34375 -2.375 L 6.5625 -9.515625 L 8.296875 -9.515625 L 4.46875 1.46875 C 3.882812 3.050781 2.945312 3.84375 1.65625 3.84375 L 1.34375 3.8125 L 0.734375 3.703125 L 0.734375 2.375 L 1.171875 2.421875 C 1.722656 2.421875 2.148438 2.304688 2.453125 2.078125 C 2.765625 1.859375 3.019531 1.453125 3.21875 0.859375 L 3.59375 -0.109375 L 0.1875 -9.515625 L 1.96875 -9.515625 Z M 4.34375 -2.375 "/></g></g></g></svg>