<svg xmlns="http://www.w3.org/2000/svg" xmlns:xlink="http://www.w3.org/1999/xlink" width="500" zoomAndPan="magnify" viewBox="0 0 375 374.999991" height="500" preserveAspectRatio="xMidYMid meet" version="1.0"><defs><clipPath id="id1"><path d="M 64 8.546875 L 281 8.546875 L 281 362 L 64 362 Z M 64 8.546875 " clip-rule="nonzero"/></clipPath><clipPath id="id2"><path d="M 37.5 73 L 163 73 L 163 244 L 37.5 244 Z M 37.5 73 " clip-rule="nonzero"/></clipPath><clipPath id="id3"><path d="M 189 163 L 340.5 163 L 340.5 366.296875 L 189 366.296875 Z M 189 163 " clip-rule="nonzero"/></clipPath></defs><path fill="rgb(67.059326%, 89.019775%, 97.648621%)" d="M 246.097656 359.046875 L 93.09375 347.140625 C 83.476562 347.140625 75.621094 339.269531 75.621094 329.660156 L 67.679688 36.449219 C 67.679688 26.835938 83.476562 11.332031 93.09375 11.332031 L 260.339844 11.332031 C 269.960938 11.332031 277.828125 19.203125 277.828125 28.816406 L 277.828125 329.660156 C 277.828125 339.265625 255.714844 359.046875 246.097656 359.046875 " fill-opacity="1" fill-rule="nonzero"/><g clip-path="url(#id1)"><path fill="rgb(12.548828%, 18.429565%, 35.289001%)" d="M 246.097656 359.046875 L 246.324219 356.292969 L 93.304688 344.402344 L 93.09375 344.386719 C 89.046875 344.386719 85.378906 342.738281 82.699219 340.058594 C 80.019531 337.378906 78.371094 333.710938 78.371094 329.660156 L 78.371094 329.589844 L 70.429688 36.378906 L 67.679688 36.449219 L 70.429688 36.449219 C 70.417969 34.800781 71.191406 32.402344 72.6875 29.847656 C 74.886719 26.035156 78.597656 21.933594 82.515625 18.925781 C 84.460938 17.417969 86.464844 16.171875 88.3125 15.335938 C 90.160156 14.492188 91.835938 14.078125 93.09375 14.089844 L 260.34375 14.089844 C 264.390625 14.089844 268.054688 15.738281 270.734375 18.414062 C 273.414062 21.097656 275.0625 24.769531 275.0625 28.816406 L 275.0625 329.660156 C 275.078125 330.324219 274.851562 331.367188 274.316406 332.59375 C 273.398438 334.765625 271.609375 337.460938 269.296875 340.171875 C 265.828125 344.246094 261.214844 348.394531 256.816406 351.441406 C 254.617188 352.980469 252.457031 354.222656 250.570312 355.066406 C 248.695312 355.898438 247.058594 356.292969 246.097656 356.292969 L 246.097656 359.046875 L 246.324219 356.292969 L 246.097656 359.046875 L 246.097656 361.796875 C 247.777344 361.796875 249.457031 361.386719 251.175781 360.765625 C 254.195312 359.652344 257.410156 357.789062 260.636719 355.492188 C 265.476562 352.046875 270.296875 347.605469 274.035156 343.105469 C 275.894531 340.847656 277.476562 338.578125 278.632812 336.347656 C 279.789062 334.117188 280.5625 331.933594 280.578125 329.660156 L 280.578125 28.816406 C 280.5625 17.664062 271.496094 8.589844 260.34375 8.578125 L 93.09375 8.578125 C 89.949219 8.59375 86.804688 9.769531 83.699219 11.511719 C 79.074219 14.136719 74.535156 18.160156 71.039062 22.5625 C 69.273438 24.773438 67.792969 27.078125 66.707031 29.394531 C 65.636719 31.722656 64.945312 34.078125 64.929688 36.449219 L 64.929688 36.535156 L 72.855469 329.730469 L 75.621094 329.660156 L 72.855469 329.660156 C 72.871094 340.804688 81.9375 349.890625 93.09375 349.902344 L 93.09375 347.140625 L 92.882812 349.890625 L 245.886719 361.796875 L 246.097656 361.796875 L 246.097656 359.046875 " fill-opacity="1" fill-rule="nonzero"/></g><path fill="rgb(100%, 100%, 100%)" d="M 239.78125 360.355469 L 84.574219 360.355469 C 75.28125 360.355469 67.679688 352.753906 67.679688 343.457031 L 67.679688 41.457031 C 67.679688 32.160156 75.28125 24.554688 84.574219 24.554688 L 239.78125 24.554688 C 249.074219 24.554688 256.675781 32.160156 256.675781 41.457031 L 256.675781 343.457031 C 256.675781 352.753906 249.074219 360.355469 239.78125 360.355469 " fill-opacity="1" fill-rule="nonzero"/><path fill="rgb(12.548828%, 18.429565%, 35.289001%)" d="M 239.78125 360.355469 L 239.78125 357.734375 L 84.574219 357.734375 C 80.65625 357.734375 77.101562 356.140625 74.507812 353.542969 C 71.910156 350.933594 70.304688 347.378906 70.304688 343.457031 L 70.304688 41.457031 C 70.304688 37.535156 71.910156 33.980469 74.507812 31.371094 C 77.101562 28.777344 80.65625 27.179688 84.574219 27.179688 L 239.78125 27.179688 C 243.703125 27.179688 247.253906 28.777344 249.851562 31.371094 C 252.445312 33.980469 254.050781 37.535156 254.050781 41.457031 L 254.050781 343.457031 C 254.050781 347.378906 252.445312 350.933594 249.851562 353.542969 C 247.253906 356.140625 243.703125 357.734375 239.78125 357.734375 L 239.78125 362.996094 C 250.539062 362.980469 259.296875 354.222656 259.296875 343.457031 L 259.296875 41.457031 C 259.296875 30.695312 250.539062 21.933594 239.78125 21.925781 L 84.574219 21.925781 C 73.828125 21.933594 65.070312 30.695312 65.058594 41.457031 L 65.058594 343.457031 C 65.070312 354.222656 73.828125 362.980469 84.574219 362.996094 L 239.78125 362.996094 L 239.78125 360.359375 " fill-opacity="1" fill-rule="nonzero"/><path fill="rgb(85.099792%, 94.898987%, 98.81897%)" d="M 239.78125 360.355469 L 239.78125 357.734375 L 84.574219 357.734375 C 80.65625 357.734375 77.101562 356.140625 74.507812 353.542969 C 71.910156 350.933594 70.304688 347.378906 70.304688 343.457031 L 70.304688 42.445312 C 73.039062 48.792969 76.027344 54.929688 79.101562 60.742188 C 96.503906 93.738281 120.183594 123.925781 146.214844 150.546875 C 176.308594 181.300781 212.988281 207.863281 251.699219 226.539062 C 252.472656 226.921875 253.261719 227.289062 254.050781 227.652344 L 254.050781 343.457031 C 254.050781 347.378906 252.445312 350.933594 249.851562 353.542969 C 247.253906 356.140625 243.703125 357.734375 239.78125 357.734375 L 239.78125 360.355469 " fill-opacity="1" fill-rule="nonzero"/><path fill="rgb(0%, 0%, 0%)" d="M 239.78125 360.355469 L 239.78125 357.734375 C 243.703125 357.734375 247.253906 356.140625 249.851562 353.542969 C 252.445312 350.933594 254.050781 347.378906 254.050781 343.457031 L 254.050781 227.652344 C 254.925781 228.0625 255.800781 228.472656 256.675781 228.867188 L 256.675781 343.457031 C 256.675781 352.753906 249.074219 360.359375 239.78125 360.359375 L 84.574219 360.359375 C 75.28125 360.359375 67.679688 352.753906 67.679688 343.457031 L 67.679688 41.457031 C 67.679688 40.046875 67.878906 38.679688 68.214844 37.367188 C 68.894531 39.074219 69.585938 40.765625 70.304688 42.445312 L 70.304688 343.457031 C 70.304688 347.378906 71.910156 350.933594 74.507812 353.542969 C 77.101562 356.140625 80.65625 357.734375 84.574219 357.734375 L 239.78125 357.734375 L 239.78125 360.355469 " fill-opacity="1" fill-rule="nonzero"/><path fill="rgb(100%, 100%, 100%)" d="M 67.679688 296.113281 L 67.679688 343.457031 C 67.679688 352.753906 75.28125 360.355469 84.574219 360.355469 L 239.78125 360.355469 C 249.074219 360.355469 256.675781 352.753906 256.675781 343.457031 L 256.675781 296.113281 L 67.679688 296.113281 " fill-opacity="1" fill-rule="nonzero"/><path fill="rgb(12.548828%, 18.429565%, 35.289001%)" d="M 67.679688 296.113281 L 65.058594 296.113281 L 65.058594 343.457031 C 65.070312 354.222656 73.828125 362.980469 84.574219 362.996094 L 239.78125 362.996094 C 250.539062 362.980469 259.296875 354.222656 259.296875 343.457031 L 259.296875 296.113281 C 259.296875 295.421875 259.015625 294.746094 258.535156 294.253906 C 258.042969 293.773438 257.367188 293.492188 256.675781 293.492188 L 67.679688 293.492188 C 66.988281 293.492188 66.3125 293.773438 65.820312 294.253906 C 65.339844 294.746094 65.058594 295.421875 65.058594 296.113281 L 67.679688 296.113281 L 67.679688 298.738281 L 254.050781 298.738281 L 254.050781 343.457031 C 254.050781 347.378906 252.445312 350.933594 249.851562 353.542969 C 247.253906 356.140625 243.703125 357.734375 239.78125 357.734375 L 84.574219 357.734375 C 80.65625 357.734375 77.101562 356.140625 74.507812 353.542969 C 71.910156 350.933594 70.304688 347.378906 70.304688 343.457031 L 70.304688 296.113281 L 67.679688 296.113281 L 67.679688 298.738281 L 67.679688 296.113281 " fill-opacity="1" fill-rule="nonzero"/><path fill="rgb(67.059326%, 89.019775%, 97.648621%)" d="M 173.980469 325.839844 C 173.980469 333.34375 167.890625 339.421875 160.402344 339.421875 C 152.898438 339.421875 146.820312 333.34375 146.820312 325.839844 C 146.820312 318.332031 152.898438 312.265625 160.402344 312.265625 C 167.890625 312.265625 173.980469 318.332031 173.980469 325.839844 " fill-opacity="1" fill-rule="nonzero"/><path fill="rgb(12.548828%, 18.429565%, 35.289001%)" d="M 173.980469 325.839844 L 171.21875 325.839844 C 171.21875 328.84375 170.019531 331.523438 168.058594 333.496094 C 166.085938 335.457031 163.390625 336.671875 160.402344 336.671875 C 157.398438 336.671875 154.71875 335.457031 152.742188 333.496094 C 150.785156 331.523438 149.585938 328.84375 149.585938 325.839844 C 149.585938 322.847656 150.785156 320.152344 152.742188 318.191406 C 154.71875 316.21875 157.398438 315.019531 160.402344 315.019531 C 163.390625 315.019531 166.085938 316.21875 168.058594 318.191406 C 170.019531 320.152344 171.21875 322.847656 171.21875 325.839844 L 176.730469 325.839844 C 176.730469 316.824219 169.425781 309.503906 160.402344 309.503906 C 151.375 309.503906 144.070312 316.824219 144.070312 325.839844 C 144.070312 334.867188 151.375 342.171875 160.402344 342.171875 C 169.425781 342.171875 176.730469 334.867188 176.730469 325.839844 L 173.980469 325.839844 " fill-opacity="1" fill-rule="nonzero"/><path fill="rgb(100%, 100%, 100%)" d="M 160.332031 241 C 127.132812 207.792969 73.320312 207.792969 40.125 241 L 40.125 100.863281 C 73.320312 67.652344 127.132812 67.652344 160.332031 100.863281 L 160.332031 241 " fill-opacity="1" fill-rule="nonzero"/><g clip-path="url(#id2)"><path fill="rgb(12.548828%, 18.429565%, 35.289001%)" d="M 160.332031 241 L 161.996094 239.335938 C 144.945312 222.28125 122.578125 213.746094 100.226562 213.746094 C 77.875 213.746094 55.511719 222.28125 38.460938 239.335938 L 40.125 241 L 42.464844 241 L 42.464844 100.863281 L 40.125 100.863281 L 41.789062 102.527344 C 57.921875 86.375 79.074219 78.304688 100.226562 78.304688 C 121.382812 78.304688 142.535156 86.375 158.667969 102.527344 L 160.332031 100.863281 L 157.976562 100.863281 L 157.976562 241 L 160.332031 241 L 161.996094 239.335938 L 160.332031 241 L 162.6875 241 L 162.6875 100.863281 C 162.6875 100.242188 162.445312 99.648438 161.996094 99.195312 C 144.945312 82.140625 122.578125 73.605469 100.226562 73.605469 C 77.875 73.605469 55.511719 82.140625 38.460938 99.195312 C 38.023438 99.632812 37.769531 100.242188 37.769531 100.863281 L 37.769531 241 C 37.769531 241.957031 38.347656 242.804688 39.222656 243.171875 C 40.097656 243.539062 41.113281 243.339844 41.789062 242.664062 C 57.921875 226.511719 79.074219 218.457031 100.226562 218.441406 C 121.382812 218.457031 142.535156 226.511719 158.667969 242.664062 C 159.34375 243.339844 160.359375 243.539062 161.234375 243.171875 C 162.109375 242.804688 162.6875 241.957031 162.6875 241 L 160.332031 241 " fill-opacity="1" fill-rule="nonzero"/></g><path fill="rgb(100%, 100%, 100%)" d="M 280.550781 241 C 247.355469 207.792969 193.527344 207.792969 160.332031 241 L 160.332031 100.863281 C 193.527344 67.652344 247.355469 67.652344 280.550781 100.863281 L 280.550781 241 " fill-opacity="1" fill-rule="nonzero"/><path fill="rgb(12.548828%, 18.429565%, 35.289001%)" d="M 280.550781 241 L 282.214844 239.335938 C 265.164062 222.28125 242.785156 213.746094 220.449219 213.746094 C 198.097656 213.746094 175.714844 222.28125 158.667969 239.335938 L 160.332031 241 L 162.6875 241 L 162.6875 100.863281 L 160.332031 100.863281 L 161.996094 102.527344 C 178.140625 86.375 199.28125 78.304688 220.449219 78.304688 C 241.601562 78.304688 262.738281 86.375 278.886719 102.527344 L 280.550781 100.863281 L 278.195312 100.863281 L 278.195312 241 L 280.550781 241 L 282.214844 239.335938 L 280.550781 241 L 282.890625 241 L 282.890625 100.863281 C 282.890625 100.242188 282.652344 99.648438 282.214844 99.195312 C 265.164062 82.140625 242.785156 73.605469 220.449219 73.605469 C 198.09375 73.605469 175.714844 82.140625 158.667969 99.195312 C 158.230469 99.632812 157.976562 100.242188 157.976562 100.863281 L 157.976562 241 C 157.976562 241.957031 158.554688 242.804688 159.429688 243.171875 C 160.316406 243.539062 161.316406 243.339844 161.996094 242.664062 C 178.140625 226.511719 199.28125 218.457031 220.449219 218.441406 C 241.601562 218.457031 262.738281 226.511719 278.886719 242.664062 C 279.546875 243.339844 280.5625 243.539062 281.453125 243.171875 C 282.328125 242.804688 282.890625 241.957031 282.890625 241 L 280.550781 241 " fill-opacity="1" fill-rule="nonzero"/><path fill="rgb(12.548828%, 18.429565%, 35.289001%)" d="M 179.296875 109.578125 C 179.636719 109.367188 197.152344 99.480469 220.898438 99.507812 C 233.914062 99.507812 248.777344 102.425781 263.9375 111.457031 C 265.082031 112.132812 266.5625 111.765625 267.238281 110.625 C 267.914062 109.480469 267.546875 108 266.40625 107.324219 C 250.429688 97.800781 234.621094 94.683594 220.898438 94.695312 C 195.417969 94.710938 177.097656 105.304688 176.886719 105.417969 C 175.746094 106.082031 175.347656 107.546875 176.011719 108.707031 C 176.675781 109.847656 178.140625 110.242188 179.296875 109.578125 " fill-opacity="1" fill-rule="nonzero"/><path fill="rgb(12.548828%, 18.429565%, 35.289001%)" d="M 179.296875 128.523438 L 179.296875 128.511719 C 179.636719 128.3125 197.152344 118.425781 220.898438 118.4375 C 233.902344 118.453125 248.777344 121.359375 263.9375 130.402344 C 265.082031 131.078125 266.5625 130.699219 267.238281 129.554688 C 267.914062 128.425781 267.546875 126.945312 266.40625 126.269531 C 250.429688 116.730469 234.621094 113.628906 220.898438 113.628906 C 195.417969 113.640625 177.097656 124.238281 176.886719 124.351562 C 175.746094 125.011719 175.347656 126.492188 176.011719 127.636719 C 176.675781 128.792969 178.140625 129.1875 179.296875 128.523438 " fill-opacity="1" fill-rule="nonzero"/><path fill="rgb(12.548828%, 18.429565%, 35.289001%)" d="M 179.296875 147.457031 C 179.636719 147.246094 197.152344 137.371094 220.898438 137.371094 C 233.914062 137.382812 248.777344 140.304688 263.9375 149.332031 C 265.082031 150.011719 266.5625 149.644531 267.238281 148.5 C 267.914062 147.359375 267.546875 145.875 266.40625 145.199219 C 250.429688 135.675781 234.621094 132.558594 220.898438 132.558594 C 195.417969 132.589844 177.097656 143.183594 176.886719 143.296875 C 175.746094 143.957031 175.347656 145.425781 176.011719 146.582031 C 176.675781 147.726562 178.140625 148.121094 179.296875 147.457031 " fill-opacity="1" fill-rule="nonzero"/><path fill="rgb(12.548828%, 18.429565%, 35.289001%)" d="M 179.296875 166.386719 C 179.636719 166.191406 197.152344 156.300781 220.898438 156.316406 C 233.902344 156.316406 248.777344 159.234375 263.9375 168.277344 C 265.082031 168.957031 266.5625 168.574219 267.238281 167.433594 C 267.914062 166.289062 267.546875 164.820312 266.40625 164.144531 C 250.429688 154.609375 234.621094 151.503906 220.898438 151.503906 C 195.417969 151.519531 177.097656 162.128906 176.886719 162.226562 C 175.746094 162.890625 175.347656 164.371094 176.011719 165.511719 C 176.675781 166.671875 178.140625 167.066406 179.296875 166.386719 " fill-opacity="1" fill-rule="nonzero"/><path fill="rgb(12.548828%, 18.429565%, 35.289001%)" d="M 179.296875 185.332031 C 179.636719 185.121094 197.152344 175.234375 220.898438 175.261719 C 233.902344 175.261719 248.777344 178.179688 263.9375 187.210938 C 265.082031 187.886719 266.5625 187.519531 267.238281 186.378906 C 267.914062 185.234375 267.546875 183.753906 266.40625 183.078125 C 250.429688 173.554688 234.621094 170.4375 220.898438 170.4375 C 195.417969 170.464844 177.097656 181.058594 176.886719 181.171875 C 175.746094 181.835938 175.347656 183.300781 176.011719 184.445312 C 176.675781 185.601562 178.140625 185.996094 179.296875 185.332031 " fill-opacity="1" fill-rule="nonzero"/><path fill="rgb(12.548828%, 18.429565%, 35.289001%)" d="M 179.296875 204.265625 C 179.636719 204.054688 197.152344 194.179688 220.898438 194.191406 C 233.914062 194.191406 248.777344 197.113281 263.9375 206.140625 C 265.082031 206.832031 266.5625 206.453125 267.238281 205.308594 C 267.914062 204.167969 267.546875 202.683594 266.40625 202.007812 C 250.429688 192.484375 234.621094 189.382812 220.898438 189.382812 C 195.417969 189.394531 177.097656 199.992188 176.886719 200.101562 C 175.746094 200.765625 175.347656 202.234375 176.011719 203.390625 C 176.675781 204.546875 178.140625 204.929688 179.296875 204.277344 " fill-opacity="1" fill-rule="nonzero"/><path fill="rgb(12.548828%, 18.429565%, 35.289001%)" d="M 58.34375 106.433594 L 58.34375 106.417969 C 58.699219 106.207031 76.199219 96.332031 99.960938 96.347656 C 112.960938 96.347656 127.824219 99.269531 143 108.296875 C 144.140625 108.972656 145.621094 108.605469 146.300781 107.464844 C 146.976562 106.320312 146.609375 104.839844 145.46875 104.164062 C 129.488281 94.640625 113.679688 91.523438 99.960938 91.535156 C 74.464844 91.550781 56.160156 102.144531 55.949219 102.257812 C 54.792969 102.921875 54.398438 104.386719 55.058594 105.546875 C 55.722656 106.703125 57.203125 107.082031 58.34375 106.433594 " fill-opacity="1" fill-rule="nonzero"/><path fill="rgb(12.548828%, 18.429565%, 35.289001%)" d="M 58.34375 125.367188 C 58.699219 125.152344 76.199219 115.265625 99.960938 115.277344 C 112.960938 115.292969 127.824219 118.199219 143 127.242188 C 144.140625 127.917969 145.621094 127.539062 146.300781 126.410156 C 146.976562 125.265625 146.609375 123.785156 145.46875 123.109375 C 129.488281 113.585938 113.679688 110.46875 99.960938 110.46875 C 74.464844 110.484375 56.160156 121.089844 55.949219 121.191406 C 54.792969 121.867188 54.398438 123.332031 55.058594 124.492188 C 55.722656 125.632812 57.203125 126.027344 58.34375 125.367188 " fill-opacity="1" fill-rule="nonzero"/><path fill="rgb(12.548828%, 18.429565%, 35.289001%)" d="M 58.34375 144.296875 C 58.699219 144.097656 76.199219 134.210938 99.960938 134.222656 C 112.960938 134.222656 127.824219 137.144531 143 146.1875 C 144.140625 146.863281 145.621094 146.484375 146.300781 145.339844 C 146.976562 144.199219 146.609375 142.730469 145.46875 142.054688 C 129.488281 132.515625 113.679688 129.414062 99.960938 129.414062 C 74.464844 129.429688 56.160156 140.023438 55.949219 140.136719 C 54.792969 140.796875 54.398438 142.265625 55.058594 143.421875 C 55.722656 144.566406 57.203125 144.960938 58.34375 144.296875 " fill-opacity="1" fill-rule="nonzero"/><path fill="rgb(12.548828%, 18.429565%, 35.289001%)" d="M 58.34375 163.242188 C 58.699219 163.03125 76.199219 153.140625 99.960938 153.15625 C 112.960938 153.15625 127.824219 156.074219 143 165.117188 C 144.140625 165.796875 145.621094 165.429688 146.300781 164.285156 C 146.976562 163.144531 146.609375 161.664062 145.46875 160.984375 C 129.488281 151.464844 113.679688 148.34375 99.960938 148.34375 C 74.464844 148.359375 56.160156 158.96875 55.949219 159.066406 C 54.792969 159.742188 54.398438 161.210938 55.058594 162.355469 C 55.722656 163.511719 57.203125 163.90625 58.34375 163.242188 " fill-opacity="1" fill-rule="nonzero"/><path fill="rgb(12.548828%, 18.429565%, 35.289001%)" d="M 58.34375 182.171875 C 58.699219 181.960938 76.199219 172.074219 99.960938 172.101562 C 112.960938 172.101562 127.824219 175.023438 143 184.050781 C 144.140625 184.726562 145.621094 184.359375 146.300781 183.21875 C 146.976562 182.074219 146.609375 180.59375 145.46875 179.917969 C 129.488281 170.394531 113.679688 167.277344 99.960938 167.289062 C 74.464844 167.304688 56.160156 177.898438 55.949219 178.011719 C 54.792969 178.675781 54.398438 180.140625 55.058594 181.300781 C 55.722656 182.441406 57.203125 182.835938 58.34375 182.171875 " fill-opacity="1" fill-rule="nonzero"/><path fill="rgb(12.548828%, 18.429565%, 35.289001%)" d="M 58.34375 201.121094 L 58.34375 201.105469 C 58.699219 200.90625 76.199219 191.019531 99.960938 191.03125 C 112.960938 191.03125 127.824219 193.953125 143 202.996094 C 144.140625 203.671875 145.621094 203.292969 146.300781 202.164062 C 146.976562 201.019531 146.609375 199.539062 145.46875 198.863281 C 129.488281 189.339844 113.679688 186.222656 99.960938 186.222656 C 74.464844 186.238281 56.160156 196.84375 55.949219 196.945312 C 54.792969 197.605469 54.398438 199.085938 55.058594 200.230469 C 55.722656 201.386719 57.203125 201.78125 58.34375 201.121094 " fill-opacity="1" fill-rule="nonzero"/><path fill="rgb(100%, 100%, 100%)" d="M 327.398438 227.472656 L 321.359375 227.472656 C 316.707031 227.472656 312.757812 230.589844 311.460938 234.820312 C 311.304688 234.75 311.164062 234.679688 311.011719 234.609375 L 311.011719 232.664062 C 311.011719 226.964844 306.355469 222.308594 300.660156 222.308594 L 294.625 222.308594 C 289.519531 222.308594 285.261719 226.046875 284.441406 230.925781 L 284.273438 230.925781 L 284.273438 226.625 C 284.273438 220.925781 279.621094 216.269531 273.9375 216.269531 L 267.902344 216.269531 C 262.203125 216.269531 257.550781 220.925781 257.550781 226.625 L 256.691406 180.042969 C 256.691406 174.34375 252.035156 166.234375 246.339844 166.234375 L 240.304688 166.234375 C 234.621094 166.234375 229.964844 174.34375 229.964844 180.042969 L 230.828125 261.074219 C 220.039062 247.671875 217.457031 246.882812 217.457031 246.882812 C 194.175781 229.644531 187.28125 250.339844 195.894531 258.097656 C 204.527344 265.871094 230.828125 319.390625 230.828125 319.390625 C 240.738281 350.382812 260.566406 364.179688 275.175781 363.757812 C 281.113281 363.757812 287.066406 363.828125 293.003906 363.757812 C 305.609375 363.617188 314.523438 356.292969 321.980469 346.277344 C 336.984375 326.191406 337.734375 299.089844 337.734375 275.292969 L 337.734375 237.824219 C 337.734375 232.140625 333.078125 227.472656 327.398438 227.472656 " fill-opacity="1" fill-rule="nonzero"/><g clip-path="url(#id3)"><path fill="rgb(12.548828%, 18.429565%, 35.289001%)" d="M 327.398438 227.472656 L 327.398438 224.972656 L 321.359375 224.972656 C 318.46875 224.972656 315.789062 225.945312 313.648438 227.554688 C 311.503906 229.175781 309.882812 231.449219 309.0625 234.085938 L 311.460938 234.820312 L 312.492188 232.535156 C 312.363281 232.480469 312.207031 232.40625 312.011719 232.324219 L 311.011719 234.609375 L 313.519531 234.609375 L 313.519531 232.664062 C 313.507812 225.566406 307.753906 219.8125 300.660156 219.796875 L 294.625 219.796875 C 291.449219 219.796875 288.53125 220.96875 286.304688 222.886719 C 284.0625 224.804688 282.480469 227.472656 281.972656 230.503906 L 284.441406 230.925781 L 284.441406 228.429688 L 284.273438 228.429688 L 284.273438 230.925781 L 286.78125 230.925781 L 286.78125 226.625 C 286.769531 219.527344 281.015625 213.773438 273.9375 213.757812 L 267.902344 213.757812 C 260.808594 213.773438 255.054688 219.527344 255.054688 226.625 L 257.550781 226.625 L 260.058594 226.566406 L 259.199219 179.988281 L 256.691406 180.042969 L 259.199219 180.042969 C 259.183594 178.28125 258.847656 176.460938 258.242188 174.683594 C 257.339844 172.015625 255.886719 169.433594 253.925781 167.375 C 252.9375 166.347656 251.824219 165.457031 250.554688 164.792969 C 249.300781 164.144531 247.863281 163.734375 246.339844 163.734375 L 240.304688 163.734375 C 238.273438 163.734375 236.425781 164.46875 234.875 165.527344 C 232.546875 167.148438 230.769531 169.503906 229.488281 172.058594 C 228.230469 174.625 227.46875 177.390625 227.457031 180.042969 L 227.457031 180.070312 L 228.316406 261.101562 L 230.828125 261.074219 L 232.773438 259.507812 C 227.34375 252.75 223.945312 249.125 221.816406 247.121094 C 220.742188 246.132812 219.996094 245.542969 219.445312 245.160156 C 218.894531 244.78125 218.542969 244.609375 218.191406 244.484375 L 217.457031 246.882812 L 218.953125 244.878906 C 215.554688 242.367188 212.453125 240.574219 209.589844 239.417969 C 206.742188 238.25 204.132812 237.699219 201.75 237.699219 C 199.859375 237.699219 198.125 238.050781 196.613281 238.714844 C 194.332031 239.714844 192.582031 241.410156 191.46875 243.371094 C 190.355469 245.332031 189.816406 247.558594 189.816406 249.789062 C 189.832031 253.484375 191.257812 257.277344 194.230469 259.957031 C 195.035156 260.679688 196.347656 262.273438 197.828125 264.402344 C 200.449219 268.125 203.707031 273.542969 207.09375 279.523438 C 212.183594 288.496094 217.554688 298.753906 221.644531 306.75 C 223.703125 310.757812 225.441406 314.1875 226.652344 316.625 C 227.273438 317.839844 227.738281 318.8125 228.078125 319.476562 C 228.402344 320.140625 228.570312 320.492188 228.570312 320.492188 L 230.828125 319.390625 L 228.441406 320.152344 C 233.433594 335.769531 240.921875 347.253906 249.171875 354.871094 C 257.4375 362.472656 266.433594 366.253906 274.515625 366.269531 C 274.753906 366.269531 275.007812 366.269531 275.246094 366.253906 L 275.175781 363.757812 L 275.175781 366.253906 C 279.195312 366.253906 283.230469 366.296875 287.277344 366.296875 C 289.195312 366.296875 291.113281 366.28125 293.03125 366.269531 C 299.8125 366.199219 305.722656 364.136719 310.796875 360.808594 C 315.875 357.480469 320.148438 352.921875 323.984375 347.789062 C 331.796875 337.308594 335.84375 325.105469 337.960938 312.589844 C 340.058594 300.078125 340.242188 287.214844 340.242188 275.292969 L 340.242188 237.824219 C 340.230469 230.742188 334.476562 224.988281 327.398438 224.972656 L 327.398438 229.980469 C 329.554688 229.980469 331.5 230.855469 332.925781 232.28125 C 334.363281 233.71875 335.238281 235.667969 335.238281 237.824219 L 335.238281 275.292969 C 335.238281 287.15625 335.039062 299.753906 333.023438 311.757812 C 330.992188 323.777344 327.15625 335.164062 319.980469 344.785156 C 316.355469 349.648438 312.449219 353.753906 308.050781 356.632812 C 303.648438 359.496094 298.796875 361.175781 292.972656 361.261719 C 291.070312 361.289062 289.179688 361.289062 287.277344 361.289062 C 283.257812 361.289062 279.222656 361.261719 275.175781 361.261719 L 274.515625 361.261719 C 268.042969 361.273438 260.089844 358.144531 252.570312 351.1875 C 245.054688 344.246094 237.976562 333.539062 233.210938 318.628906 L 233.070312 318.289062 C 233.054688 318.277344 226.484375 304.875 218.8125 290.472656 C 214.960938 283.277344 210.859375 275.828125 207.136719 269.664062 C 205.289062 266.574219 203.523438 263.796875 201.929688 261.523438 C 200.324219 259.238281 198.929688 257.476562 197.574219 256.234375 C 195.78125 254.640625 194.824219 252.1875 194.839844 249.789062 C 194.824219 247.871094 195.445312 246.0625 196.558594 244.808594 C 197.109375 244.1875 197.785156 243.679688 198.617188 243.296875 C 199.464844 242.945312 200.480469 242.707031 201.75 242.707031 C 203.34375 242.707031 205.332031 243.085938 207.699219 244.046875 C 210.082031 245.019531 212.847656 246.585938 215.964844 248.898438 C 216.1875 249.066406 216.457031 249.195312 216.722656 249.28125 L 217.21875 247.644531 L 216.441406 249.167969 C 216.457031 249.179688 216.554688 249.222656 216.722656 249.28125 L 217.21875 247.644531 L 216.441406 249.167969 L 216.457031 249.140625 L 216.441406 249.167969 L 216.457031 249.140625 L 216.441406 249.167969 C 216.484375 249.195312 217.386719 249.746094 219.332031 251.707031 C 221.292969 253.667969 224.339844 257.023438 228.878906 262.652344 C 229.542969 263.472656 230.671875 263.796875 231.671875 263.441406 C 232.675781 263.078125 233.335938 262.117188 233.324219 261.058594 L 232.460938 180.015625 L 229.964844 180.042969 L 232.460938 180.042969 C 232.460938 178.957031 232.703125 177.617188 233.152344 176.277344 C 233.816406 174.257812 235 172.226562 236.339844 170.832031 C 237.015625 170.140625 237.722656 169.589844 238.386719 169.25 C 239.0625 168.898438 239.683594 168.742188 240.304688 168.742188 L 246.339844 168.742188 C 247.15625 168.742188 248.015625 169.027344 248.949219 169.660156 C 250.328125 170.59375 251.710938 172.328125 252.671875 174.289062 C 253.644531 176.234375 254.195312 178.40625 254.195312 180.042969 L 254.195312 180.085938 L 255.054688 226.667969 C 255.066406 228.035156 256.195312 229.136719 257.578125 229.121094 C 258.945312 229.105469 260.058594 227.992188 260.058594 226.625 C 260.058594 224.464844 260.933594 222.519531 262.359375 221.082031 C 263.796875 219.640625 265.742188 218.765625 267.902344 218.765625 L 273.9375 218.765625 C 276.09375 218.765625 278.039062 219.640625 279.464844 221.082031 C 280.902344 222.519531 281.777344 224.464844 281.777344 226.625 L 281.777344 230.925781 C 281.777344 231.589844 282.042969 232.238281 282.511719 232.703125 C 282.976562 233.167969 283.625 233.4375 284.273438 233.4375 L 284.441406 233.4375 C 285.667969 233.4375 286.699219 232.550781 286.894531 231.351562 C 287.21875 229.503906 288.179688 227.867188 289.5625 226.695312 C 290.929688 225.511719 292.691406 224.804688 294.625 224.804688 L 300.660156 224.804688 C 302.816406 224.804688 304.761719 225.679688 306.203125 227.117188 C 307.625 228.542969 308.5 230.503906 308.5 232.660156 L 308.5 234.609375 C 308.5 235.609375 309.09375 236.511719 310.007812 236.90625 C 310.121094 236.949219 310.25 237.019531 310.417969 237.089844 C 311.082031 237.402344 311.828125 237.402344 312.492188 237.105469 C 313.152344 236.808594 313.648438 236.246094 313.859375 235.554688 C 314.339844 233.945312 315.339844 232.550781 316.664062 231.5625 C 317.976562 230.574219 319.597656 229.980469 321.359375 229.980469 L 327.398438 229.980469 L 327.398438 227.46875 " fill-opacity="1" fill-rule="nonzero"/></g><path fill="rgb(100%, 100%, 100%)" d="M 257.550781 220.785156 L 257.988281 263.273438 " fill-opacity="1" fill-rule="nonzero"/><path fill="rgb(12.548828%, 18.429565%, 35.289001%)" d="M 255.054688 220.796875 L 255.476562 263.300781 C 255.492188 264.683594 256.632812 265.785156 258.015625 265.769531 C 259.398438 265.769531 260.496094 264.628906 260.484375 263.246094 L 260.058594 220.757812 C 260.046875 219.375 258.902344 218.257812 257.519531 218.273438 C 256.140625 218.289062 255.039062 219.429688 255.054688 220.796875 " fill-opacity="1" fill-rule="nonzero"/><path fill="rgb(100%, 100%, 100%)" d="M 284.273438 226.820312 L 284.710938 264.996094 " fill-opacity="1" fill-rule="nonzero"/><path fill="rgb(12.548828%, 18.429565%, 35.289001%)" d="M 281.777344 226.851562 L 282.214844 265.023438 C 282.226562 266.40625 283.355469 267.519531 284.738281 267.507812 C 286.121094 267.492188 287.21875 266.347656 287.21875 264.96875 L 286.78125 226.792969 C 286.769531 225.410156 285.640625 224.296875 284.257812 224.3125 C 282.863281 224.324219 281.761719 225.46875 281.777344 226.851562 " fill-opacity="1" fill-rule="nonzero"/><path fill="rgb(100%, 100%, 100%)" d="M 311.011719 232.859375 L 311.449219 264.132812 " fill-opacity="1" fill-rule="nonzero"/><path fill="rgb(12.548828%, 18.429565%, 35.289001%)" d="M 308.5 232.886719 L 308.9375 264.175781 C 308.953125 265.558594 310.09375 266.660156 311.476562 266.644531 C 312.859375 266.617188 313.957031 265.488281 313.941406 264.105469 L 313.519531 232.816406 C 313.492188 231.433594 312.351562 230.335938 310.96875 230.347656 C 309.585938 230.375 308.484375 231.503906 308.5 232.886719 " fill-opacity="1" fill-rule="nonzero"/></svg>