<svg xmlns="http://www.w3.org/2000/svg" xmlns:xlink="http://www.w3.org/1999/xlink" width="500" zoomAndPan="magnify" viewBox="0 0 375 374.999991" height="500" preserveAspectRatio="xMidYMid meet" version="1.0"><defs><g/><clipPath id="id1"><path d="M 47 89.128906 L 128 89.128906 L 128 221 L 47 221 Z M 47 89.128906 " clip-rule="nonzero"/></clipPath><clipPath id="id2"><path d="M 37.5 113 L 84 113 L 84 177 L 37.5 177 Z M 37.5 113 " clip-rule="nonzero"/></clipPath><clipPath id="id3"><path d="M 94 146 L 150 146 L 150 221.878906 L 94 221.878906 Z M 94 146 " clip-rule="nonzero"/></clipPath></defs><path fill="rgb(85.099792%, 94.898987%, 98.81897%)" d="M 114.949219 219.1875 L 58.140625 214.769531 C 54.570312 214.769531 51.652344 211.851562 51.652344 208.285156 L 48.707031 99.484375 C 48.707031 95.917969 54.570312 90.164062 58.140625 90.164062 L 120.238281 90.164062 C 123.808594 90.164062 126.730469 93.085938 126.730469 96.652344 L 126.730469 208.285156 C 126.730469 211.851562 118.519531 219.1875 114.949219 219.1875 " fill-opacity="1" fill-rule="nonzero"/><g clip-path="url(#id1)"><path fill="rgb(89.7995%, 45.098877%, 45.098877%)" d="M 114.949219 219.1875 L 115.035156 218.167969 L 58.21875 213.753906 L 58.140625 213.75 C 56.636719 213.75 55.277344 213.136719 54.28125 212.144531 C 53.289062 211.148438 52.675781 209.789062 52.675781 208.285156 L 52.675781 208.257812 L 49.726562 99.457031 L 48.707031 99.484375 L 49.726562 99.484375 C 49.722656 98.871094 50.011719 97.980469 50.566406 97.035156 C 51.382812 95.621094 52.757812 94.097656 54.214844 92.980469 C 54.9375 92.421875 55.679688 91.960938 56.367188 91.648438 C 57.050781 91.335938 57.675781 91.183594 58.140625 91.1875 L 120.238281 91.1875 C 121.742188 91.1875 123.101562 91.796875 124.097656 92.792969 C 125.089844 93.789062 125.703125 95.148438 125.703125 96.652344 L 125.703125 208.285156 C 125.710938 208.53125 125.625 208.917969 125.425781 209.375 C 125.085938 210.179688 124.421875 211.179688 123.5625 212.183594 C 122.273438 213.699219 120.5625 215.238281 118.929688 216.367188 C 118.113281 216.9375 117.3125 217.398438 116.609375 217.714844 C 115.914062 218.023438 115.304688 218.167969 114.949219 218.167969 L 114.949219 219.1875 L 115.035156 218.167969 L 114.949219 219.1875 L 114.949219 220.210938 C 115.574219 220.210938 116.195312 220.058594 116.835938 219.828125 C 117.957031 219.414062 119.148438 218.722656 120.347656 217.871094 C 122.144531 216.59375 123.933594 214.945312 125.320312 213.273438 C 126.011719 212.4375 126.597656 211.59375 127.027344 210.765625 C 127.457031 209.941406 127.746094 209.128906 127.75 208.285156 L 127.75 96.652344 C 127.746094 92.511719 124.378906 89.144531 120.238281 89.140625 L 58.140625 89.140625 C 56.972656 89.148438 55.804688 89.582031 54.652344 90.230469 C 52.9375 91.203125 51.25 92.699219 49.953125 94.332031 C 49.296875 95.152344 48.75 96.007812 48.34375 96.867188 C 47.945312 97.730469 47.691406 98.605469 47.683594 99.484375 L 47.683594 99.515625 L 50.628906 208.3125 L 51.652344 208.285156 L 50.628906 208.285156 C 50.632812 212.421875 54 215.792969 58.140625 215.796875 L 58.140625 214.769531 L 58.0625 215.792969 L 114.871094 220.210938 L 114.949219 220.210938 L 114.949219 219.1875 " fill-opacity="1" fill-rule="nonzero"/></g><path fill="rgb(100%, 100%, 100%)" d="M 112.605469 219.675781 L 54.980469 219.675781 C 51.527344 219.675781 48.707031 216.855469 48.707031 213.40625 L 48.707031 101.34375 C 48.707031 97.894531 51.527344 95.070312 54.980469 95.070312 L 112.605469 95.070312 C 116.054688 95.070312 118.875 97.894531 118.875 101.34375 L 118.875 213.40625 C 118.875 216.855469 116.054688 219.675781 112.605469 219.675781 " fill-opacity="1" fill-rule="nonzero"/><path fill="rgb(89.7995%, 45.098877%, 45.098877%)" d="M 112.605469 219.675781 L 112.605469 218.703125 L 54.980469 218.703125 C 53.523438 218.703125 52.203125 218.109375 51.242188 217.148438 C 50.277344 216.179688 49.679688 214.859375 49.679688 213.40625 L 49.679688 101.34375 C 49.679688 99.886719 50.277344 98.566406 51.242188 97.597656 C 52.203125 96.636719 53.523438 96.042969 54.980469 96.042969 L 112.605469 96.042969 C 114.058594 96.042969 115.378906 96.636719 116.34375 97.597656 C 117.304688 98.566406 117.902344 99.886719 117.902344 101.34375 L 117.902344 213.40625 C 117.902344 214.859375 117.304688 216.179688 116.34375 217.148438 C 115.378906 218.109375 114.058594 218.703125 112.605469 218.703125 L 112.605469 220.65625 C 116.597656 220.648438 119.851562 217.398438 119.851562 213.40625 L 119.851562 101.34375 C 119.851562 97.347656 116.597656 94.097656 112.605469 94.09375 L 54.980469 94.09375 C 50.988281 94.097656 47.738281 97.347656 47.734375 101.34375 L 47.734375 213.40625 C 47.738281 217.398438 50.988281 220.648438 54.980469 220.65625 L 112.605469 220.65625 L 112.605469 219.675781 " fill-opacity="1" fill-rule="nonzero"/><path fill="rgb(85.099792%, 94.898987%, 98.81897%)" d="M 112.605469 219.675781 L 112.605469 218.703125 L 54.980469 218.703125 C 53.523438 218.703125 52.203125 218.109375 51.242188 217.148438 C 50.277344 216.179688 49.679688 214.859375 49.679688 213.40625 L 49.679688 101.707031 C 50.695312 104.0625 51.804688 106.339844 52.949219 108.5 C 59.410156 120.742188 68.199219 131.945312 77.863281 141.820312 C 89.039062 153.234375 102.65625 163.089844 117.027344 170.019531 C 117.316406 170.160156 117.609375 170.296875 117.902344 170.433594 L 117.902344 213.40625 C 117.902344 214.859375 117.304688 216.179688 116.34375 217.148438 C 115.378906 218.109375 114.058594 218.703125 112.605469 218.703125 L 112.605469 219.675781 " fill-opacity="1" fill-rule="nonzero"/><path fill="rgb(89.7995%, 45.098877%, 45.098877%)" d="M 112.605469 219.675781 L 112.605469 218.703125 C 114.058594 218.703125 115.378906 218.109375 116.34375 217.148438 C 117.304688 216.179688 117.902344 214.859375 117.902344 213.40625 L 117.902344 170.433594 C 118.226562 170.585938 118.550781 170.738281 118.875 170.882812 L 118.875 213.40625 C 118.875 216.855469 116.054688 219.675781 112.605469 219.675781 L 54.980469 219.675781 C 51.527344 219.675781 48.707031 216.855469 48.707031 213.40625 L 48.707031 101.34375 C 48.707031 100.820312 48.78125 100.3125 48.90625 99.824219 C 49.15625 100.457031 49.414062 101.085938 49.679688 101.707031 L 49.679688 213.40625 C 49.679688 214.859375 50.277344 216.179688 51.242188 217.148438 C 52.203125 218.109375 53.523438 218.703125 54.980469 218.703125 L 112.605469 218.703125 L 112.605469 219.675781 " fill-opacity="1" fill-rule="nonzero"/><path fill="rgb(100%, 100%, 100%)" d="M 48.707031 195.835938 L 48.707031 213.40625 C 48.707031 216.855469 51.527344 219.675781 54.980469 219.675781 L 112.605469 219.675781 C 116.054688 219.675781 118.875 216.855469 118.875 213.40625 L 118.875 195.835938 L 48.707031 195.835938 " fill-opacity="1" fill-rule="nonzero"/><path fill="rgb(89.7995%, 45.098877%, 45.098877%)" d="M 48.707031 195.835938 L 47.734375 195.835938 L 47.734375 213.40625 C 47.738281 217.398438 50.988281 220.648438 54.980469 220.65625 L 112.605469 220.65625 C 116.597656 220.648438 119.851562 217.398438 119.851562 213.40625 L 119.851562 195.835938 C 119.851562 195.582031 119.746094 195.328125 119.566406 195.148438 C 119.382812 194.96875 119.132812 194.863281 118.875 194.863281 L 48.707031 194.863281 C 48.449219 194.863281 48.199219 194.96875 48.015625 195.148438 C 47.835938 195.328125 47.734375 195.582031 47.734375 195.835938 L 48.707031 195.835938 L 48.707031 196.8125 L 117.902344 196.8125 L 117.902344 213.40625 C 117.902344 214.859375 117.304688 216.179688 116.34375 217.148438 C 115.378906 218.109375 114.058594 218.703125 112.605469 218.703125 L 54.980469 218.703125 C 53.523438 218.703125 52.203125 218.109375 51.242188 217.148438 C 50.277344 216.179688 49.679688 214.859375 49.679688 213.40625 L 49.679688 195.835938 L 48.707031 195.835938 L 48.707031 196.8125 L 48.707031 195.835938 " fill-opacity="1" fill-rule="nonzero"/><path fill="rgb(85.099792%, 94.898987%, 98.81897%)" d="M 88.175781 206.867188 C 88.175781 209.652344 85.910156 211.90625 83.132812 211.90625 C 80.347656 211.90625 78.089844 209.652344 78.089844 206.867188 C 78.089844 204.082031 80.347656 201.832031 83.132812 201.832031 C 85.910156 201.832031 88.175781 204.082031 88.175781 206.867188 " fill-opacity="1" fill-rule="nonzero"/><path fill="rgb(89.7995%, 45.098877%, 45.098877%)" d="M 88.175781 206.867188 L 87.148438 206.867188 C 87.148438 207.980469 86.703125 208.976562 85.976562 209.710938 C 85.242188 210.4375 84.242188 210.886719 83.132812 210.886719 C 82.015625 210.886719 81.023438 210.4375 80.289062 209.710938 C 79.5625 208.976562 79.117188 207.980469 79.117188 206.867188 C 79.117188 205.757812 79.5625 204.757812 80.289062 204.03125 C 81.023438 203.296875 82.015625 202.851562 83.132812 202.851562 C 84.242188 202.851562 85.242188 203.296875 85.976562 204.03125 C 86.703125 204.757812 87.148438 205.757812 87.148438 206.867188 L 89.195312 206.867188 C 89.195312 203.523438 86.484375 200.804688 83.132812 200.804688 C 79.78125 200.804688 77.070312 203.523438 77.070312 206.867188 C 77.070312 210.21875 79.78125 212.929688 83.132812 212.929688 C 86.484375 212.929688 89.195312 210.21875 89.195312 206.867188 L 88.175781 206.867188 " fill-opacity="1" fill-rule="nonzero"/><path fill="rgb(100%, 100%, 100%)" d="M 83.105469 175.386719 C 70.78125 163.0625 50.800781 163.0625 38.476562 175.386719 L 38.476562 123.386719 C 50.800781 111.0625 70.78125 111.0625 83.105469 123.386719 L 83.105469 175.386719 " fill-opacity="1" fill-rule="nonzero"/><g clip-path="url(#id2)"><path fill="rgb(89.7995%, 45.098877%, 45.098877%)" d="M 83.105469 175.386719 L 83.722656 174.769531 C 77.394531 168.441406 69.089844 165.273438 60.789062 165.273438 C 52.492188 165.273438 44.1875 168.441406 37.859375 174.769531 L 38.476562 175.386719 L 39.34375 175.386719 L 39.34375 123.386719 L 38.476562 123.386719 L 39.09375 124.003906 C 45.082031 118.007812 52.9375 115.015625 60.789062 115.015625 C 68.644531 115.015625 76.496094 118.007812 82.488281 124.003906 L 83.105469 123.386719 L 82.230469 123.386719 L 82.230469 175.386719 L 83.105469 175.386719 L 83.722656 174.769531 L 83.105469 175.386719 L 83.980469 175.386719 L 83.980469 123.386719 C 83.980469 123.15625 83.890625 122.933594 83.722656 122.769531 C 77.394531 116.4375 69.089844 113.273438 60.789062 113.273438 C 52.492188 113.273438 44.1875 116.4375 37.859375 122.769531 C 37.695312 122.929688 37.601562 123.15625 37.601562 123.386719 L 37.601562 175.386719 C 37.601562 175.742188 37.816406 176.054688 38.140625 176.191406 C 38.464844 176.328125 38.84375 176.253906 39.09375 176.003906 C 45.082031 170.011719 52.9375 167.019531 60.789062 167.015625 C 68.644531 167.019531 76.496094 170.011719 82.488281 176.003906 C 82.738281 176.253906 83.117188 176.328125 83.441406 176.191406 C 83.765625 176.054688 83.980469 175.742188 83.980469 175.386719 L 83.105469 175.386719 " fill-opacity="1" fill-rule="nonzero"/></g><path fill="rgb(100%, 100%, 100%)" d="M 127.742188 175.386719 C 115.414062 163.0625 95.429688 163.0625 83.105469 175.386719 L 83.105469 123.386719 C 95.429688 111.0625 115.414062 111.0625 127.742188 123.386719 L 127.742188 175.386719 " fill-opacity="1" fill-rule="nonzero"/><path fill="rgb(89.7995%, 45.098877%, 45.098877%)" d="M 127.742188 175.386719 L 128.359375 174.769531 C 122.027344 168.441406 113.71875 165.273438 105.425781 165.273438 C 97.128906 165.273438 88.816406 168.441406 82.488281 174.769531 L 83.105469 175.386719 L 83.980469 175.386719 L 83.980469 123.386719 L 83.105469 123.386719 L 83.722656 124.003906 C 89.71875 118.007812 97.566406 115.015625 105.425781 115.015625 C 113.28125 115.015625 121.128906 118.007812 127.121094 124.003906 L 127.742188 123.386719 L 126.867188 123.386719 L 126.867188 175.386719 L 127.742188 175.386719 L 128.359375 174.769531 L 127.742188 175.386719 L 128.609375 175.386719 L 128.609375 123.386719 C 128.609375 123.15625 128.519531 122.933594 128.359375 122.769531 C 122.027344 116.4375 113.71875 113.273438 105.425781 113.273438 C 97.128906 113.273438 88.816406 116.4375 82.488281 122.769531 C 82.324219 122.929688 82.230469 123.15625 82.230469 123.386719 L 82.230469 175.386719 C 82.230469 175.742188 82.445312 176.054688 82.769531 176.191406 C 83.101562 176.328125 83.472656 176.253906 83.722656 176.003906 C 89.71875 170.011719 97.566406 167.019531 105.425781 167.015625 C 113.28125 167.019531 121.128906 170.011719 127.121094 176.003906 C 127.367188 176.253906 127.746094 176.328125 128.074219 176.191406 C 128.402344 176.054688 128.609375 175.742188 128.609375 175.386719 L 127.742188 175.386719 " fill-opacity="1" fill-rule="nonzero"/><path fill="rgb(89.7995%, 45.098877%, 45.098877%)" d="M 90.148438 126.621094 C 90.273438 126.542969 96.777344 122.871094 105.59375 122.882812 C 110.425781 122.882812 115.945312 123.964844 121.574219 127.316406 C 121.996094 127.566406 122.546875 127.433594 122.796875 127.007812 C 123.050781 126.582031 122.914062 126.035156 122.488281 125.78125 C 116.558594 122.25 110.6875 121.09375 105.59375 121.097656 C 96.132812 121.101562 89.332031 125.035156 89.253906 125.074219 C 88.828125 125.320312 88.683594 125.867188 88.929688 126.296875 C 89.175781 126.71875 89.71875 126.867188 90.148438 126.621094 " fill-opacity="1" fill-rule="nonzero"/><path fill="rgb(89.7995%, 45.098877%, 45.098877%)" d="M 90.148438 133.652344 L 90.148438 133.644531 C 90.273438 133.570312 96.777344 129.902344 105.59375 129.90625 C 110.421875 129.914062 115.945312 130.992188 121.574219 134.347656 C 121.996094 134.597656 122.546875 134.457031 122.796875 134.03125 C 123.050781 133.613281 122.914062 133.0625 122.488281 132.8125 C 116.558594 129.273438 110.6875 128.121094 105.59375 128.121094 C 96.132812 128.128906 89.332031 132.058594 89.253906 132.101562 C 88.828125 132.347656 88.683594 132.898438 88.929688 133.320312 C 89.175781 133.75 89.71875 133.894531 90.148438 133.652344 " fill-opacity="1" fill-rule="nonzero"/><path fill="rgb(89.7995%, 45.098877%, 45.098877%)" d="M 90.148438 140.675781 C 90.273438 140.597656 96.777344 136.933594 105.59375 136.933594 C 110.425781 136.9375 115.945312 138.019531 121.574219 141.371094 C 121.996094 141.621094 122.546875 141.488281 122.796875 141.0625 C 123.050781 140.636719 122.914062 140.089844 122.488281 139.835938 C 116.558594 136.304688 110.6875 135.148438 105.59375 135.148438 C 96.132812 135.15625 89.332031 139.089844 89.253906 139.132812 C 88.828125 139.378906 88.683594 139.921875 88.929688 140.351562 C 89.175781 140.773438 89.71875 140.921875 90.148438 140.675781 " fill-opacity="1" fill-rule="nonzero"/><path fill="rgb(89.7995%, 45.098877%, 45.098877%)" d="M 90.148438 147.699219 C 90.273438 147.625 96.777344 143.957031 105.59375 143.960938 C 110.421875 143.960938 115.945312 145.046875 121.574219 148.402344 C 121.996094 148.652344 122.546875 148.511719 122.796875 148.085938 C 123.050781 147.664062 122.914062 147.117188 122.488281 146.867188 C 116.558594 143.328125 110.6875 142.175781 105.59375 142.175781 C 96.132812 142.183594 89.332031 146.121094 89.253906 146.15625 C 88.828125 146.402344 88.683594 146.953125 88.929688 147.375 C 89.175781 147.804688 89.71875 147.953125 90.148438 147.699219 " fill-opacity="1" fill-rule="nonzero"/><path fill="rgb(89.7995%, 45.098877%, 45.098877%)" d="M 90.148438 154.730469 C 90.273438 154.652344 96.777344 150.980469 105.59375 150.992188 C 110.421875 150.992188 115.945312 152.078125 121.574219 155.425781 C 121.996094 155.675781 122.546875 155.542969 122.796875 155.117188 C 123.050781 154.695312 122.914062 154.144531 122.488281 153.894531 C 116.558594 150.359375 110.6875 149.203125 105.59375 149.203125 C 96.132812 149.214844 89.332031 153.144531 89.253906 153.1875 C 88.828125 153.433594 88.683594 153.976562 88.929688 154.402344 C 89.175781 154.828125 89.71875 154.976562 90.148438 154.730469 " fill-opacity="1" fill-rule="nonzero"/><path fill="rgb(89.7995%, 45.098877%, 45.098877%)" d="M 90.148438 161.753906 C 90.273438 161.675781 96.777344 158.011719 105.59375 158.019531 C 110.425781 158.019531 115.945312 159.101562 121.574219 162.453125 C 121.996094 162.707031 122.546875 162.566406 122.796875 162.140625 C 123.050781 161.71875 122.914062 161.167969 122.488281 160.917969 C 116.558594 157.382812 110.6875 156.234375 105.59375 156.234375 C 96.132812 156.238281 89.332031 160.167969 89.253906 160.210938 C 88.828125 160.457031 88.683594 161 88.929688 161.429688 C 89.175781 161.859375 89.71875 162 90.148438 161.761719 " fill-opacity="1" fill-rule="nonzero"/><path fill="rgb(89.7995%, 45.098877%, 45.098877%)" d="M 45.242188 125.453125 L 45.242188 125.449219 C 45.371094 125.371094 51.867188 121.703125 60.691406 121.710938 C 65.519531 121.710938 71.035156 122.792969 76.671875 126.144531 C 77.09375 126.394531 77.644531 126.257812 77.894531 125.835938 C 78.148438 125.410156 78.011719 124.863281 77.585938 124.609375 C 71.65625 121.078125 65.785156 119.921875 60.691406 119.925781 C 51.226562 119.929688 44.429688 123.863281 44.351562 123.902344 C 43.921875 124.148438 43.773438 124.695312 44.019531 125.125 C 44.265625 125.550781 44.816406 125.695312 45.242188 125.453125 " fill-opacity="1" fill-rule="nonzero"/><path fill="rgb(89.7995%, 45.098877%, 45.098877%)" d="M 45.242188 132.476562 C 45.371094 132.398438 51.867188 128.730469 60.691406 128.734375 C 65.519531 128.742188 71.035156 129.820312 76.671875 133.175781 C 77.09375 133.425781 77.644531 133.285156 77.894531 132.863281 C 78.148438 132.441406 78.011719 131.890625 77.585938 131.640625 C 71.65625 128.105469 65.785156 126.949219 60.691406 126.949219 C 51.226562 126.957031 44.429688 130.890625 44.351562 130.929688 C 43.921875 131.179688 43.773438 131.722656 44.019531 132.152344 C 44.265625 132.578125 44.816406 132.722656 45.242188 132.476562 " fill-opacity="1" fill-rule="nonzero"/><path fill="rgb(89.7995%, 45.098877%, 45.098877%)" d="M 45.242188 139.503906 C 45.371094 139.429688 51.867188 135.761719 60.691406 135.765625 C 65.519531 135.765625 71.035156 136.847656 76.671875 140.203125 C 77.09375 140.457031 77.644531 140.3125 77.894531 139.890625 C 78.148438 139.464844 78.011719 138.921875 77.585938 138.671875 C 71.65625 135.132812 65.785156 133.980469 60.691406 133.980469 C 51.226562 133.984375 44.429688 137.917969 44.351562 137.957031 C 43.921875 138.203125 43.773438 138.75 44.019531 139.179688 C 44.265625 139.601562 44.816406 139.75 45.242188 139.503906 " fill-opacity="1" fill-rule="nonzero"/><path fill="rgb(89.7995%, 45.098877%, 45.098877%)" d="M 45.242188 146.53125 C 45.371094 146.453125 51.867188 142.785156 60.691406 142.789062 C 65.519531 142.789062 71.035156 143.875 76.671875 147.230469 C 77.09375 147.480469 77.644531 147.34375 77.894531 146.921875 C 78.148438 146.496094 78.011719 145.945312 77.585938 145.695312 C 71.65625 142.160156 65.785156 141.003906 60.691406 141.003906 C 51.226562 141.011719 44.429688 144.945312 44.351562 144.984375 C 43.921875 145.234375 43.773438 145.777344 44.019531 146.203125 C 44.265625 146.632812 44.816406 146.777344 45.242188 146.53125 " fill-opacity="1" fill-rule="nonzero"/><path fill="rgb(89.7995%, 45.098877%, 45.098877%)" d="M 45.242188 153.558594 C 45.371094 153.480469 51.867188 149.808594 60.691406 149.820312 C 65.519531 149.820312 71.035156 150.902344 76.671875 154.253906 C 77.09375 154.503906 77.644531 154.367188 77.894531 153.945312 C 78.148438 153.519531 78.011719 152.972656 77.585938 152.71875 C 71.65625 149.1875 65.785156 148.03125 60.691406 148.035156 C 51.226562 148.039062 44.429688 151.972656 44.351562 152.011719 C 43.921875 152.257812 43.773438 152.804688 44.019531 153.234375 C 44.265625 153.65625 44.816406 153.804688 45.242188 153.558594 " fill-opacity="1" fill-rule="nonzero"/><path fill="rgb(89.7995%, 45.098877%, 45.098877%)" d="M 45.242188 160.585938 L 45.242188 160.582031 C 45.371094 160.507812 51.867188 156.839844 60.691406 156.84375 C 65.519531 156.84375 71.035156 157.929688 76.671875 161.285156 C 77.09375 161.535156 77.644531 161.394531 77.894531 160.976562 C 78.148438 160.550781 78.011719 160 77.585938 159.75 C 71.65625 156.21875 65.785156 155.058594 60.691406 155.058594 C 51.226562 155.066406 44.429688 159 44.351562 159.039062 C 43.921875 159.285156 43.773438 159.835938 44.019531 160.257812 C 44.265625 160.6875 44.816406 160.832031 45.242188 160.585938 " fill-opacity="1" fill-rule="nonzero"/><path fill="rgb(100%, 100%, 100%)" d="M 145.132812 170.367188 L 142.894531 170.367188 C 141.164062 170.367188 139.699219 171.523438 139.21875 173.09375 C 139.160156 173.066406 139.109375 173.039062 139.050781 173.015625 L 139.050781 172.292969 C 139.050781 170.175781 137.324219 168.449219 135.207031 168.449219 L 132.964844 168.449219 C 131.070312 168.449219 129.488281 169.835938 129.1875 171.648438 L 129.125 171.648438 L 129.125 170.050781 C 129.125 167.9375 127.394531 166.210938 125.285156 166.210938 L 123.042969 166.210938 C 120.929688 166.210938 119.203125 167.9375 119.203125 170.050781 L 118.882812 152.765625 C 118.882812 150.652344 117.152344 147.640625 115.039062 147.640625 L 112.796875 147.640625 C 110.6875 147.640625 108.960938 150.652344 108.960938 152.765625 L 109.28125 182.835938 C 105.273438 177.863281 104.316406 177.570312 104.316406 177.570312 C 95.671875 171.171875 93.109375 178.851562 96.308594 181.730469 C 99.515625 184.613281 109.28125 204.476562 109.28125 204.476562 C 112.960938 215.976562 120.320312 221.09375 125.746094 220.9375 C 127.949219 220.9375 130.160156 220.964844 132.363281 220.9375 C 137.042969 220.886719 140.355469 218.167969 143.125 214.453125 C 148.695312 206.996094 148.972656 196.941406 148.972656 188.113281 L 148.972656 174.207031 C 148.972656 172.097656 147.246094 170.367188 145.132812 170.367188 " fill-opacity="1" fill-rule="nonzero"/><g clip-path="url(#id3)"><path fill="rgb(89.7995%, 45.098877%, 45.098877%)" d="M 145.132812 170.367188 L 145.132812 169.441406 L 142.894531 169.441406 C 141.820312 169.441406 140.824219 169.800781 140.027344 170.398438 C 139.234375 171 138.632812 171.84375 138.328125 172.820312 L 139.21875 173.09375 L 139.601562 172.246094 C 139.554688 172.222656 139.496094 172.199219 139.421875 172.167969 L 139.050781 173.015625 L 139.980469 173.015625 L 139.980469 172.292969 C 139.976562 169.660156 137.839844 167.523438 135.207031 167.519531 L 132.964844 167.519531 C 131.789062 167.519531 130.703125 167.953125 129.878906 168.664062 C 129.042969 169.375 128.457031 170.367188 128.269531 171.492188 L 129.1875 171.648438 L 129.1875 170.722656 L 129.125 170.722656 L 129.125 171.648438 L 130.054688 171.648438 L 130.054688 170.050781 C 130.050781 167.417969 127.914062 165.285156 125.285156 165.277344 L 123.042969 165.277344 C 120.410156 165.285156 118.273438 167.417969 118.273438 170.050781 L 119.203125 170.050781 L 120.132812 170.03125 L 119.8125 152.746094 L 118.882812 152.765625 L 119.8125 152.765625 C 119.808594 152.113281 119.683594 151.4375 119.457031 150.777344 C 119.121094 149.789062 118.582031 148.832031 117.855469 148.066406 C 117.488281 147.683594 117.074219 147.355469 116.605469 147.109375 C 116.136719 146.867188 115.605469 146.714844 115.039062 146.714844 L 112.796875 146.714844 C 112.042969 146.714844 111.359375 146.988281 110.78125 147.378906 C 109.917969 147.984375 109.257812 148.855469 108.78125 149.804688 C 108.316406 150.757812 108.035156 151.78125 108.027344 152.765625 L 108.027344 152.777344 L 108.347656 182.84375 L 109.28125 182.835938 L 110.003906 182.253906 C 107.984375 179.746094 106.722656 178.402344 105.933594 177.65625 C 105.535156 177.292969 105.257812 177.070312 105.054688 176.929688 C 104.851562 176.789062 104.71875 176.726562 104.589844 176.679688 L 104.316406 177.570312 L 104.871094 176.824219 C 103.609375 175.894531 102.457031 175.230469 101.394531 174.800781 C 100.335938 174.367188 99.367188 174.160156 98.484375 174.160156 C 97.78125 174.160156 97.136719 174.292969 96.578125 174.539062 C 95.730469 174.910156 95.078125 175.539062 94.667969 176.265625 C 94.253906 176.992188 94.054688 177.820312 94.054688 178.648438 C 94.058594 180.019531 94.585938 181.425781 95.691406 182.421875 C 95.992188 182.6875 96.476562 183.28125 97.027344 184.070312 C 98 185.453125 99.210938 187.460938 100.46875 189.683594 C 102.359375 193.011719 104.351562 196.816406 105.871094 199.785156 C 106.636719 201.269531 107.28125 202.542969 107.730469 203.449219 C 107.960938 203.898438 108.132812 204.261719 108.257812 204.507812 C 108.378906 204.753906 108.441406 204.882812 108.441406 204.882812 L 109.28125 204.476562 L 108.394531 204.757812 C 110.25 210.550781 113.027344 214.8125 116.089844 217.640625 C 119.160156 220.460938 122.5 221.863281 125.5 221.871094 C 125.589844 221.871094 125.683594 221.871094 125.773438 221.863281 L 125.746094 220.9375 L 125.746094 221.863281 C 127.238281 221.863281 128.734375 221.878906 130.238281 221.878906 C 130.949219 221.878906 131.664062 221.875 132.375 221.871094 C 134.894531 221.84375 137.085938 221.078125 138.972656 219.84375 C 140.855469 218.609375 142.441406 216.917969 143.867188 215.011719 C 146.769531 211.121094 148.269531 206.59375 149.054688 201.953125 C 149.835938 197.308594 149.902344 192.535156 149.902344 188.113281 L 149.902344 174.207031 C 149.898438 171.582031 147.761719 169.445312 145.132812 169.441406 L 145.132812 171.296875 C 145.933594 171.296875 146.65625 171.621094 147.1875 172.152344 C 147.71875 172.683594 148.046875 173.40625 148.046875 174.207031 L 148.046875 188.113281 C 148.046875 192.515625 147.972656 197.1875 147.222656 201.644531 C 146.46875 206.101562 145.046875 210.328125 142.378906 213.898438 C 141.035156 215.703125 139.585938 217.226562 137.949219 218.292969 C 136.316406 219.355469 134.515625 219.980469 132.355469 220.011719 C 131.648438 220.023438 130.945312 220.023438 130.238281 220.023438 C 128.746094 220.023438 127.25 220.011719 125.746094 220.011719 L 125.5 220.011719 C 123.097656 220.015625 120.144531 218.855469 117.351562 216.273438 C 114.5625 213.699219 111.933594 209.726562 110.164062 204.191406 L 110.113281 204.066406 C 110.105469 204.0625 107.667969 199.089844 104.820312 193.742188 C 103.390625 191.074219 101.867188 188.308594 100.484375 186.023438 C 99.796875 184.875 99.144531 183.84375 98.550781 183.003906 C 97.953125 182.15625 97.4375 181.5 96.933594 181.039062 C 96.269531 180.449219 95.914062 179.535156 95.917969 178.648438 C 95.914062 177.933594 96.144531 177.265625 96.554688 176.800781 C 96.761719 176.570312 97.011719 176.378906 97.320312 176.238281 C 97.636719 176.109375 98.011719 176.019531 98.484375 176.019531 C 99.074219 176.019531 99.8125 176.160156 100.691406 176.515625 C 101.578125 176.878906 102.605469 177.457031 103.761719 178.316406 C 103.84375 178.378906 103.945312 178.425781 104.042969 178.457031 L 104.226562 177.851562 L 103.9375 178.417969 C 103.945312 178.421875 103.980469 178.4375 104.042969 178.457031 L 104.226562 177.851562 L 103.9375 178.417969 L 103.945312 178.40625 L 103.9375 178.417969 L 103.945312 178.40625 L 103.9375 178.417969 C 103.953125 178.425781 104.289062 178.632812 105.011719 179.359375 C 105.738281 180.085938 106.871094 181.332031 108.558594 183.421875 C 108.804688 183.726562 109.222656 183.84375 109.59375 183.714844 C 109.964844 183.578125 110.210938 183.222656 110.207031 182.828125 L 109.886719 152.757812 L 108.960938 152.765625 L 109.886719 152.765625 C 109.886719 152.363281 109.976562 151.867188 110.144531 151.371094 C 110.390625 150.621094 110.828125 149.867188 111.328125 149.347656 C 111.578125 149.09375 111.839844 148.886719 112.085938 148.761719 C 112.335938 148.632812 112.566406 148.574219 112.796875 148.574219 L 115.039062 148.574219 C 115.34375 148.574219 115.660156 148.679688 116.007812 148.914062 C 116.519531 149.261719 117.035156 149.902344 117.390625 150.632812 C 117.75 151.355469 117.957031 152.160156 117.957031 152.765625 L 117.957031 152.78125 L 118.273438 170.066406 C 118.28125 170.574219 118.699219 170.984375 119.210938 170.976562 C 119.71875 170.972656 120.132812 170.558594 120.132812 170.050781 C 120.132812 169.25 120.457031 168.527344 120.988281 167.996094 C 121.519531 167.460938 122.242188 167.136719 123.042969 167.136719 L 125.285156 167.136719 C 126.085938 167.136719 126.808594 167.460938 127.335938 167.996094 C 127.871094 168.527344 128.195312 169.25 128.195312 170.050781 L 128.195312 171.648438 C 128.195312 171.894531 128.296875 172.136719 128.46875 172.308594 C 128.640625 172.480469 128.882812 172.582031 129.125 172.582031 L 129.1875 172.582031 C 129.640625 172.582031 130.023438 172.25 130.097656 171.804688 C 130.21875 171.121094 130.574219 170.511719 131.085938 170.078125 C 131.59375 169.636719 132.25 169.375 132.964844 169.375 L 135.207031 169.375 C 136.007812 169.375 136.730469 169.703125 137.265625 170.234375 C 137.792969 170.765625 138.117188 171.492188 138.117188 172.292969 L 138.117188 173.015625 C 138.117188 173.386719 138.339844 173.722656 138.679688 173.867188 C 138.71875 173.882812 138.765625 173.910156 138.832031 173.9375 C 139.078125 174.050781 139.355469 174.050781 139.601562 173.941406 C 139.847656 173.832031 140.03125 173.621094 140.109375 173.367188 C 140.285156 172.769531 140.65625 172.25 141.148438 171.882812 C 141.636719 171.519531 142.238281 171.296875 142.894531 171.296875 L 145.132812 171.296875 L 145.132812 170.367188 " fill-opacity="1" fill-rule="nonzero"/></g><path fill="rgb(100%, 100%, 100%)" d="M 119.203125 167.886719 L 119.363281 183.652344 " fill-opacity="1" fill-rule="nonzero"/><path fill="rgb(89.7995%, 45.098877%, 45.098877%)" d="M 118.273438 167.890625 L 118.429688 183.660156 C 118.4375 184.175781 118.859375 184.582031 119.375 184.578125 C 119.886719 184.578125 120.296875 184.152344 120.289062 183.640625 L 120.132812 167.875 C 120.128906 167.363281 119.703125 166.949219 119.191406 166.953125 C 118.675781 166.957031 118.269531 167.382812 118.273438 167.890625 " fill-opacity="1" fill-rule="nonzero"/><path fill="rgb(100%, 100%, 100%)" d="M 129.125 170.125 L 129.285156 184.289062 " fill-opacity="1" fill-rule="nonzero"/><path fill="rgb(89.7995%, 45.098877%, 45.098877%)" d="M 128.195312 170.136719 L 128.359375 184.300781 C 128.363281 184.8125 128.78125 185.226562 129.296875 185.222656 C 129.808594 185.214844 130.21875 184.792969 130.21875 184.28125 L 130.054688 170.113281 C 130.050781 169.601562 129.632812 169.1875 129.117188 169.195312 C 128.597656 169.199219 128.191406 169.621094 128.195312 170.136719 " fill-opacity="1" fill-rule="nonzero"/><path fill="rgb(100%, 100%, 100%)" d="M 139.050781 172.367188 L 139.210938 183.972656 " fill-opacity="1" fill-rule="nonzero"/><path fill="rgb(89.7995%, 45.098877%, 45.098877%)" d="M 138.117188 172.375 L 138.28125 183.988281 C 138.285156 184.5 138.710938 184.90625 139.222656 184.902344 C 139.734375 184.890625 140.144531 184.472656 140.140625 183.960938 L 139.980469 172.351562 C 139.972656 171.835938 139.546875 171.429688 139.035156 171.433594 C 138.519531 171.445312 138.113281 171.863281 138.117188 172.375 " fill-opacity="1" fill-rule="nonzero"/><g fill="rgb(89.7995%, 45.098877%, 45.098877%)" fill-opacity="1"><g transform="translate(192.990973, 168.32709)"><g><path d="M 9.6875 -27.015625 L 16.625 -7.421875 L 23.53125 -27.015625 L 30.84375 -27.015625 L 30.84375 0 L 25.25 0 L 25.25 -7.390625 L 25.8125 -20.125 L 18.515625 0 L 14.703125 0 L 7.421875 -20.109375 L 7.984375 -7.390625 L 7.984375 0 L 2.40625 0 L 2.40625 -27.015625 Z M 9.6875 -27.015625 "/></g></g></g><g fill="rgb(89.7995%, 45.098877%, 45.098877%)" fill-opacity="1"><g transform="translate(226.271236, 168.32709)"><g><path d="M 7.984375 -4.46875 L 19.796875 -4.46875 L 19.796875 0 L 2.40625 0 L 2.40625 -27.015625 L 7.984375 -27.015625 Z M 7.984375 -4.46875 "/></g></g></g><g fill="rgb(89.7995%, 45.098877%, 45.098877%)" fill-opacity="1"><g transform="translate(246.844153, 168.32709)"><g><path d="M 13.6875 0 C 13.445312 -0.476562 13.269531 -1.078125 13.15625 -1.796875 C 11.851562 -0.347656 10.164062 0.375 8.09375 0.375 C 6.125 0.375 4.492188 -0.191406 3.203125 -1.328125 C 1.910156 -2.472656 1.265625 -3.910156 1.265625 -5.640625 C 1.265625 -7.765625 2.050781 -9.394531 3.625 -10.53125 C 5.207031 -11.675781 7.488281 -12.253906 10.46875 -12.265625 L 12.9375 -12.265625 L 12.9375 -13.421875 C 12.9375 -14.347656 12.695312 -15.085938 12.21875 -15.640625 C 11.738281 -16.203125 10.988281 -16.484375 9.96875 -16.484375 C 9.0625 -16.484375 8.347656 -16.265625 7.828125 -15.828125 C 7.316406 -15.390625 7.0625 -14.796875 7.0625 -14.046875 L 1.703125 -14.046875 C 1.703125 -15.210938 2.0625 -16.289062 2.78125 -17.28125 C 3.5 -18.269531 4.515625 -19.046875 5.828125 -19.609375 C 7.140625 -20.171875 8.613281 -20.453125 10.25 -20.453125 C 12.71875 -20.453125 14.675781 -19.828125 16.125 -18.578125 C 17.582031 -17.335938 18.3125 -15.59375 18.3125 -13.34375 L 18.3125 -4.640625 C 18.320312 -2.734375 18.585938 -1.289062 19.109375 -0.3125 L 19.109375 0 Z M 9.265625 -3.734375 C 10.054688 -3.734375 10.785156 -3.90625 11.453125 -4.25 C 12.117188 -4.601562 12.613281 -5.078125 12.9375 -5.671875 L 12.9375 -9.125 L 10.921875 -9.125 C 8.242188 -9.125 6.816406 -8.195312 6.640625 -6.34375 L 6.625 -6.03125 C 6.625 -5.363281 6.859375 -4.8125 7.328125 -4.375 C 7.796875 -3.945312 8.441406 -3.734375 9.265625 -3.734375 Z M 9.265625 -3.734375 "/></g></g></g><g fill="rgb(89.7995%, 45.098877%, 45.098877%)" fill-opacity="1"><g transform="translate(267.21301, 168.32709)"><g><path d="M 13.6875 0 C 13.445312 -0.476562 13.269531 -1.078125 13.15625 -1.796875 C 11.851562 -0.347656 10.164062 0.375 8.09375 0.375 C 6.125 0.375 4.492188 -0.191406 3.203125 -1.328125 C 1.910156 -2.472656 1.265625 -3.910156 1.265625 -5.640625 C 1.265625 -7.765625 2.050781 -9.394531 3.625 -10.53125 C 5.207031 -11.675781 7.488281 -12.253906 10.46875 -12.265625 L 12.9375 -12.265625 L 12.9375 -13.421875 C 12.9375 -14.347656 12.695312 -15.085938 12.21875 -15.640625 C 11.738281 -16.203125 10.988281 -16.484375 9.96875 -16.484375 C 9.0625 -16.484375 8.347656 -16.265625 7.828125 -15.828125 C 7.316406 -15.390625 7.0625 -14.796875 7.0625 -14.046875 L 1.703125 -14.046875 C 1.703125 -15.210938 2.0625 -16.289062 2.78125 -17.28125 C 3.5 -18.269531 4.515625 -19.046875 5.828125 -19.609375 C 7.140625 -20.171875 8.613281 -20.453125 10.25 -20.453125 C 12.71875 -20.453125 14.675781 -19.828125 16.125 -18.578125 C 17.582031 -17.335938 18.3125 -15.59375 18.3125 -13.34375 L 18.3125 -4.640625 C 18.320312 -2.734375 18.585938 -1.289062 19.109375 -0.3125 L 19.109375 0 Z M 9.265625 -3.734375 C 10.054688 -3.734375 10.785156 -3.90625 11.453125 -4.25 C 12.117188 -4.601562 12.613281 -5.078125 12.9375 -5.671875 L 12.9375 -9.125 L 10.921875 -9.125 C 8.242188 -9.125 6.816406 -8.195312 6.640625 -6.34375 L 6.625 -6.03125 C 6.625 -5.363281 6.859375 -4.8125 7.328125 -4.375 C 7.796875 -3.945312 8.441406 -3.734375 9.265625 -3.734375 Z M 9.265625 -3.734375 "/></g></g></g><g fill="rgb(89.7995%, 45.098877%, 45.098877%)" fill-opacity="1"><g transform="translate(287.581867, 168.32709)"><g><path d="M 16.421875 -7.09375 C 16.421875 -8.144531 16.046875 -8.953125 15.296875 -9.515625 C 14.554688 -10.078125 13.222656 -10.671875 11.296875 -11.296875 C 9.367188 -11.921875 7.84375 -12.535156 6.71875 -13.140625 C 3.644531 -14.796875 2.109375 -17.023438 2.109375 -19.828125 C 2.109375 -21.296875 2.519531 -22.597656 3.34375 -23.734375 C 4.164062 -24.878906 5.347656 -25.773438 6.890625 -26.421875 C 8.429688 -27.066406 10.160156 -27.390625 12.078125 -27.390625 C 14.003906 -27.390625 15.722656 -27.039062 17.234375 -26.34375 C 18.742188 -25.644531 19.914062 -24.65625 20.75 -23.375 C 21.582031 -22.101562 22 -20.65625 22 -19.03125 L 16.4375 -19.03125 C 16.4375 -20.269531 16.046875 -21.234375 15.265625 -21.921875 C 14.492188 -22.609375 13.398438 -22.953125 11.984375 -22.953125 C 10.628906 -22.953125 9.570312 -22.664062 8.8125 -22.09375 C 8.0625 -21.519531 7.6875 -20.757812 7.6875 -19.8125 C 7.6875 -18.9375 8.125 -18.203125 9 -17.609375 C 9.882812 -17.015625 11.191406 -16.457031 12.921875 -15.9375 C 16.085938 -14.988281 18.390625 -13.804688 19.828125 -12.390625 C 21.273438 -10.984375 22 -9.226562 22 -7.125 C 22 -4.789062 21.113281 -2.957031 19.34375 -1.625 C 17.582031 -0.289062 15.203125 0.375 12.203125 0.375 C 10.128906 0.375 8.238281 -0.00390625 6.53125 -0.765625 C 4.820312 -1.523438 3.519531 -2.566406 2.625 -3.890625 C 1.726562 -5.210938 1.28125 -6.75 1.28125 -8.5 L 6.859375 -8.5 C 6.859375 -5.519531 8.640625 -4.03125 12.203125 -4.03125 C 13.523438 -4.03125 14.554688 -4.296875 15.296875 -4.828125 C 16.046875 -5.367188 16.421875 -6.125 16.421875 -7.09375 Z M 16.421875 -7.09375 "/></g></g></g><g fill="rgb(89.7995%, 45.098877%, 45.098877%)" fill-opacity="1"><g transform="translate(160.546824, 203.022395)"><g><path d="M 3.515625 -12.28125 L 7.53125 -2.265625 L 11.546875 -12.28125 L 13.640625 -12.28125 L 13.640625 0 L 12.015625 0 L 12.015625 -4.78125 L 12.171875 -9.9375 L 8.140625 0 L 6.90625 0 L 2.890625 -9.921875 L 3.046875 -4.78125 L 3.046875 0 L 1.421875 0 L 1.421875 -12.28125 Z M 3.515625 -12.28125 "/></g></g></g><g fill="rgb(89.7995%, 45.098877%, 45.098877%)" fill-opacity="1"><g transform="translate(175.617113, 203.022395)"><g><path d="M 2.875 0 L 1.3125 0 L 1.3125 -9.125 L 2.875 -9.125 Z M 1.1875 -11.546875 C 1.1875 -11.796875 1.265625 -12.003906 1.421875 -12.171875 C 1.578125 -12.347656 1.804688 -12.4375 2.109375 -12.4375 C 2.410156 -12.4375 2.640625 -12.347656 2.796875 -12.171875 C 2.953125 -12.003906 3.03125 -11.789062 3.03125 -11.53125 C 3.03125 -11.28125 2.953125 -11.070312 2.796875 -10.90625 C 2.640625 -10.738281 2.410156 -10.65625 2.109375 -10.65625 C 1.804688 -10.65625 1.578125 -10.738281 1.421875 -10.90625 C 1.265625 -11.070312 1.1875 -11.285156 1.1875 -11.546875 Z M 1.1875 -11.546875 "/></g></g></g><g fill="rgb(89.7995%, 45.098877%, 45.098877%)" fill-opacity="1"><g transform="translate(179.806119, 203.022395)"><g><path d="M 4.84375 -1.109375 C 5.394531 -1.109375 5.878906 -1.273438 6.296875 -1.609375 C 6.710938 -1.941406 6.941406 -2.363281 6.984375 -2.875 L 8.46875 -2.875 C 8.4375 -2.351562 8.253906 -1.851562 7.921875 -1.375 C 7.585938 -0.90625 7.144531 -0.53125 6.59375 -0.25 C 6.039062 0.03125 5.457031 0.171875 4.84375 0.171875 C 3.59375 0.171875 2.601562 -0.238281 1.875 -1.0625 C 1.144531 -1.894531 0.78125 -3.035156 0.78125 -4.484375 L 0.78125 -4.734375 C 0.78125 -5.617188 0.941406 -6.40625 1.265625 -7.09375 C 1.585938 -7.789062 2.050781 -8.332031 2.65625 -8.71875 C 3.269531 -9.101562 3.992188 -9.296875 4.828125 -9.296875 C 5.847656 -9.296875 6.695312 -8.988281 7.375 -8.375 C 8.050781 -7.757812 8.414062 -6.960938 8.46875 -5.984375 L 6.984375 -5.984375 C 6.941406 -6.578125 6.71875 -7.0625 6.3125 -7.4375 C 5.914062 -7.820312 5.421875 -8.015625 4.828125 -8.015625 C 4.035156 -8.015625 3.421875 -7.726562 2.984375 -7.15625 C 2.546875 -6.582031 2.328125 -5.753906 2.328125 -4.671875 L 2.328125 -4.390625 C 2.328125 -3.335938 2.546875 -2.523438 2.984375 -1.953125 C 3.421875 -1.390625 4.039062 -1.109375 4.84375 -1.109375 Z M 4.84375 -1.109375 "/></g></g></g><g fill="rgb(89.7995%, 45.098877%, 45.098877%)" fill-opacity="1"><g transform="translate(188.841549, 203.022395)"><g><path d="M 5.59375 -7.71875 C 5.351562 -7.757812 5.097656 -7.78125 4.828125 -7.78125 C 3.796875 -7.78125 3.097656 -7.34375 2.734375 -6.46875 L 2.734375 0 L 1.1875 0 L 1.1875 -9.125 L 2.703125 -9.125 L 2.71875 -8.0625 C 3.226562 -8.882812 3.953125 -9.296875 4.890625 -9.296875 C 5.203125 -9.296875 5.4375 -9.253906 5.59375 -9.171875 Z M 5.59375 -7.71875 "/></g></g></g><g fill="rgb(89.7995%, 45.098877%, 45.098877%)" fill-opacity="1"><g transform="translate(194.682556, 203.022395)"><g><path d="M 0.765625 -4.640625 C 0.765625 -5.535156 0.941406 -6.335938 1.296875 -7.046875 C 1.648438 -7.765625 2.140625 -8.316406 2.765625 -8.703125 C 3.390625 -9.097656 4.101562 -9.296875 4.90625 -9.296875 C 6.144531 -9.296875 7.148438 -8.863281 7.921875 -8 C 8.691406 -7.132812 9.078125 -5.988281 9.078125 -4.5625 L 9.078125 -4.453125 C 9.078125 -3.566406 8.90625 -2.769531 8.5625 -2.0625 C 8.21875 -1.363281 7.726562 -0.816406 7.09375 -0.421875 C 6.46875 -0.0234375 5.742188 0.171875 4.921875 0.171875 C 3.679688 0.171875 2.675781 -0.253906 1.90625 -1.109375 C 1.144531 -1.972656 0.765625 -3.113281 0.765625 -4.53125 Z M 2.328125 -4.453125 C 2.328125 -3.441406 2.5625 -2.628906 3.03125 -2.015625 C 3.507812 -1.410156 4.140625 -1.109375 4.921875 -1.109375 C 5.710938 -1.109375 6.34375 -1.414062 6.8125 -2.03125 C 7.28125 -2.65625 7.515625 -3.523438 7.515625 -4.640625 C 7.515625 -5.640625 7.273438 -6.453125 6.796875 -7.078125 C 6.328125 -7.703125 5.695312 -8.015625 4.90625 -8.015625 C 4.132812 -8.015625 3.507812 -7.707031 3.03125 -7.09375 C 2.5625 -6.476562 2.328125 -5.597656 2.328125 -4.453125 Z M 2.328125 -4.453125 "/></g></g></g><g fill="rgb(89.7995%, 45.098877%, 45.098877%)" fill-opacity="1"><g transform="translate(204.527129, 203.022395)"><g/></g></g><g fill="rgb(89.7995%, 45.098877%, 45.098877%)" fill-opacity="1"><g transform="translate(208.800422, 203.022395)"><g><path d="M 3.046875 -1.328125 L 8.875 -1.328125 L 8.875 0 L 1.421875 0 L 1.421875 -12.28125 L 3.046875 -12.28125 Z M 3.046875 -1.328125 "/></g></g></g><g fill="rgb(89.7995%, 45.098877%, 45.098877%)" fill-opacity="1"><g transform="translate(218.088709, 203.022395)"><g><path d="M 4.96875 0.171875 C 3.726562 0.171875 2.71875 -0.234375 1.9375 -1.046875 C 1.164062 -1.859375 0.78125 -2.945312 0.78125 -4.3125 L 0.78125 -4.59375 C 0.78125 -5.5 0.953125 -6.304688 1.296875 -7.015625 C 1.648438 -7.722656 2.132812 -8.28125 2.75 -8.6875 C 3.375 -9.09375 4.046875 -9.296875 4.765625 -9.296875 C 5.953125 -9.296875 6.875 -8.90625 7.53125 -8.125 C 8.1875 -7.34375 8.515625 -6.222656 8.515625 -4.765625 L 8.515625 -4.109375 L 2.34375 -4.109375 C 2.363281 -3.210938 2.625 -2.488281 3.125 -1.9375 C 3.632812 -1.382812 4.273438 -1.109375 5.046875 -1.109375 C 5.597656 -1.109375 6.0625 -1.21875 6.4375 -1.4375 C 6.820312 -1.664062 7.160156 -1.960938 7.453125 -2.328125 L 8.40625 -1.59375 C 7.644531 -0.414062 6.5 0.171875 4.96875 0.171875 Z M 4.765625 -8.015625 C 4.140625 -8.015625 3.613281 -7.785156 3.1875 -7.328125 C 2.757812 -6.867188 2.492188 -6.222656 2.390625 -5.390625 L 6.96875 -5.390625 L 6.96875 -5.515625 C 6.914062 -6.304688 6.695312 -6.921875 6.3125 -7.359375 C 5.9375 -7.796875 5.421875 -8.015625 4.765625 -8.015625 Z M 4.765625 -8.015625 "/></g></g></g><g fill="rgb(89.7995%, 45.098877%, 45.098877%)" fill-opacity="1"><g transform="translate(227.233717, 203.022395)"><g><path d="M 6.8125 0 C 6.71875 -0.175781 6.644531 -0.5 6.59375 -0.96875 C 5.863281 -0.207031 5 0.171875 4 0.171875 C 3.09375 0.171875 2.351562 -0.0820312 1.78125 -0.59375 C 1.207031 -1.101562 0.921875 -1.75 0.921875 -2.53125 C 0.921875 -3.476562 1.28125 -4.210938 2 -4.734375 C 2.71875 -5.265625 3.734375 -5.53125 5.046875 -5.53125 L 6.5625 -5.53125 L 6.5625 -6.25 C 6.5625 -6.789062 6.398438 -7.222656 6.078125 -7.546875 C 5.753906 -7.867188 5.273438 -8.03125 4.640625 -8.03125 C 4.078125 -8.03125 3.609375 -7.890625 3.234375 -7.609375 C 2.859375 -7.328125 2.671875 -6.988281 2.671875 -6.59375 L 1.109375 -6.59375 C 1.109375 -7.050781 1.269531 -7.488281 1.59375 -7.90625 C 1.914062 -8.332031 2.351562 -8.671875 2.90625 -8.921875 C 3.457031 -9.171875 4.066406 -9.296875 4.734375 -9.296875 C 5.785156 -9.296875 6.609375 -9.03125 7.203125 -8.5 C 7.796875 -7.976562 8.101562 -7.253906 8.125 -6.328125 L 8.125 -2.140625 C 8.125 -1.296875 8.234375 -0.628906 8.453125 -0.140625 L 8.453125 0 Z M 4.21875 -1.1875 C 4.707031 -1.1875 5.171875 -1.3125 5.609375 -1.5625 C 6.046875 -1.820312 6.363281 -2.148438 6.5625 -2.546875 L 6.5625 -4.421875 L 5.34375 -4.421875 C 3.4375 -4.421875 2.484375 -3.863281 2.484375 -2.75 C 2.484375 -2.257812 2.644531 -1.875 2.96875 -1.59375 C 3.289062 -1.320312 3.707031 -1.1875 4.21875 -1.1875 Z M 4.21875 -1.1875 "/></g></g></g><g fill="rgb(89.7995%, 45.098877%, 45.098877%)" fill-opacity="1"><g transform="translate(236.623147, 203.022395)"><g><path d="M 5.59375 -7.71875 C 5.351562 -7.757812 5.097656 -7.78125 4.828125 -7.78125 C 3.796875 -7.78125 3.097656 -7.34375 2.734375 -6.46875 L 2.734375 0 L 1.1875 0 L 1.1875 -9.125 L 2.703125 -9.125 L 2.71875 -8.0625 C 3.226562 -8.882812 3.953125 -9.296875 4.890625 -9.296875 C 5.203125 -9.296875 5.4375 -9.253906 5.59375 -9.171875 Z M 5.59375 -7.71875 "/></g></g></g><g fill="rgb(89.7995%, 45.098877%, 45.098877%)" fill-opacity="1"><g transform="translate(242.464154, 203.022395)"><g><path d="M 2.65625 -9.125 L 2.703125 -7.96875 C 3.398438 -8.851562 4.3125 -9.296875 5.4375 -9.296875 C 7.363281 -9.296875 8.335938 -8.207031 8.359375 -6.03125 L 8.359375 0 L 6.796875 0 L 6.796875 -6.03125 C 6.785156 -6.6875 6.632812 -7.171875 6.34375 -7.484375 C 6.050781 -7.804688 5.59375 -7.96875 4.96875 -7.96875 C 4.457031 -7.96875 4.007812 -7.832031 3.625 -7.5625 C 3.25 -7.289062 2.953125 -6.9375 2.734375 -6.5 L 2.734375 0 L 1.1875 0 L 1.1875 -9.125 Z M 2.65625 -9.125 "/></g></g></g><g fill="rgb(89.7995%, 45.098877%, 45.098877%)" fill-opacity="1"><g transform="translate(251.988441, 203.022395)"><g><path d="M 2.875 0 L 1.3125 0 L 1.3125 -9.125 L 2.875 -9.125 Z M 1.1875 -11.546875 C 1.1875 -11.796875 1.265625 -12.003906 1.421875 -12.171875 C 1.578125 -12.347656 1.804688 -12.4375 2.109375 -12.4375 C 2.410156 -12.4375 2.640625 -12.347656 2.796875 -12.171875 C 2.953125 -12.003906 3.03125 -11.789062 3.03125 -11.53125 C 3.03125 -11.28125 2.953125 -11.070312 2.796875 -10.90625 C 2.640625 -10.738281 2.410156 -10.65625 2.109375 -10.65625 C 1.804688 -10.65625 1.578125 -10.738281 1.421875 -10.90625 C 1.265625 -11.070312 1.1875 -11.285156 1.1875 -11.546875 Z M 1.1875 -11.546875 "/></g></g></g><g fill="rgb(89.7995%, 45.098877%, 45.098877%)" fill-opacity="1"><g transform="translate(256.177448, 203.022395)"><g><path d="M 2.65625 -9.125 L 2.703125 -7.96875 C 3.398438 -8.851562 4.3125 -9.296875 5.4375 -9.296875 C 7.363281 -9.296875 8.335938 -8.207031 8.359375 -6.03125 L 8.359375 0 L 6.796875 0 L 6.796875 -6.03125 C 6.785156 -6.6875 6.632812 -7.171875 6.34375 -7.484375 C 6.050781 -7.804688 5.59375 -7.96875 4.96875 -7.96875 C 4.457031 -7.96875 4.007812 -7.832031 3.625 -7.5625 C 3.25 -7.289062 2.953125 -6.9375 2.734375 -6.5 L 2.734375 0 L 1.1875 0 L 1.1875 -9.125 Z M 2.65625 -9.125 "/></g></g></g><g fill="rgb(89.7995%, 45.098877%, 45.098877%)" fill-opacity="1"><g transform="translate(265.701736, 203.022395)"><g><path d="M 0.8125 -4.640625 C 0.8125 -6.054688 1.140625 -7.1875 1.796875 -8.03125 C 2.453125 -8.875 3.320312 -9.296875 4.40625 -9.296875 C 5.519531 -9.296875 6.390625 -8.898438 7.015625 -8.109375 L 7.09375 -9.125 L 8.515625 -9.125 L 8.515625 -0.21875 C 8.515625 0.957031 8.164062 1.882812 7.46875 2.5625 C 6.769531 3.25 5.828125 3.59375 4.640625 3.59375 C 3.984375 3.59375 3.335938 3.453125 2.703125 3.171875 C 2.078125 2.890625 1.597656 2.503906 1.265625 2.015625 L 2.078125 1.078125 C 2.742188 1.898438 3.5625 2.3125 4.53125 2.3125 C 5.289062 2.3125 5.882812 2.097656 6.3125 1.671875 C 6.738281 1.242188 6.953125 0.644531 6.953125 -0.125 L 6.953125 -0.90625 C 6.328125 -0.1875 5.472656 0.171875 4.390625 0.171875 C 3.328125 0.171875 2.460938 -0.253906 1.796875 -1.109375 C 1.140625 -1.972656 0.8125 -3.148438 0.8125 -4.640625 Z M 2.375 -4.453125 C 2.375 -3.429688 2.582031 -2.625 3 -2.03125 C 3.425781 -1.445312 4.019531 -1.15625 4.78125 -1.15625 C 5.757812 -1.15625 6.484375 -1.601562 6.953125 -2.5 L 6.953125 -6.65625 C 6.472656 -7.53125 5.753906 -7.96875 4.796875 -7.96875 C 4.035156 -7.96875 3.441406 -7.671875 3.015625 -7.078125 C 2.585938 -6.492188 2.375 -5.617188 2.375 -4.453125 Z M 2.375 -4.453125 "/></g></g></g><g fill="rgb(89.7995%, 45.098877%, 45.098877%)" fill-opacity="1"><g transform="translate(275.386172, 203.022395)"><g/></g></g><g fill="rgb(89.7995%, 45.098877%, 45.098877%)" fill-opacity="1"><g transform="translate(279.659464, 203.022395)"><g><path d="M 5.046875 -5.46875 C 3.648438 -5.863281 2.632812 -6.351562 2 -6.9375 C 1.375 -7.519531 1.0625 -8.238281 1.0625 -9.09375 C 1.0625 -10.0625 1.445312 -10.859375 2.21875 -11.484375 C 2.988281 -12.117188 3.992188 -12.4375 5.234375 -12.4375 C 6.078125 -12.4375 6.828125 -12.273438 7.484375 -11.953125 C 8.148438 -11.628906 8.660156 -11.179688 9.015625 -10.609375 C 9.378906 -10.035156 9.5625 -9.40625 9.5625 -8.71875 L 7.9375 -8.71875 C 7.9375 -9.46875 7.703125 -10.050781 7.234375 -10.46875 C 6.765625 -10.894531 6.097656 -11.109375 5.234375 -11.109375 C 4.429688 -11.109375 3.804688 -10.929688 3.359375 -10.578125 C 2.921875 -10.234375 2.703125 -9.75 2.703125 -9.125 C 2.703125 -8.625 2.910156 -8.195312 3.328125 -7.84375 C 3.753906 -7.5 4.476562 -7.179688 5.5 -6.890625 C 6.519531 -6.609375 7.316406 -6.296875 7.890625 -5.953125 C 8.472656 -5.609375 8.898438 -5.207031 9.171875 -4.75 C 9.453125 -4.289062 9.59375 -3.75 9.59375 -3.125 C 9.59375 -2.125 9.203125 -1.320312 8.421875 -0.71875 C 7.648438 -0.125 6.613281 0.171875 5.3125 0.171875 C 4.476562 0.171875 3.691406 0.0078125 2.953125 -0.3125 C 2.222656 -0.632812 1.660156 -1.078125 1.265625 -1.640625 C 0.867188 -2.203125 0.671875 -2.84375 0.671875 -3.5625 L 2.296875 -3.5625 C 2.296875 -2.8125 2.570312 -2.222656 3.125 -1.796875 C 3.675781 -1.367188 4.40625 -1.15625 5.3125 -1.15625 C 6.164062 -1.15625 6.820312 -1.328125 7.28125 -1.671875 C 7.738281 -2.023438 7.96875 -2.5 7.96875 -3.09375 C 7.96875 -3.695312 7.753906 -4.160156 7.328125 -4.484375 C 6.910156 -4.816406 6.148438 -5.144531 5.046875 -5.46875 Z M 5.046875 -5.46875 "/></g></g></g><g fill="rgb(89.7995%, 45.098877%, 45.098877%)" fill-opacity="1"><g transform="translate(289.900186, 203.022395)"><g><path d="M 3.296875 -11.328125 L 3.296875 -9.125 L 5 -9.125 L 5 -7.921875 L 3.296875 -7.921875 L 3.296875 -2.265625 C 3.296875 -1.898438 3.367188 -1.625 3.515625 -1.4375 C 3.671875 -1.25 3.929688 -1.15625 4.296875 -1.15625 C 4.472656 -1.15625 4.722656 -1.191406 5.046875 -1.265625 L 5.046875 0 C 4.628906 0.113281 4.226562 0.171875 3.84375 0.171875 C 3.144531 0.171875 2.617188 -0.0351562 2.265625 -0.453125 C 1.910156 -0.878906 1.734375 -1.484375 1.734375 -2.265625 L 1.734375 -7.921875 L 0.078125 -7.921875 L 0.078125 -9.125 L 1.734375 -9.125 L 1.734375 -11.328125 Z M 3.296875 -11.328125 "/></g></g></g><g fill="rgb(89.7995%, 45.098877%, 45.098877%)" fill-opacity="1"><g transform="translate(295.538907, 203.022395)"><g><path d="M 5.59375 -7.71875 C 5.351562 -7.757812 5.097656 -7.78125 4.828125 -7.78125 C 3.796875 -7.78125 3.097656 -7.34375 2.734375 -6.46875 L 2.734375 0 L 1.1875 0 L 1.1875 -9.125 L 2.703125 -9.125 L 2.71875 -8.0625 C 3.226562 -8.882812 3.953125 -9.296875 4.890625 -9.296875 C 5.203125 -9.296875 5.4375 -9.253906 5.59375 -9.171875 Z M 5.59375 -7.71875 "/></g></g></g><g fill="rgb(89.7995%, 45.098877%, 45.098877%)" fill-opacity="1"><g transform="translate(301.379914, 203.022395)"><g><path d="M 6.8125 0 C 6.71875 -0.175781 6.644531 -0.5 6.59375 -0.96875 C 5.863281 -0.207031 5 0.171875 4 0.171875 C 3.09375 0.171875 2.351562 -0.0820312 1.78125 -0.59375 C 1.207031 -1.101562 0.921875 -1.75 0.921875 -2.53125 C 0.921875 -3.476562 1.28125 -4.210938 2 -4.734375 C 2.71875 -5.265625 3.734375 -5.53125 5.046875 -5.53125 L 6.5625 -5.53125 L 6.5625 -6.25 C 6.5625 -6.789062 6.398438 -7.222656 6.078125 -7.546875 C 5.753906 -7.867188 5.273438 -8.03125 4.640625 -8.03125 C 4.078125 -8.03125 3.609375 -7.890625 3.234375 -7.609375 C 2.859375 -7.328125 2.671875 -6.988281 2.671875 -6.59375 L 1.109375 -6.59375 C 1.109375 -7.050781 1.269531 -7.488281 1.59375 -7.90625 C 1.914062 -8.332031 2.351562 -8.671875 2.90625 -8.921875 C 3.457031 -9.171875 4.066406 -9.296875 4.734375 -9.296875 C 5.785156 -9.296875 6.609375 -9.03125 7.203125 -8.5 C 7.796875 -7.976562 8.101562 -7.253906 8.125 -6.328125 L 8.125 -2.140625 C 8.125 -1.296875 8.234375 -0.628906 8.453125 -0.140625 L 8.453125 0 Z M 4.21875 -1.1875 C 4.707031 -1.1875 5.171875 -1.3125 5.609375 -1.5625 C 6.046875 -1.820312 6.363281 -2.148438 6.5625 -2.546875 L 6.5625 -4.421875 L 5.34375 -4.421875 C 3.4375 -4.421875 2.484375 -3.863281 2.484375 -2.75 C 2.484375 -2.257812 2.644531 -1.875 2.96875 -1.59375 C 3.289062 -1.320312 3.707031 -1.1875 4.21875 -1.1875 Z M 4.21875 -1.1875 "/></g></g></g><g fill="rgb(89.7995%, 45.098877%, 45.098877%)" fill-opacity="1"><g transform="translate(310.769344, 203.022395)"><g><path d="M 3.296875 -11.328125 L 3.296875 -9.125 L 5 -9.125 L 5 -7.921875 L 3.296875 -7.921875 L 3.296875 -2.265625 C 3.296875 -1.898438 3.367188 -1.625 3.515625 -1.4375 C 3.671875 -1.25 3.929688 -1.15625 4.296875 -1.15625 C 4.472656 -1.15625 4.722656 -1.191406 5.046875 -1.265625 L 5.046875 0 C 4.628906 0.113281 4.226562 0.171875 3.84375 0.171875 C 3.144531 0.171875 2.617188 -0.0351562 2.265625 -0.453125 C 1.910156 -0.878906 1.734375 -1.484375 1.734375 -2.265625 L 1.734375 -7.921875 L 0.078125 -7.921875 L 0.078125 -9.125 L 1.734375 -9.125 L 1.734375 -11.328125 Z M 3.296875 -11.328125 "/></g></g></g><g fill="rgb(89.7995%, 45.098877%, 45.098877%)" fill-opacity="1"><g transform="translate(316.408065, 203.022395)"><g><path d="M 4.96875 0.171875 C 3.726562 0.171875 2.71875 -0.234375 1.9375 -1.046875 C 1.164062 -1.859375 0.78125 -2.945312 0.78125 -4.3125 L 0.78125 -4.59375 C 0.78125 -5.5 0.953125 -6.304688 1.296875 -7.015625 C 1.648438 -7.722656 2.132812 -8.28125 2.75 -8.6875 C 3.375 -9.09375 4.046875 -9.296875 4.765625 -9.296875 C 5.953125 -9.296875 6.875 -8.90625 7.53125 -8.125 C 8.1875 -7.34375 8.515625 -6.222656 8.515625 -4.765625 L 8.515625 -4.109375 L 2.34375 -4.109375 C 2.363281 -3.210938 2.625 -2.488281 3.125 -1.9375 C 3.632812 -1.382812 4.273438 -1.109375 5.046875 -1.109375 C 5.597656 -1.109375 6.0625 -1.21875 6.4375 -1.4375 C 6.820312 -1.664062 7.160156 -1.960938 7.453125 -2.328125 L 8.40625 -1.59375 C 7.644531 -0.414062 6.5 0.171875 4.96875 0.171875 Z M 4.765625 -8.015625 C 4.140625 -8.015625 3.613281 -7.785156 3.1875 -7.328125 C 2.757812 -6.867188 2.492188 -6.222656 2.390625 -5.390625 L 6.96875 -5.390625 L 6.96875 -5.515625 C 6.914062 -6.304688 6.695312 -6.921875 6.3125 -7.359375 C 5.9375 -7.796875 5.421875 -8.015625 4.765625 -8.015625 Z M 4.765625 -8.015625 "/></g></g></g><g fill="rgb(89.7995%, 45.098877%, 45.098877%)" fill-opacity="1"><g transform="translate(325.553073, 203.022395)"><g><path d="M 0.8125 -4.640625 C 0.8125 -6.054688 1.140625 -7.1875 1.796875 -8.03125 C 2.453125 -8.875 3.320312 -9.296875 4.40625 -9.296875 C 5.519531 -9.296875 6.390625 -8.898438 7.015625 -8.109375 L 7.09375 -9.125 L 8.515625 -9.125 L 8.515625 -0.21875 C 8.515625 0.957031 8.164062 1.882812 7.46875 2.5625 C 6.769531 3.25 5.828125 3.59375 4.640625 3.59375 C 3.984375 3.59375 3.335938 3.453125 2.703125 3.171875 C 2.078125 2.890625 1.597656 2.503906 1.265625 2.015625 L 2.078125 1.078125 C 2.742188 1.898438 3.5625 2.3125 4.53125 2.3125 C 5.289062 2.3125 5.882812 2.097656 6.3125 1.671875 C 6.738281 1.242188 6.953125 0.644531 6.953125 -0.125 L 6.953125 -0.90625 C 6.328125 -0.1875 5.472656 0.171875 4.390625 0.171875 C 3.328125 0.171875 2.460938 -0.253906 1.796875 -1.109375 C 1.140625 -1.972656 0.8125 -3.148438 0.8125 -4.640625 Z M 2.375 -4.453125 C 2.375 -3.429688 2.582031 -2.625 3 -2.03125 C 3.425781 -1.445312 4.019531 -1.15625 4.78125 -1.15625 C 5.757812 -1.15625 6.484375 -1.601562 6.953125 -2.5 L 6.953125 -6.65625 C 6.472656 -7.53125 5.753906 -7.96875 4.796875 -7.96875 C 4.035156 -7.96875 3.441406 -7.671875 3.015625 -7.078125 C 2.585938 -6.492188 2.375 -5.617188 2.375 -4.453125 Z M 2.375 -4.453125 "/></g></g></g><g fill="rgb(89.7995%, 45.098877%, 45.098877%)" fill-opacity="1"><g transform="translate(335.237509, 203.022395)"><g><path d="M 4.171875 -2.28125 L 6.296875 -9.125 L 7.953125 -9.125 L 4.296875 1.40625 C 3.722656 2.925781 2.816406 3.6875 1.578125 3.6875 L 1.296875 3.65625 L 0.703125 3.546875 L 0.703125 2.28125 L 1.125 2.3125 C 1.65625 2.3125 2.066406 2.203125 2.359375 1.984375 C 2.660156 1.773438 2.90625 1.390625 3.09375 0.828125 L 3.4375 -0.09375 L 0.1875 -9.125 L 1.890625 -9.125 Z M 4.171875 -2.28125 "/></g></g></g></svg>